SplineFontDB: 3.2
FontName: OpenSatlujUni-Regular
FullName: OpenSatlujUni
FamilyName: OpenSatlujUni
Weight: Regular
Copyright: (c) Summit Information Technologies Limited
Version: 2.6.0
ItalicAngle: 0
UnderlinePosition: -166
UnderlineWidth: 67
Ascent: 701
Descent: 299
InvalidEm: 0
LayerCount: 2
Layer: 0 1 "Back" 1
Layer: 1 1 "Fore" 0
XUID: [1021 207 -687024544 30884]
StyleMap: 0x0040
FSType: 0
OS2Version: 0
OS2_WeightWidthSlopeOnly: 0
OS2_UseTypoMetrics: 1
CreationTime: 1564099866
ModificationTime: 1745165481
PfmFamily: 33
TTFWeight: 400
TTFWidth: 5
LineGap: 0
VLineGap: 0
Panose: 2 11 5 2 4 5 5 2 2 4
OS2TypoAscent: 701
OS2TypoAOffset: 0
OS2TypoDescent: -299
OS2TypoDOffset: 0
OS2TypoLinegap: 0
OS2WinAscent: 1209
OS2WinAOffset: 0
OS2WinDescent: 345
OS2WinDOffset: 0
HheadAscent: 701
HheadAOffset: 0
HheadDescent: -299
HheadDOffset: 0
OS2SubXSize: 700
OS2SubYSize: 650
OS2SubXOff: 0
OS2SubYOff: 143
OS2SupXSize: 700
OS2SupYSize: 650
OS2SupXOff: 0
OS2SupYOff: 453
OS2StrikeYSize: 50
OS2StrikeYPos: 259
OS2Vendor: 'GBNW'
OS2CodePages: 00000001.00000000
OS2UnicodeRanges: 00020000.00000000.00000000.00000000
Lookup: 1 0 0 "'hist' Historical Forms in Gurmukhi lookup 7" { "'hist' Historical Forms in Gurmukhi lookup 7-1"  } ['hist' ('DFLT' <'dflt' > 'guru' <'dflt' > ) ]
Lookup: 4 0 0 "'psts' Post Base Substitutions in Gurmukhi lookup 6" { "'psts' Post Base Substitutions in Gurmukhi lookup 6 subtable"  } ['psts' ('DFLT' <'dflt' > 'guru' <'dflt' > ) ]
Lookup: 4 0 1 "Ligatures in Gurmukhi lookup 5" { "Ligatures in Gurmukhi lookup 5 subtable"  } ['liga' ('DFLT' <'dflt' > 'guru' <'dflt' > ) 'rlig' ('DFLT' <'dflt' > 'guru' <'dflt' > ) ]
Lookup: 4 0 0 "'nukt' Nukta Forms in Gurmukhi lookup 4" { "'nukt' Nukta Forms in Gurmukhi lookup 4 subtable"  } ['nukt' ('DFLT' <'dflt' > 'guru' <'dflt' > ) ]
Lookup: 4 0 0 "'abvs' Above Base Substitutions in Gurmukhi lookup 3" { "'abvs' Above Base Substitutions in Gurmukhi lookup 3 subtable"  } ['abvs' ('DFLT' <'dflt' > 'guru' <'dflt' > ) ]

StartChar: uni0A02
Encoding: 2562 2562 0
Width: 92
Flags: W
LayerCount: 2
Fore
SplineSet
131 525 m 1,0,-1
 -37 525 l 1,1,-1
 -37 604 l 1,2,-1
 131 604 l 1,3,-1
 131 525 l 1,0,-1
61 761 m 128,-1,5
 77 745 77 745 77 722.5 c 128,-1,6
 77 700 77 700 61 683.5 c 128,-1,7
 45 667 45 667 22 667 c 128,-1,8
 -1 667 -1 667 -17 683.5 c 128,-1,9
 -33 700 -33 700 -33 722.5 c 128,-1,10
 -33 745 -33 745 -17 761 c 128,-1,11
 -1 777 -1 777 22 777 c 128,-1,4
 45 777 45 777 61 761 c 128,-1,5
EndSplineSet
Validated: 1
EndChar

StartChar: uni0A05
Encoding: 2565 2565 1
Width: 750
Flags: W
LayerCount: 2
Fore
SplineSet
789 525 m 1,0,-1
 652 525 l 1,1,-1
 652 0 l 1,2,-1
 567 0 l 1,3,-1
 567 321 l 1,4,5
 553 319 553 319 492 289 c 128,-1,6
 431 259 431 259 415 242 c 1,7,8
 415 240 415 240 415 238 c 128,-1,9
 415 236 415 236 415 234 c 128,-1,10
 415 232 415 232 415 230 c 128,-1,11
 415 228 415 228 415 226 c 0,12,13
 415 224 415 224 415 223 c 0,14,15
 414 171 414 171 384 115 c 0,16,17
 352 58 352 58 309 58 c 0,18,19
 262 58 262 58 262 136 c 0,20,21
 262 195 262 195 343 264 c 1,22,23
 346 289 346 289 346 328 c 0,24,25
 346 348 346 348 346 370 c 0,26,27
 344 440 344 440 332 440 c 0,28,29
 302 440 302 440 258 410.5 c 128,-1,30
 214 381 214 381 179 356 c 1,31,32
 180 350 180 350 180 343 c 0,33,34
 180 301 180 301 152 249 c 0,35,36
 116 180 116 180 67 180 c 0,37,38
 47 180 47 180 35 212 c 0,39,40
 24 239 24 239 24 271.5 c 128,-1,41
 24 304 24 304 46 330 c 0,42,43
 58 346 58 346 86 367 c 128,-1,44
 114 388 114 388 118 397 c 1,45,46
 118 525 118 525 38 525 c 2,47,-1
 -18 525 l 1,48,-1
 -18 604 l 1,49,-1
 20 604 l 2,50,51
 94 604 94 604 136 572 c 128,-1,52
 178 540 178 540 192 452 c 1,53,54
 260 510 260 510 373 543 c 1,55,56
 396 543 396 543 406 455 c 0,57,58
 413 395 413 395 414 358 c 0,59,60
 414 340 414 340 412 327 c 1,61,62
 429 342 429 342 487 371 c 128,-1,63
 545 400 545 400 567 401 c 1,64,-1
 567 604 l 1,65,-1
 789 604 l 1,66,-1
 789 525 l 1,0,-1
EndSplineSet
Validated: 1
EndChar

StartChar: uni0A13
Encoding: 2579 2579 2
Width: 696
Flags: W
LayerCount: 2
Fore
SplineSet
460 148 m 0,0,1
 460 197 460 197 429.5 233 c 128,-1,2
 399 269 399 269 351 269 c 2,3,-1
 152 269 l 1,4,5
 177 201 177 201 223 144 c 0,6,7
 288 64 288 64 359 64 c 0,8,9
 401 64 401 64 430.5 93.5 c 128,-1,10
 460 123 460 123 460 148 c 0,0,1
108 525 m 1,11,12
 112 391 112 391 134 342 c 1,13,-1
 401 342 l 2,14,15
 446 342 446 342 490 404 c 0,16,17
 528 458 528 458 529 509 c 0,18,19
 529 517 529 517 528 525 c 1,20,-1
 108 525 l 1,11,12
735 525 m 1,21,-1
 606 525 l 1,22,23
 600 419 600 419 546 355 c 0,24,25
 495 295 495 295 465 295 c 0,26,27
 463 295 463 295 461 295 c 1,28,29
 528 236 528 236 528 152 c 0,30,31
 528 96 528 96 479.5 49 c 128,-1,32
 431 2 431 2 361 2 c 0,33,34
 217 2 217 2 119 162 c 0,35,36
 37 294 37 294 29 439 c 0,37,38
 28 472 28 472 26 525 c 1,39,-1
 -10 525 l 1,40,-1
 -10 604 l 1,41,-1
 34 604 l 1,42,43
 34 709 34 709 117.5 796.5 c 128,-1,44
 201 884 201 884 336 884 c 2,45,-1
 566 884 l 1,46,-1
 566 809 l 1,47,-1
 331 809 l 2,48,49
 244 809 244 809 179.5 741 c 128,-1,50
 115 673 115 673 115 604 c 1,51,-1
 735 604 l 1,52,-1
 735 525 l 1,21,-1
EndSplineSet
Validated: 1
EndChar

StartChar: uni0A15
Encoding: 2581 2581 3
Width: 648
Flags: W
LayerCount: 2
Fore
SplineSet
144 167.5 m 128,-1,1
 181 137 181 137 229 137 c 128,-1,2
 277 137 277 137 319.5 183 c 128,-1,3
 362 229 362 229 362 245.5 c 128,-1,4
 362 262 362 262 318 309.5 c 128,-1,5
 274 357 274 357 221 357 c 128,-1,6
 168 357 168 357 137.5 325.5 c 128,-1,7
 107 294 107 294 107 237 c 0,8,0
 107 198 107 198 144 167.5 c 128,-1,1
687 525 m 1,9,-1
 537 525 l 1,10,11
 538 519 538 519 538 512 c 0,12,13
 538 478 538 478 523 403 c 0,14,15
 505 312 505 312 463 236 c 1,16,17
 492 188 492 188 507 114 c 128,-1,18
 522 40 522 40 522 -1 c 1,19,-1
 438 0 l 1,20,21
 438 60 438 60 404 159 c 1,22,23
 392 132 392 132 336.5 95.5 c 128,-1,24
 281 59 281 59 227 59 c 0,25,26
 147 59 147 59 85.5 110 c 128,-1,27
 24 161 24 161 24 236 c 0,28,29
 24 332 24 332 78.5 384.5 c 128,-1,30
 133 437 133 437 209.5 437 c 128,-1,31
 286 437 286 437 351 386 c 0,32,33
 395 351 395 351 410 321 c 1,34,35
 429 370 429 370 443 438 c 0,36,37
 455 494 455 494 455 517 c 0,38,39
 455 522 455 522 454 525 c 1,40,-1
 -2 525 l 1,41,-1
 -2 604 l 1,42,-1
 687 604 l 1,43,-1
 687 525 l 1,9,-1
EndSplineSet
Validated: 1
EndChar

StartChar: uni0A16
Encoding: 2582 2582 4
Width: 564
Flags: W
LayerCount: 2
Fore
SplineSet
380 205 m 1,0,-1
 380 356 l 1,1,-1
 177 356 l 1,2,3
 169 304 169 304 138 249 c 1,4,5
 138 227 138 227 186 194.5 c 128,-1,6
 234 162 234 162 269 162 c 0,7,8
 304 162 304 162 325 172 c 0,9,10
 346 182 346 182 380 205 c 1,0,-1
603 525 m 1,11,-1
 465 525 l 1,12,-1
 465 -1 l 1,13,-1
 380 -1 l 1,14,-1
 380 111 l 1,15,16
 325 80 325 80 265 80 c 0,17,18
 205 80 205 80 121 147 c 0,19,20
 37 214 37 214 37 248 c 1,21,22
 95 306 95 306 95 414 c 0,23,24
 95 469 95 469 83 525 c 1,25,-1
 -2 525 l 1,26,-1
 -2 604 l 1,27,-1
 150 604 l 1,28,29
 158 578 158 578 169 514 c 0,30,31
 180 450 180 450 180 429 c 1,32,-1
 380 429 l 1,33,-1
 380 604 l 1,34,-1
 603 604 l 1,35,-1
 603 525 l 1,11,-1
EndSplineSet
Validated: 1
EndChar

StartChar: uni0A17
Encoding: 2583 2583 5
Width: 730
Flags: W
LayerCount: 2
Fore
SplineSet
328 133 m 2,0,-1
 328 310 l 1,1,-1
 154 310 l 2,2,3
 98 310 98 310 98 254 c 0,4,5
 98 177 98 177 152 127 c 128,-1,6
 206 77 206 77 259 77 c 0,7,8
 286 77 286 77 307 92.5 c 128,-1,9
 328 108 328 108 328 133 c 2,0,-1
769 525 m 1,10,-1
 630 525 l 1,11,-1
 630 0 l 1,12,-1
 545 0 l 1,13,-1
 545 525 l 1,14,-1
 413 525 l 1,15,-1
 413 135 l 2,16,17
 413 75 413 75 374 38 c 128,-1,18
 335 1 335 1 264 1 c 0,19,20
 263 1 263 1 262 1 c 128,-1,21
 261 1 261 1 260 1 c 128,-1,22
 259 1 259 1 258 1 c 0,23,24
 175 1 175 1 100 80 c 0,25,26
 24 160 24 160 24 265 c 0,27,28
 24 387 24 387 163 387 c 2,29,-1
 328 387 l 1,30,-1
 328 525 l 1,31,-1
 -2 525 l 1,32,-1
 -2 604 l 1,33,-1
 769 604 l 1,34,-1
 769 525 l 1,10,-1
EndSplineSet
Validated: 1
EndChar

StartChar: uni0A18
Encoding: 2584 2584 6
Width: 750
Flags: W
LayerCount: 2
Fore
SplineSet
789 525 m 1,0,-1
 651 525 l 1,1,-1
 651 0 l 1,2,-1
 566 0 l 1,3,-1
 566 127 l 1,4,5
 506 89 506 89 459 89 c 0,6,7
 385 89 385 89 340 158 c 1,8,9
 291 90 291 90 214.5 90 c 128,-1,10
 138 90 138 90 77 162 c 0,11,12
 26 220 26 220 26 254 c 1,13,14
 26 254 26 254 42 272 c 0,15,16
 82 320 82 320 82 423 c 0,17,18
 82 465 82 465 62 525 c 1,19,-1
 1 525 l 1,20,-1
 1 604 l 1,21,-1
 131 604 l 1,22,23
 170 496 170 496 170 417 c 0,24,25
 170 344 170 344 137 282 c 0,26,27
 124 258 124 258 124 255 c 0,28,29
 124 240 124 240 144 217 c 0,30,31
 172 183 172 183 218 183 c 0,32,33
 249 183 249 183 275 219.5 c 128,-1,34
 301 256 301 256 301 274 c 128,-1,35
 301 292 301 292 291 353.5 c 128,-1,36
 281 415 281 415 281 461 c 128,-1,37
 281 507 281 507 299.5 555 c 128,-1,38
 318 603 318 603 352 603 c 0,39,40
 411 603 411 603 411 450 c 0,41,42
 411 399 411 399 395 344 c 128,-1,43
 379 289 379 289 379 279 c 0,44,45
 379 251 379 251 399 220 c 0,46,47
 428 176 428 176 472 176 c 128,-1,48
 516 176 516 176 541 203 c 128,-1,49
 566 230 566 230 566 249 c 2,50,-1
 566 604 l 1,51,-1
 789 604 l 1,52,-1
 789 525 l 1,0,-1
EndSplineSet
Validated: 1
EndChar

StartChar: uni0A19
Encoding: 2585 2585 7
Width: 550
Flags: W
LayerCount: 2
Fore
SplineSet
255 109 m 1,0,1
 226 173 226 173 164 173 c 0,2,3
 102 173 102 173 102 135 c 0,4,5
 102 76 102 76 177 76 c 0,6,7
 200 76 200 76 255 109 c 1,0,1
589 525 m 1,8,-1
 108 525 l 1,9,-1
 108 428 l 1,10,-1
 181 428 l 2,11,12
 278 428 278 428 365 370 c 128,-1,13
 452 312 452 312 452 244 c 0,14,15
 452 149 452 149 369 78 c 1,16,17
 385 46 385 46 402 0 c 1,18,-1
 315 0 l 1,19,20
 313 4 313 4 299 39 c 1,21,22
 220 0 220 0 166 0 c 0,23,24
 112 0 112 0 68 40.5 c 128,-1,25
 24 81 24 81 24 137 c 0,26,27
 24 193 24 193 64 224.5 c 128,-1,28
 104 256 104 256 163 256 c 0,29,30
 222 256 222 256 274 208 c 1,31,32
 296 181 296 181 319 154 c 1,33,34
 366 194 366 194 366 233 c 0,35,36
 366 272 366 272 304.5 306.5 c 128,-1,37
 243 341 243 341 179 341 c 2,38,-1
 23 341 l 1,39,-1
 25 525 l 1,40,-1
 -2 525 l 1,41,-1
 -2 604 l 1,42,-1
 589 604 l 1,43,-1
 589 525 l 1,8,-1
EndSplineSet
Validated: 1
EndChar

StartChar: uni0A1A
Encoding: 2586 2586 8
Width: 648
Flags: W
LayerCount: 2
Fore
SplineSet
466 137 m 2,0,-1
 466 282 l 1,1,-1
 202 282 l 1,2,3
 202 269 202 269 210 234 c 0,4,5
 217 203 217 203 260 152 c 0,6,7
 318 83 318 83 393 83 c 0,8,9
 394 83 394 83 395 83 c 128,-1,10
 396 83 396 83 397 83 c 0,11,12
 415 83 415 83 440 98 c 0,13,14
 466 114 466 114 466 137 c 2,0,-1
687 525 m 1,15,-1
 551 525 l 1,16,-1
 551 135 l 2,17,18
 551 74 551 74 507 36 c 0,19,20
 462 -1 462 -1 386 -1 c 0,21,22
 309 -1 309 -1 232 66 c 0,23,24
 154 134 154 134 122 232 c 0,25,26
 110 268 110 268 110 282 c 1,27,-1
 30 282 l 1,28,29
 30 307 30 307 34 328 c 0,30,31
 42 379 42 379 63 402 c 0,32,33
 97 439 97 439 173 439 c 0,34,35
 189 439 189 439 202 437 c 1,36,-1
 202 360 l 1,37,-1
 466 360 l 1,38,-1
 466 525 l 1,39,-1
 -2 525 l 1,40,-1
 -2 604 l 1,41,-1
 687 604 l 1,42,-1
 687 525 l 1,15,-1
EndSplineSet
Validated: 1
EndChar

StartChar: uni0A1B
Encoding: 2587 2587 9
Width: 681
Flags: W
AnchorPoint: "alt_blwm_position" 393 -48 basechar 0
LayerCount: 2
Fore
SplineSet
265 79 m 1,0,-1
 265 188 l 1,1,2
 122 188 122 188 122 146 c 0,3,4
 122 121 122 121 161.5 100 c 128,-1,5
 201 79 201 79 265 79 c 1,0,-1
496 148 m 0,6,7
 496 188 496 188 351 188 c 1,8,-1
 351 79 l 1,9,10
 414 79 414 79 455 101 c 128,-1,11
 496 123 496 123 496 148 c 0,6,7
719 525 m 1,12,-1
 575 525 l 1,13,-1
 575 365 l 1,14,-1
 233 365 l 2,15,16
 230 365 230 365 228 365 c 0,17,18
 186 365 186 365 172.5 350 c 128,-1,19
 159 335 159 335 159 311 c 0,20,21
 159 309 159 309 159 307 c 0,22,23
 159 265 159 265 202 265 c 2,24,-1
 433 265 l 2,25,26
 502 265 502 265 542 235 c 128,-1,27
 582 205 582 205 582 162 c 0,28,29
 582 -1 582 -1 304 -1 c 0,30,31
 169 -1 169 -1 96 46 c 0,32,33
 31 86 31 86 31 149 c 0,34,35
 31 188 31 188 60 213 c 1,36,37
 79 224 79 224 97 236 c 1,38,39
 60 262 60 262 60 307 c 0,40,41
 60 436 60 436 188 436 c 2,42,-1
 490 436 l 1,43,-1
 490 525 l 1,44,-1
 1 525 l 1,45,-1
 1 604 l 1,46,-1
 719 604 l 1,47,-1
 719 525 l 1,12,-1
EndSplineSet
Validated: 1
EndChar

StartChar: uni0A1C
Encoding: 2588 2588 10
Width: 658
Flags: W
LayerCount: 2
Fore
SplineSet
697 525 m 1,0,-1
 558 525 l 1,1,-1
 558 0 l 1,2,-1
 473 0 l 1,3,-1
 473 228 l 1,4,-1
 210 228 l 1,5,-1
 210 -1 l 1,6,-1
 125 -1 l 1,7,-1
 125 228 l 1,8,-1
 32 228 l 1,9,10
 30 242 30 242 30 259 c 0,11,12
 30 311 30 311 50 344 c 0,13,14
 90 410 90 410 190 410 c 0,15,16
 200 410 200 410 210 409 c 1,17,-1
 210 313 l 1,18,-1
 473 313 l 1,19,-1
 473 525 l 1,20,-1
 1 525 l 1,21,-1
 1 604 l 1,22,-1
 697 604 l 1,23,-1
 697 525 l 1,0,-1
EndSplineSet
Validated: 1
EndChar

StartChar: uni0A1D
Encoding: 2589 2589 11
Width: 546
Flags: W
LayerCount: 2
Fore
SplineSet
368 525 m 1,0,-1
 116 525 l 1,1,2
 117 476 117 476 166.5 428 c 128,-1,3
 216 380 216 380 257 380 c 128,-1,4
 298 380 298 380 334 436 c 0,5,6
 368 489 368 489 368 521 c 0,7,8
 368 523 368 523 368 525 c 1,0,-1
449 525 m 1,9,10
 426 380 426 380 334 327 c 1,11,12
 410 284 410 284 410 213 c 0,13,14
 410 99 410 99 275 74 c 1,15,-1
 349 0 l 1,16,-1
 234 0 l 1,17,-1
 162 72 l 1,18,19
 151 70 151 70 140 70 c 0,20,21
 100 70 100 70 71 93 c 128,-1,22
 42 116 42 116 42 143.5 c 128,-1,23
 42 171 42 171 63 186 c 128,-1,24
 84 201 84 201 112 201 c 0,25,26
 113 201 113 201 114 201 c 0,27,28
 142 201 142 201 171 172 c 0,29,30
 199 144 199 144 199 142 c 0,31,-1
 199 142 l 1,32,33
 255 142 255 142 282 150 c 0,34,35
 329 165 329 165 329 207 c 0,36,37
 329 274 329 274 262 274 c 2,38,-1
 55 274 l 1,39,-1
 24 352 l 1,40,-1
 145 352 l 1,41,42
 108 369 108 369 73.5 420.5 c 128,-1,43
 39 472 39 472 28 525 c 1,44,-1
 -2 525 l 1,45,-1
 -2 604 l 1,46,-1
 585 604 l 1,47,-1
 585 525 l 1,48,-1
 449 525 l 1,9,10
EndSplineSet
Validated: 5
EndChar

StartChar: uni0A1E
Encoding: 2590 2590 12
Width: 552
Flags: W
LayerCount: 2
Fore
SplineSet
369 433 m 1,0,-1
 369 525 l 1,1,-1
 164 525 l 1,2,-1
 206 433 l 1,3,-1
 369 433 l 1,0,-1
591 525 m 1,4,-1
 454 525 l 1,5,-1
 454 349 l 1,6,-1
 178 349 l 2,7,8
 112 349 112 349 112 289 c 0,9,10
 112 261 112 261 139 254 c 0,11,12
 148 252 148 252 189 252 c 2,13,-1
 413 252 l 1,14,-1
 413 174 l 1,15,-1
 241 174 l 1,16,17
 243 156 243 156 277 119 c 0,18,19
 315 75 315 75 347 75 c 0,20,21
 362 75 362 75 394 89 c 1,22,-1
 394 7 l 1,23,24
 368 -1 368 -1 350 -1 c 0,25,26
 258 -1 258 -1 145 173 c 1,27,28
 108 173 108 173 72 201 c 0,29,30
 23 239 23 239 23 303 c 0,31,32
 24 344 24 344 48 383 c 0,33,34
 72 422 72 422 116 432 c 1,35,-1
 70 525 l 1,36,-1
 -1 525 l 1,37,-1
 -1 604 l 1,38,-1
 591 604 l 1,39,-1
 591 525 l 1,4,-1
EndSplineSet
Validated: 1
EndChar

StartChar: uni0A1F
Encoding: 2591 2591 13
Width: 555
Flags: W
AnchorPoint: "alt_blwm_position" 267 -48 basechar 0
LayerCount: 2
Fore
SplineSet
595 525 m 1,0,-1
 458 525 l 1,1,-1
 458 356 l 1,2,3
 457 356 457 356 455 356 c 0,4,5
 430 356 430 356 358 340 c 0,6,7
 280 323 280 323 236.5 294.5 c 128,-1,8
 193 266 193 266 159.5 234 c 128,-1,9
 126 202 126 202 126 190 c 0,10,11
 126 166 126 166 186 121 c 0,12,13
 249 72 249 72 293 72 c 0,14,15
 338 72 338 72 390 110 c 0,16,17
 441 147 441 147 441 149 c 0,18,19
 441 149 441 149 441 149 c 1,20,21
 454 149 454 149 457 145.5 c 128,-1,22
 460 142 460 142 460 128 c 0,23,24
 460 102 460 102 398 51 c 128,-1,25
 336 0 336 0 278.5 0 c 128,-1,26
 221 0 221 0 164 41 c 128,-1,27
 107 82 107 82 67.5 132.5 c 128,-1,28
 28 183 28 183 28 198 c 128,-1,29
 28 213 28 213 73 267 c 0,30,31
 163 375 163 375 296 415 c 0,32,33
 344 429 344 429 373 430 c 1,34,-1
 373 525 l 1,35,-1
 -2 525 l 1,36,-1
 -2 604 l 1,37,-1
 595 604 l 1,38,-1
 595 525 l 1,0,-1
EndSplineSet
Validated: 1
EndChar

StartChar: uni0A20
Encoding: 2592 2592 14
Width: 652
Flags: W
LayerCount: 2
Fore
SplineSet
467 202 m 0,0,1
 467 285 467 285 386 328 c 0,2,3
 335 354 335 354 294 354 c 128,-1,4
 253 354 253 354 199 326 c 0,5,6
 116 283 116 283 116 199 c 0,7,8
 116 80 116 80 294 80 c 0,9,10
 373 80 373 80 420 111 c 128,-1,11
 467 142 467 142 467 202 c 0,0,1
691 525 m 1,12,-1
 335 525 l 1,13,-1
 335 422 l 1,14,15
 415 420 415 420 484 358 c 128,-1,16
 553 296 553 296 553 202 c 128,-1,17
 553 108 553 108 484 54 c 0,18,19
 414 0 414 0 298 0 c 128,-1,20
 182 0 182 0 106 50 c 0,21,22
 31 99 31 99 31 197 c 0,23,24
 31 198 31 198 31 200 c 0,25,26
 31 300 31 300 110 366 c 0,27,28
 176 421 176 421 248 422 c 1,29,-1
 248 525 l 1,30,-1
 -2 525 l 1,31,-1
 -2 604 l 1,32,-1
 691 604 l 1,33,-1
 691 525 l 1,12,-1
EndSplineSet
Validated: 1
EndChar

StartChar: uni0A21
Encoding: 2593 2593 15
Width: 654
Flags: W
LayerCount: 2
Fore
SplineSet
350 97 m 1,0,1
 302 182 302 182 206 182 c 128,-1,2
 110 182 110 182 110 138 c 0,3,4
 110 116 110 116 143 95 c 128,-1,5
 176 74 176 74 219 74 c 0,6,7
 303 74 303 74 350 97 c 1,0,1
693 525 m 1,8,-1
 548 525 l 1,9,10
 535 426 535 426 460 355 c 1,11,12
 495 328 495 328 513 304 c 128,-1,13
 531 280 531 280 531 232 c 0,14,15
 531 129 531 129 441.5 64.5 c 128,-1,16
 352 0 352 0 218 0 c 0,17,18
 146 0 146 0 89 42.5 c 128,-1,19
 32 85 32 85 32 141 c 0,20,21
 32 198 32 198 77 228 c 128,-1,22
 122 258 122 258 185 258 c 0,23,24
 269 258 269 258 340 206 c 0,25,26
 366 187 366 187 410 138 c 1,27,28
 453 180 453 180 453 232 c 0,29,30
 452 284 452 284 418 310 c 128,-1,31
 384 336 384 336 350 336 c 128,-1,32
 316 336 316 336 273 322.5 c 128,-1,33
 230 309 230 309 190 309 c 128,-1,34
 150 309 150 309 111 326 c 0,35,36
 66 344 66 344 66 372 c 0,37,38
 66 396 66 396 107 410 c 128,-1,39
 148 424 148 424 189 424 c 128,-1,40
 230 424 230 424 274 410 c 0,41,42
 318 396 318 396 350 396 c 0,43,44
 351 396 351 396 352 396 c 0,45,46
 384 396 384 396 421 437 c 128,-1,47
 458 478 458 478 458 525 c 1,48,-1
 -2 525 l 1,49,-1
 -2 604 l 1,50,-1
 693 604 l 1,51,-1
 693 525 l 1,8,-1
EndSplineSet
Validated: 1
EndChar

StartChar: uni0A22
Encoding: 2594 2594 16
Width: 692
Flags: W
LayerCount: 2
Fore
SplineSet
493 89 m 128,-1,1
 515 104 515 104 515 121.5 c 128,-1,2
 515 139 515 139 500 150 c 128,-1,3
 485 161 485 161 469 161 c 0,4,5
 404 161 404 161 343 96 c 1,6,7
 370 74 370 74 448 74 c 0,8,0
 471 74 471 74 493 89 c 128,-1,1
731 525 m 1,9,-1
 576 525 l 1,10,-1
 576 307 l 1,11,-1
 187 307 l 1,12,13
 189 193 189 193 276 131 c 1,14,15
 356 232 356 232 460 232 c 0,16,17
 520 232 520 232 556 199.5 c 128,-1,18
 592 167 592 167 592 127 c 0,19,20
 592 73 592 73 547.5 35.5 c 128,-1,21
 503 -2 503 -2 440 -2 c 0,22,23
 283 -2 283 -2 195 97 c 0,24,25
 123 176 123 176 103 310 c 1,26,-1
 31 310 l 1,27,28
 31 367 31 367 30 367 c 0,29,30
 30 367 30 367 30 366 c 1,31,32
 33 402 33 402 52 434.5 c 128,-1,33
 71 467 71 467 112 477 c 0,34,35
 127 480 127 480 179 480 c 1,36,-1
 179 392 l 1,37,-1
 491 392 l 1,38,-1
 491 525 l 1,39,-1
 -2 525 l 1,40,-1
 -2 604 l 1,41,-1
 731 604 l 1,42,-1
 731 525 l 1,9,-1
EndSplineSet
Validated: 5
EndChar

StartChar: uni0A23
Encoding: 2595 2595 17
Width: 721
Flags: W
LayerCount: 2
Fore
SplineSet
760 525 m 1,0,-1
 392 525 l 1,1,2
 413 496 413 496 476.5 457 c 128,-1,3
 540 418 540 418 598 395 c 1,4,-1
 572 318 l 1,5,6
 537 334 537 334 464 375 c 1,7,8
 449 367 449 367 445 324 c 0,9,10
 444 295 444 295 443 265 c 0,11,12
 440 219 440 219 412 219 c 0,13,14
 401 219 401 219 379.5 241 c 128,-1,15
 358 263 358 263 334 277 c 0,16,17
 310 291 310 291 262 291 c 0,18,19
 260 290 260 290 259 290 c 0,20,21
 209 290 209 290 166 259.5 c 128,-1,22
 123 229 123 229 123 214 c 0,23,24
 123 168 123 168 217.5 119.5 c 128,-1,25
 312 71 312 71 374 70 c 0,26,27
 378 70 378 70 381 70 c 0,28,29
 439 70 439 70 481 86 c 0,30,31
 526 102 526 102 561 124 c 128,-1,32
 596 146 596 146 598 146 c 0,33,34
 622 146 622 146 622 120 c 0,35,36
 622 98 622 98 531.5 49 c 128,-1,37
 441 0 441 0 350.5 0 c 128,-1,38
 260 0 260 0 142 76.5 c 128,-1,39
 24 153 24 153 24 216 c 0,40,41
 24 233 24 233 59 274.5 c 128,-1,42
 94 316 94 316 150.5 348.5 c 128,-1,43
 207 381 207 381 271 381 c 0,44,45
 311 381 311 381 358 348 c 1,46,47
 370 382 370 382 394 424 c 1,48,49
 343 450 343 450 274 525 c 1,50,-1
 1 525 l 1,51,-1
 1 604 l 1,52,-1
 760 604 l 1,53,-1
 760 525 l 1,0,-1
EndSplineSet
Validated: 1
EndChar

StartChar: uni0A24
Encoding: 2596 2596 18
Width: 675
Flags: W
AnchorPoint: "alt_blwm_position" 387 -48 basechar 0
LayerCount: 2
Fore
SplineSet
714 525 m 1,0,-1
 575 525 l 1,1,2
 576 512 576 512 576 500 c 0,3,4
 576 410 576 410 543 353 c 0,5,6
 517 306 517 306 475 289 c 1,7,8
 505 274 505 274 535 259 c 1,9,10
 572 233 572 233 572 176 c 0,11,12
 572 97 572 97 498 48 c 128,-1,13
 424 -1 424 -1 317 -1 c 0,14,15
 237 -1 237 -1 174 35 c 128,-1,16
 111 71 111 71 74 115 c 128,-1,17
 37 159 37 159 37 173.5 c 128,-1,18
 37 188 37 188 40 192.5 c 128,-1,19
 43 197 43 197 57 197 c 0,20,21
 61 197 61 197 100 161.5 c 128,-1,22
 139 126 139 126 191.5 99.5 c 128,-1,23
 244 73 244 73 319 73 c 128,-1,24
 394 73 394 73 439 104 c 128,-1,25
 484 135 484 135 484 175 c 128,-1,26
 484 215 484 215 450 233 c 0,27,28
 420 250 420 250 386.5 250 c 128,-1,29
 353 250 353 250 310.5 243 c 128,-1,30
 268 236 268 236 228 236 c 128,-1,31
 188 236 188 236 148.5 252.5 c 128,-1,32
 109 269 109 269 109 296 c 0,33,34
 109 354 109 354 248 354 c 0,35,36
 268 354 268 354 313 339.5 c 128,-1,37
 358 325 358 325 373 325 c 0,38,39
 406 325 406 325 446.5 365.5 c 128,-1,40
 487 406 487 406 487 445 c 0,41,42
 487 517 487 517 477 525 c 1,43,-1
 -2 525 l 1,44,-1
 -2 604 l 1,45,-1
 714 604 l 1,46,-1
 714 525 l 1,0,-1
EndSplineSet
Validated: 1
EndChar

StartChar: uni0A25
Encoding: 2597 2597 19
Width: 574
Flags: W
LayerCount: 2
Fore
SplineSet
390 213 m 1,0,-1
 390 304 l 1,1,-1
 163 304 l 1,2,3
 150 256 150 256 124 249 c 1,4,5
 124 223 124 223 180 189 c 0,6,7
 232 156 232 156 268 156 c 0,8,9
 304 156 304 156 339 176 c 0,10,11
 356 185 356 185 390 213 c 1,0,-1
390 377 m 1,12,-1
 390 525 l 1,13,-1
 168 525 l 1,14,15
 170 512 170 512 175 480 c 0,16,17
 180 448 180 448 181 377 c 1,18,-1
 390 377 l 1,12,-1
613 525 m 1,19,-1
 475 525 l 1,20,-1
 475 -1 l 1,21,-1
 390 -1 l 1,22,-1
 390 118 l 1,23,24
 333 74 333 74 266 74 c 128,-1,25
 199 74 199 74 111 140 c 0,26,27
 23 206 23 206 23 248 c 1,28,29
 95 306 95 306 95 414 c 0,30,31
 95 469 95 469 83 525 c 1,32,-1
 -2 525 l 1,33,-1
 -2 604 l 1,34,-1
 613 604 l 1,35,-1
 613 525 l 1,19,-1
EndSplineSet
Validated: 1
EndChar

StartChar: uni0A26
Encoding: 2598 2598 20
Width: 652
Flags: W
AnchorPoint: "alt_blwm_position" 364 -48 basechar 0
LayerCount: 2
Fore
SplineSet
691 525 m 1,0,-1
 553 525 l 1,1,-1
 553 259 l 1,2,-1
 188 259 l 1,3,4
 190 176 190 176 240.5 121 c 128,-1,5
 291 66 291 66 371 66 c 0,6,7
 457 66 457 66 514 105 c 0,8,9
 535 118 535 118 543 118 c 128,-1,10
 551 118 551 118 553.5 114 c 128,-1,11
 556 110 556 110 556 95 c 0,12,13
 556 71 556 71 473 34.5 c 128,-1,14
 390 -2 390 -2 352 -2 c 0,15,16
 244 -2 244 -2 165 75 c 0,17,18
 93 145 93 145 93 239 c 0,19,20
 93 249 93 249 94 258 c 1,21,-1
 39 258 l 1,22,23
 23 276 23 276 23 306 c 128,-1,24
 23 336 23 336 42 371 c 0,25,26
 70 422 70 422 149 422 c 0,27,28
 170 422 170 422 189 418 c 1,29,-1
 189 334 l 1,30,-1
 468 334 l 1,31,-1
 468 525 l 1,32,-1
 -2 525 l 1,33,-1
 -2 604 l 1,34,-1
 691 604 l 1,35,-1
 691 525 l 1,0,-1
EndSplineSet
Validated: 1
EndChar

StartChar: uni0A27
Encoding: 2599 2599 21
Width: 576
Flags: W
LayerCount: 2
Fore
SplineSet
392 213 m 1,0,-1
 392 525 l 1,1,-1
 168 525 l 1,2,3
 179 436 179 436 179 390 c 0,4,5
 179 319 179 319 138 249 c 1,6,7
 138 228 138 228 189 195 c 128,-1,8
 240 162 240 162 262 162 c 0,9,10
 330 162 330 162 392 213 c 1,0,-1
615 525 m 1,11,-1
 475 525 l 1,12,-1
 475 -1 l 1,13,-1
 390 -1 l 1,14,-1
 390 118 l 1,15,16
 341 80 341 80 266 80 c 0,17,18
 205 80 205 80 119 151 c 0,19,20
 37 217 37 217 37 248 c 1,21,22
 95 306 95 306 95 414 c 0,23,24
 95 469 95 469 83 525 c 1,25,-1
 -2 525 l 1,26,-1
 -2 604 l 1,27,-1
 615 604 l 1,28,-1
 615 525 l 1,11,-1
EndSplineSet
Validated: 1
EndChar

StartChar: uni0A28
Encoding: 2600 2600 22
Width: 648
Flags: W
LayerCount: 2
Fore
SplineSet
688 525 m 1,0,-1
 335 525 l 1,1,-1
 335 388 l 1,2,3
 404 385 404 385 476.5 320.5 c 128,-1,4
 549 256 549 256 549 166 c 0,5,6
 549 100 549 100 504 52.5 c 128,-1,7
 459 5 459 5 377 -2 c 1,8,-1
 377 74 l 1,9,10
 379 74 379 74 380 74 c 0,11,12
 405 74 405 74 429 89 c 0,13,14
 467 113 467 113 467 169 c 0,15,16
 467 255 467 255 384 296 c 0,17,18
 334 321 334 321 290.5 321 c 128,-1,19
 247 321 247 321 198 295 c 0,20,21
 117 253 117 253 117 166 c 0,22,23
 117 109 117 109 157 87 c 0,24,25
 179 74 179 74 207 74 c 1,26,-1
 207 -1 l 1,27,28
 146 0 146 0 96 39 c 0,29,30
 35 87 35 87 35 172 c 128,-1,31
 35 257 35 257 115 325 c 0,32,33
 183 383 183 383 249 388 c 1,34,-1
 249 525 l 1,35,-1
 0 525 l 1,36,-1
 0 604 l 1,37,-1
 688 604 l 1,38,-1
 688 525 l 1,0,-1
EndSplineSet
Validated: 1
EndChar

StartChar: uni0A2A
Encoding: 2602 2602 23
Width: 576
Flags: W
LayerCount: 2
Fore
SplineSet
615 525 m 1,0,-1
 475 525 l 1,1,-1
 475 -1 l 1,2,-1
 390 -1 l 1,3,-1
 390 118 l 1,4,5
 341 80 341 80 273 80 c 0,6,7
 205 80 205 80 121 147 c 0,8,9
 37 214 37 214 37 248 c 1,10,11
 95 306 95 306 95 414 c 0,12,13
 95 469 95 469 83 525 c 1,14,-1
 1 525 l 1,15,-1
 1 604 l 1,16,-1
 152 604 l 1,17,18
 181 491 181 491 181 384 c 0,19,20
 181 332 181 332 138 249 c 1,21,22
 138 227 138 227 186 194.5 c 128,-1,23
 234 162 234 162 262 162 c 0,24,25
 328 162 328 162 390 213 c 1,26,-1
 390 604 l 1,27,-1
 615 604 l 1,28,-1
 615 525 l 1,0,-1
EndSplineSet
Validated: 1
EndChar

StartChar: uni0A2B
Encoding: 2603 2603 24
Width: 555
Flags: W
LayerCount: 2
Fore
SplineSet
374 135 m 0,0,1
 374 197 374 197 302 197 c 0,2,3
 254 197 254 197 189 141 c 1,4,5
 244 79 244 79 296 79 c 0,6,7
 324 80 324 80 349 94 c 128,-1,8
 374 108 374 108 374 135 c 0,0,1
594 525 m 1,9,-1
 445 525 l 1,10,-1
 445 353 l 1,11,-1
 164 353 l 2,12,13
 110 353 110 353 110 292 c 0,14,15
 110 273 110 273 124 242 c 128,-1,16
 138 211 138 211 146 205 c 1,17,18
 156 219 156 219 206 249 c 128,-1,19
 256 279 256 279 295 279 c 0,20,21
 362 279 362 279 409 237 c 0,22,23
 456 194 456 194 456 138 c 128,-1,24
 456 82 456 82 409 40.5 c 128,-1,25
 362 -1 362 -1 297 -1 c 0,26,27
 200 -1 200 -1 112 102 c 128,-1,28
 24 205 24 205 24 316 c 0,29,30
 24 363 24 363 52 395 c 0,31,32
 89 438 89 438 172 438 c 2,33,-1
 360 438 l 1,34,-1
 360 525 l 1,35,-1
 -2 525 l 1,36,-1
 -2 604 l 1,37,-1
 594 604 l 1,38,-1
 594 525 l 1,9,-1
EndSplineSet
Validated: 1
EndChar

StartChar: uni0A2C
Encoding: 2604 2604 25
Width: 564
Flags: W
LayerCount: 2
Fore
SplineSet
381 178 m 1,0,-1
 381 289 l 1,1,-1
 269 289 l 2,2,3
 193 289 193 289 126 211 c 1,4,5
 208 141 208 141 269 141 c 0,6,7
 330 141 330 141 381 178 c 1,0,-1
381 374 m 1,8,-1
 381 525 l 1,9,-1
 134 525 l 1,10,11
 147 464 147 464 175 428 c 0,12,13
 217 374 217 374 244 374 c 2,14,-1
 381 374 l 1,8,-1
604 525 m 1,15,-1
 466 525 l 1,16,-1
 466 0 l 1,17,-1
 376 0 l 1,18,-1
 376 96 l 1,19,20
 322 72 322 72 249 72 c 0,21,22
 176 72 176 72 98 139 c 0,23,24
 76 158 76 158 24 217 c 1,25,26
 32 238 32 238 88 283.5 c 128,-1,27
 144 329 144 329 160 331 c 1,28,29
 121 354 121 354 89 409 c 0,30,31
 57 464 57 464 41 525 c 1,32,-1
 1 525 l 1,33,-1
 1 604 l 1,34,-1
 604 604 l 1,35,-1
 604 525 l 1,15,-1
EndSplineSet
Validated: 1
EndChar

StartChar: uni0A2D
Encoding: 2605 2605 26
Width: 604
Flags: W
AnchorPoint: "alt_blwm_position" 316 -48 basechar 0
LayerCount: 2
Fore
SplineSet
347 275 m 1,0,1
 289 341 289 341 219 341 c 0,2,3
 217 341 217 341 215 341 c 128,-1,4
 213 341 213 341 211 341 c 0,5,6
 182 341 182 341 162 326 c 0,7,8
 140 310 140 310 140 286 c 0,9,10
 140 258 140 258 168 246 c 0,11,12
 194 235 194 235 220 235 c 0,13,-1
 224 235 l 0,14,15
 287 235 287 235 347 275 c 1,0,1
643 525 m 1,16,-1
 504 525 l 1,17,18
 503 430 503 430 480.5 368 c 128,-1,19
 458 306 458 306 440 288 c 1,20,21
 474 238 474 238 474 164 c 128,-1,22
 474 90 474 90 413 42.5 c 128,-1,23
 352 -5 352 -5 257 -5 c 0,24,25
 198 -5 198 -5 117 37.5 c 128,-1,26
 36 80 36 80 36 98 c 0,27,28
 36 122 36 122 60 122 c 0,29,30
 64 122 64 122 135 93 c 128,-1,31
 206 64 206 64 259 64 c 128,-1,32
 312 64 312 64 346 92 c 128,-1,33
 380 120 380 120 380 174 c 0,34,35
 380 197 380 197 374 215 c 1,36,37
 305 164 305 164 222.5 164 c 128,-1,38
 140 164 140 164 97.5 205.5 c 128,-1,39
 55 247 55 247 55 293.5 c 128,-1,40
 55 340 55 340 98 377 c 128,-1,41
 141 414 141 414 230 414 c 128,-1,42
 319 414 319 414 385 353 c 1,43,44
 406 397 406 397 406 452 c 128,-1,45
 406 507 406 507 394 525 c 1,46,-1
 -2 525 l 1,47,-1
 -2 604 l 1,48,-1
 643 604 l 1,49,-1
 643 525 l 1,16,-1
EndSplineSet
Validated: 1
EndChar

StartChar: uni0A2E
Encoding: 2606 2606 27
Width: 566
Flags: W
LayerCount: 2
Fore
SplineSet
605 525 m 1,0,-1
 468 525 l 1,1,-1
 468 0 l 1,2,-1
 383 0 l 1,3,-1
 383 257 l 1,4,-1
 175 257 l 1,5,6
 175 207 175 207 158 137 c 0,7,8
 133 36 133 36 90 36 c 0,9,10
 28 36 28 36 28 106 c 0,11,12
 28 133 28 133 59 196 c 128,-1,13
 90 259 90 259 90 314 c 0,14,15
 90 399 90 399 28 525 c 1,16,-1
 -3 525 l 1,17,-1
 -3 604 l 1,18,-1
 84 604 l 1,19,20
 104 559 104 559 146 444 c 0,21,22
 172 363 172 363 173 336 c 1,23,-1
 383 336 l 1,24,-1
 383 604 l 1,25,-1
 605 604 l 1,26,-1
 605 525 l 1,0,-1
EndSplineSet
Validated: 1
EndChar

StartChar: uni0A2F
Encoding: 2607 2607 28
Width: 694
Flags: W
LayerCount: 2
Fore
SplineSet
511 355 m 1,0,-1
 511 525 l 1,1,-1
 164 525 l 1,2,3
 177 473 177 473 177 417 c 0,4,5
 177 326 177 326 132 265 c 1,6,7
 136 239 136 239 180 206 c 0,8,9
 224 173 224 173 252 172 c 0,10,11
 255 172 255 172 259 172 c 0,12,13
 282 172 282 172 300 178 c 1,14,-1
 300 355 l 1,15,-1
 511 355 l 1,0,-1
733 525 m 1,16,-1
 596 525 l 1,17,-1
 596 0 l 1,18,-1
 511 0 l 1,19,-1
 511 270 l 1,20,-1
 385 270 l 1,21,-1
 385 132 l 1,22,23
 336 79 336 79 277.5 79 c 128,-1,24
 219 79 219 79 160 119.5 c 128,-1,25
 101 160 101 160 62.5 211 c 128,-1,26
 24 262 24 262 24 282 c 0,27,28
 24 284 24 284 43 296 c 0,29,30
 92 328 92 328 92 414 c 0,31,32
 92 482 92 482 79 525 c 1,33,-1
 1 525 l 1,34,-1
 1 604 l 1,35,-1
 733 604 l 1,36,-1
 733 525 l 1,16,-1
EndSplineSet
Validated: 1
EndChar

StartChar: uni0A30
Encoding: 2608 2608 29
Width: 498
Flags: W
LayerCount: 2
Fore
SplineSet
316 133 m 2,0,-1
 316 311 l 1,1,-1
 186 311 l 2,2,3
 112 311 112 311 112 254 c 0,4,5
 112 178 112 178 160 130 c 0,6,7
 208 82 208 82 258 81 c 0,8,9
 276 81 276 81 296 96.5 c 128,-1,10
 316 112 316 112 316 133 c 2,0,-1
537 525 m 1,11,-1
 399 525 l 1,12,-1
 399 135 l 2,13,14
 399 75 399 75 362 37 c 0,15,16
 325 -1 325 -1 258 -1 c 0,17,18
 172 -1 172 -1 98 79 c 0,19,20
 24 159 24 159 24 265 c 0,21,22
 24 330 24 330 64 360 c 0,23,24
 104 390 104 390 163 391 c 2,25,-1
 315 391 l 1,26,-1
 315 525 l 1,27,-1
 -2 525 l 1,28,-1
 -2 604 l 1,29,-1
 537 604 l 1,30,-1
 537 525 l 1,11,-1
EndSplineSet
Validated: 1
EndChar

StartChar: uni0A32
Encoding: 2610 2610 30
Width: 688
Flags: W
LayerCount: 2
Fore
SplineSet
414 525 m 1,0,-1
 224 525 l 1,1,2
 228 479 228 479 252 411 c 128,-1,3
 276 343 276 343 307 343 c 0,4,5
 343 343 343 343 379 408 c 0,6,7
 414 471 414 471 414 522 c 0,8,9
 414 524 414 524 414 525 c 1,0,-1
730 525 m 1,10,-1
 504 525 l 1,11,12
 480 411 480 411 457 373 c 1,13,14
 605 322 605 322 605 199 c 0,15,16
 605 107 605 107 530 48 c 0,17,18
 468 -1 468 -1 404 -1 c 2,19,-1
 396 -1 l 1,20,-1
 396 78 l 1,21,-1
 403 78 l 2,22,23
 436 78 436 78 466 94 c 0,24,25
 523 123 523 123 523 194 c 0,26,27
 523 236 523 236 492 268.5 c 128,-1,28
 461 301 461 301 419 301 c 0,29,30
 399 301 399 301 359 249 c 128,-1,31
 319 197 319 197 307 197 c 128,-1,32
 295 197 295 197 280 228 c 128,-1,33
 265 259 265 259 257 270 c 0,34,35
 236 295 236 295 202 295 c 128,-1,36
 168 295 168 295 141.5 259.5 c 128,-1,37
 115 224 115 224 115 185 c 0,38,39
 115 124 115 124 175 96 c 0,40,41
 209 79 209 79 237 79 c 2,42,-1
 244 79 l 1,43,-1
 244 0 l 1,44,-1
 238 0 l 2,45,46
 186 0 186 0 120 43 c 0,47,48
 33 100 33 100 33 191 c 0,49,50
 33 324 33 324 180 373 c 1,51,52
 166 393 166 393 150 445 c 128,-1,53
 134 497 134 497 132 525 c 1,54,-1
 1 525 l 1,55,-1
 1 604 l 1,56,-1
 730 604 l 1,57,-1
 730 525 l 1,10,-1
EndSplineSet
Validated: 1
EndChar

StartChar: uni0A33
Encoding: 2611 2611 31
Width: 784
Flags: W
LayerCount: 2
Fore
SplineSet
94 94 m 128,-1,1
 110 78 110 78 110 55.5 c 128,-1,2
 110 33 110 33 94 16.5 c 128,-1,3
 78 0 78 0 55.5 0 c 128,-1,4
 33 0 33 0 16.5 16.5 c 128,-1,5
 0 33 0 33 0 55.5 c 128,-1,6
 0 78 0 78 16.5 94 c 128,-1,7
 33 110 33 110 55.5 110 c 128,-1,0
 78 110 78 110 94 94 c 128,-1,1
510 525 m 1,8,-1
 320 525 l 1,9,10
 324 479 324 479 348 411 c 128,-1,11
 372 343 372 343 403 343 c 0,12,13
 439 343 439 343 475 408 c 0,14,15
 510 471 510 471 510 522 c 0,16,17
 510 524 510 524 510 525 c 1,8,-1
826 525 m 1,18,-1
 600 525 l 1,19,20
 576 411 576 411 553 373 c 1,21,22
 701 322 701 322 701 199 c 0,23,24
 701 107 701 107 626 48 c 0,25,26
 564 -1 564 -1 500 -1 c 2,27,-1
 492 -1 l 1,28,-1
 492 78 l 1,29,-1
 499 78 l 2,30,31
 532 78 532 78 562 94 c 0,32,33
 619 123 619 123 619 194 c 0,34,35
 619 236 619 236 588 268.5 c 128,-1,36
 557 301 557 301 515 301 c 0,37,38
 495 301 495 301 455 249 c 128,-1,39
 415 197 415 197 403 197 c 128,-1,40
 391 197 391 197 376 228 c 128,-1,41
 361 259 361 259 353 270 c 0,42,43
 332 295 332 295 298 295 c 128,-1,44
 264 295 264 295 237.5 259.5 c 128,-1,45
 211 224 211 224 211 185 c 0,46,47
 211 126 211 126 271 96 c 0,48,49
 305 79 305 79 333 79 c 2,50,-1
 340 79 l 1,51,-1
 340 0 l 1,52,-1
 334 0 l 2,53,54
 282 0 282 0 216 43 c 0,55,56
 129 100 129 100 129 191 c 0,57,58
 129 324 129 324 276 373 c 1,59,60
 262 393 262 393 246 445 c 128,-1,61
 230 497 230 497 228 525 c 1,62,-1
 -2 525 l 1,63,-1
 -2 604 l 1,64,-1
 826 604 l 1,65,-1
 826 525 l 1,18,-1
EndSplineSet
Validated: 1
LCarets2: 1 0
Ligature2: "'nukt' Nukta Forms in Gurmukhi lookup 4 subtable" uni0A32 uni0A3C
EndChar

StartChar: uni0A35
Encoding: 2613 2613 32
Width: 670
Flags: W
LayerCount: 2
Fore
SplineSet
710 525 m 1,0,-1
 571 525 l 1,1,-1
 571 347 l 1,2,-1
 211 347 l 2,3,4
 127 347 127 347 127 293 c 0,5,6
 127 269 127 269 151 264 c 0,7,8
 160 262 160 262 210 262 c 2,9,-1
 559 262 l 1,10,-1
 559 177 l 1,11,-1
 296 177 l 1,12,13
 312 140 312 140 360.5 108 c 128,-1,14
 409 76 409 76 469.5 76 c 128,-1,15
 530 76 530 76 554 96 c 1,16,-1
 521 4 l 1,17,18
 473 0 473 0 445 0 c 0,19,20
 303 0 303 0 190 174 c 1,21,22
 185 174 185 174 181 174 c 0,23,24
 140 174 140 174 96 197 c 0,25,26
 32 231 32 231 32 295 c 0,27,28
 32 432 32 432 232 432 c 2,29,-1
 486 432 l 1,30,-1
 486 525 l 1,31,-1
 -2 525 l 1,32,-1
 -2 604 l 1,33,-1
 710 604 l 1,34,-1
 710 525 l 1,0,-1
EndSplineSet
Validated: 1
EndChar

StartChar: uni0A36
Encoding: 2614 2614 33
Width: 564
Flags: W
LayerCount: 2
Fore
SplineSet
117 525 m 1,0,1
 160 390 160 390 173 336 c 1,2,-1
 383 336 l 1,3,-1
 383 525 l 1,4,-1
 117 525 l 1,0,1
300 112 m 128,-1,6
 316 96 316 96 316 73.5 c 128,-1,7
 316 51 316 51 300 34.5 c 128,-1,8
 284 18 284 18 261.5 18 c 128,-1,9
 239 18 239 18 222.5 34.5 c 128,-1,10
 206 51 206 51 206 73.5 c 128,-1,11
 206 96 206 96 222.5 112 c 128,-1,12
 239 128 239 128 261.5 128 c 128,-1,5
 284 128 284 128 300 112 c 128,-1,6
603 525 m 1,13,-1
 468 525 l 1,14,-1
 468 0 l 1,15,-1
 383 0 l 1,16,-1
 383 257 l 1,17,-1
 175 257 l 1,18,19
 175 207 175 207 158 137 c 0,20,21
 133 36 133 36 90 36 c 0,22,23
 28 36 28 36 28 106 c 0,24,25
 28 133 28 133 59 196 c 128,-1,26
 90 259 90 259 90 314 c 0,27,28
 90 392 90 392 24 525 c 1,29,-1
 -5 525 l 1,30,-1
 -5 604 l 1,31,-1
 603 604 l 1,32,-1
 603 525 l 1,13,-1
EndSplineSet
Validated: 1
Ligature2: "'nukt' Nukta Forms in Gurmukhi lookup 4 subtable" uni0A38 uni0A3C
EndChar

StartChar: uni0A38
Encoding: 2616 2616 34
Width: 567
Flags: W
LayerCount: 2
Fore
SplineSet
125 525 m 1,0,1
 168 390 168 390 181 336 c 1,2,-1
 383 336 l 1,3,-1
 383 525 l 1,4,-1
 125 525 l 1,0,1
606 525 m 1,5,-1
 468 525 l 1,6,-1
 468 0 l 1,7,-1
 383 0 l 1,8,-1
 383 257 l 1,9,-1
 183 257 l 1,10,11
 183 214 183 214 160 137 c 0,12,13
 129 36 129 36 86 36 c 0,14,15
 24 36 24 36 24 106 c 0,16,17
 24 133 24 133 61 196 c 128,-1,18
 98 259 98 259 98 314 c 0,19,20
 98 392 98 392 32 525 c 1,21,-1
 -3 525 l 1,22,-1
 -3 604 l 1,23,-1
 606 604 l 1,24,-1
 606 525 l 1,5,-1
EndSplineSet
Validated: 1
EndChar

StartChar: uni0A39
Encoding: 2617 2617 35
Width: 556
Flags: W
LayerCount: 2
Fore
SplineSet
595 525 m 1,0,-1
 447 525 l 1,1,-1
 447 132 l 2,2,3
 447 74 447 74 411.5 35 c 128,-1,4
 376 -4 376 -4 314 -4 c 0,5,6
 191 -4 191 -4 104 96 c 0,7,8
 24 187 24 187 24 291 c 0,9,10
 24 359 24 359 109 359 c 2,11,-1
 207 359 l 1,12,-1
 207 277 l 1,13,-1
 157 277 l 2,14,15
 118 277 118 277 118 251 c 0,16,17
 118 190 118 190 175 134 c 0,18,19
 232 78 232 78 312 78 c 0,20,21
 330 78 330 78 346 95.5 c 128,-1,22
 362 113 362 113 362 134 c 2,23,-1
 362 525 l 1,24,-1
 -5 525 l 1,25,-1
 -5 604 l 1,26,-1
 595 604 l 1,27,-1
 595 525 l 1,0,-1
EndSplineSet
Validated: 1
EndChar

StartChar: uni0A3E
Encoding: 2622 2622 36
Width: 304
Flags: W
LayerCount: 2
Fore
SplineSet
343 525 m 1,0,-1
 171 525 l 1,1,-1
 171 241 l 1,2,-1
 86 241 l 1,3,-1
 86 525 l 1,4,-1
 -4 525 l 1,5,-1
 -4 604 l 1,6,-1
 343 604 l 1,7,-1
 343 525 l 1,0,-1
EndSplineSet
Validated: 1
EndChar

StartChar: uni0A3F
Encoding: 2623 2623 37
Width: 291
Flags: W
LayerCount: 2
Fore
SplineSet
422 749 m 1,0,-1
 352 709 l 1,1,2
 323 789 323 789 248 789 c 0,3,4
 170 789 170 789 170 665 c 2,5,-1
 170 604 l 1,6,-1
 330 604 l 1,7,-1
 330 525 l 1,8,-1
 171 525 l 1,9,-1
 171 -1 l 1,10,-1
 86 -1 l 1,11,-1
 86 525 l 1,12,-1
 0 525 l 1,13,-1
 0 604 l 1,14,-1
 85 604 l 1,15,-1
 85 687 l 2,16,17
 85 763 85 763 127 816 c 0,18,19
 169 869 169 869 242 869 c 0,20,21
 353 869 353 869 422 749 c 1,0,-1
EndSplineSet
Validated: 1
EndChar

StartChar: uni0A40
Encoding: 2624 2624 38
Width: 291
Flags: W
LayerCount: 2
Fore
SplineSet
331 525 m 1,0,-1
 170 525 l 1,1,-1
 170 -1 l 1,2,-1
 85 -1 l 1,3,-1
 85 525 l 1,4,-1
 -3 525 l 1,5,-1
 -3 604 l 1,6,-1
 85 604 l 1,7,-1
 85 677 l 2,8,9
 85 783 85 783 -4 783 c 0,10,11
 -39 783 -39 783 -66.5 760.5 c 128,-1,12
 -94 738 -94 738 -102 707 c 1,13,-1
 -178 749 l 1,14,15
 -156 803 -156 803 -110 836 c 128,-1,16
 -64 869 -64 869 0 869 c 0,17,18
 64 869 64 869 117 819.5 c 128,-1,19
 170 770 170 770 170 699 c 2,20,-1
 170 604 l 1,21,-1
 331 604 l 1,22,-1
 331 525 l 1,0,-1
EndSplineSet
Validated: 1
EndChar

StartChar: uni0A41
Encoding: 2625 2625 39
Width: 46
Flags: W
LayerCount: 2
Fore
SplineSet
62 525 m 1
 -17 525 l 1
 -17 604 l 1
 62 604 l 1
 62 525 l 1
EndSplineSet
Refer: 206 -1 N 1 0 0 1 0 0 2
Validated: 1
EndChar

StartChar: uni0A42
Encoding: 2626 2626 40
Width: 46
Flags: W
LayerCount: 2
Fore
SplineSet
62 525 m 1
 -17 525 l 1
 -17 604 l 1
 62 604 l 1
 62 525 l 1
EndSplineSet
Refer: 207 -1 N 1 0 0 1 0 0 2
Validated: 1
EndChar

StartChar: uni0A48
Encoding: 2632 2632 41
Width: 46
Flags: W
LayerCount: 2
Fore
SplineSet
-361 830 m 1,0,-1
 -404 828 l 1,1,2
 -443 828 -443 828 -459 832 c 0,3,4
 -488 839 -488 839 -488 863 c 0,5,6
 -488 906 -488 906 -409 906 c 0,7,8
 -368 906 -368 906 -314.5 884 c 128,-1,9
 -261 862 -261 862 -222 826 c 0,10,11
 -171 780 -171 780 -107 650 c 1,12,-1
 -146 650 l 1,13,14
 -161 665 -161 665 -212 694.5 c 128,-1,15
 -263 724 -263 724 -303.5 724 c 128,-1,16
 -344 724 -344 724 -378.5 710 c 128,-1,17
 -413 696 -413 696 -435 696 c 0,18,19
 -485 696 -485 696 -485 728 c 0,20,21
 -485 749 -485 749 -450 765 c 128,-1,22
 -415 781 -415 781 -369.5 781 c 128,-1,23
 -324 781 -324 781 -276 764 c 0,24,25
 -274 763 -274 763 -190 725 c 1,26,27
 -184 730 -184 730 -178 730 c 1,28,29
 -198 754 -198 754 -209 765 c 0,30,31
 -274 830 -274 830 -361 830 c 1,0,-1
62 525 m 1,32,-1
 -17 525 l 1,33,-1
 -17 604 l 1,34,-1
 62 604 l 1,35,-1
 62 525 l 1,32,-1
EndSplineSet
Validated: 1
EndChar

StartChar: uni0964
Encoding: 2404 2404 42
Width: 350
Flags: W
LayerCount: 2
Fore
SplineSet
205 0 m 1,0,-1
 134 0 l 1,1,-1
 134 624 l 1,2,-1
 205 624 l 1,3,-1
 205 0 l 1,0,-1
EndSplineSet
Validated: 1
EndChar

StartChar: uni0965
Encoding: 2405 2405 43
Width: 500
Flags: W
LayerCount: 2
Fore
SplineSet
199 0 m 1,0,-1
 128 0 l 1,1,-1
 128 624 l 1,2,-1
 199 624 l 1,3,-1
 199 0 l 1,0,-1
387 0 m 1,4,-1
 316 0 l 1,5,-1
 316 624 l 1,6,-1
 387 624 l 1,7,-1
 387 0 l 1,4,-1
EndSplineSet
Validated: 1
EndChar

StartChar: uni0A66
Encoding: 2662 2662 44
Width: 560
Flags: W
LayerCount: 2
Fore
SplineSet
387 202.5 m 128,-1,1
 430 246 430 246 430 307.5 c 128,-1,2
 430 369 430 369 386.5 412 c 128,-1,3
 343 455 343 455 281.5 455 c 128,-1,4
 220 455 220 455 177 411.5 c 128,-1,5
 134 368 134 368 134 306.5 c 128,-1,6
 134 245 134 245 177.5 202 c 128,-1,7
 221 159 221 159 282.5 159 c 128,-1,0
 344 159 344 159 387 202.5 c 128,-1,1
443.5 469 m 128,-1,9
 511 402 511 402 511 307.5 c 128,-1,10
 511 213 511 213 444 145.5 c 128,-1,11
 377 78 377 78 282.5 78 c 128,-1,12
 188 78 188 78 120.5 145 c 128,-1,13
 53 212 53 212 53 306.5 c 128,-1,14
 53 401 53 401 120 468.5 c 128,-1,15
 187 536 187 536 281.5 536 c 128,-1,8
 376 536 376 536 443.5 469 c 128,-1,9
EndSplineSet
Validated: 1
EndChar

StartChar: uni0A67
Encoding: 2663 2663 45
Width: 600
Flags: W
LayerCount: 2
Fore
SplineSet
408 484 m 0,0,1
 408 520 408 520 361 540 c 0,2,3
 314 560 314 560 269 560 c 0,4,5
 224 560 224 560 192 540 c 0,6,7
 160 520 160 520 159 488 c 0,8,9
 159 456 159 456 193 433 c 0,10,11
 227 410 227 410 267 410 c 0,12,13
 408 410 408 410 408 484 c 0,0,1
540 19 m 0,14,15
 540 -9 540 -9 498 -9 c 0,16,17
 456 -9 456 -9 415.5 44 c 128,-1,18
 375 97 375 97 375 156 c 0,19,20
 375 249 375 249 398 364 c 1,21,22
 356 328 356 328 276 328 c 0,23,24
 196 328 196 328 136 373 c 0,25,26
 76 418 76 418 76 488 c 0,27,28
 76 558 76 558 134 602 c 0,29,30
 192 648 192 648 259 648 c 0,31,32
 362 648 362 648 428 596 c 128,-1,33
 494 544 494 544 494 468 c 0,34,35
 494 414 494 414 475.5 325 c 128,-1,36
 457 236 457 236 457 166 c 0,37,38
 457 96 457 96 479 69 c 0,39,40
 488 60 488 60 514 44 c 0,41,42
 540 28 540 28 540 19 c 0,14,15
EndSplineSet
Validated: 1
EndChar

StartChar: uni0A68
Encoding: 2664 2664 46
Width: 600
Flags: W
LayerCount: 2
Fore
SplineSet
540 405 m 0,0,1
 540 320 540 320 463 259 c 0,2,3
 413 219 413 219 363 206 c 1,4,5
 400 186 400 186 462 118 c 128,-1,6
 524 50 524 50 525 11 c 0,7,8
 525 9 525 9 497 -3 c 128,-1,9
 469 -15 469 -15 466 -15 c 0,10,11
 444 15 444 15 392 88 c 0,12,13
 325 184 325 184 293 184 c 0,14,15
 276 184 276 184 245 180 c 128,-1,16
 214 176 214 176 178 176 c 128,-1,17
 142 176 142 176 108 192 c 0,18,19
 76 208 76 208 76 236 c 0,20,21
 76 291 76 291 168 291 c 0,22,23
 218 291 218 291 279 257 c 1,24,25
 280 257 280 257 281 257 c 0,26,27
 331 257 331 257 392 302 c 0,28,29
 454 348 454 348 454 402 c 0,30,31
 454 402 454 402 454 403 c 0,32,33
 454 458 454 458 406.5 503.5 c 128,-1,34
 359 549 359 549 301 549 c 128,-1,35
 243 549 243 549 184 523.5 c 128,-1,36
 125 498 125 498 104 498 c 128,-1,37
 83 498 83 498 75.5 507 c 128,-1,38
 68 516 68 516 68 540 c 0,39,40
 68 569 68 569 146 601 c 128,-1,41
 224 633 224 633 287 633 c 0,42,43
 288 633 288 633 290 633 c 0,44,45
 385 633 385 633 462 570 c 0,46,47
 540 506 540 506 540 405 c 0,0,1
EndSplineSet
Validated: 1
EndChar

StartChar: uni0A69
Encoding: 2665 2665 47
Width: 600
Flags: W
LayerCount: 2
Fore
SplineSet
292 351 m 1,0,-1
 161 341 l 1,1,2
 77 341 77 341 77 384 c 0,3,4
 77 429 77 429 164 429 c 0,5,6
 184 429 184 429 222 422.5 c 128,-1,7
 260 416 260 416 318.5 416 c 128,-1,8
 377 416 377 416 392 418 c 0,9,10
 449 428 449 428 449 471 c 0,11,12
 449 510 449 510 385 534 c 0,13,14
 332 554 332 554 286 554 c 128,-1,15
 240 554 240 554 197.5 546.5 c 128,-1,16
 155 539 155 539 128 539 c 0,17,18
 80 539 80 539 80 582 c 0,19,20
 80 633 80 633 271 633 c 0,21,22
 371 633 371 633 452.5 587.5 c 128,-1,23
 534 542 534 542 534 474.5 c 128,-1,24
 534 407 534 407 455 362 c 1,25,26
 520 303 520 303 520 234 c 0,27,28
 520 186 520 186 469 138 c 128,-1,29
 418 90 418 90 352 90 c 1,30,31
 357 76 357 76 376 60 c 0,32,33
 406 34 406 34 447 34 c 1,34,-1
 502 37 l 1,35,36
 524 37 524 37 524 14 c 128,-1,37
 524 -9 524 -9 496 -14 c 0,38,39
 485 -16 485 -16 444 -16 c 0,40,41
 358 -16 358 -16 240 80 c 1,42,43
 217 78 217 78 196 78 c 0,44,45
 55 78 55 78 55 141 c 0,46,47
 55 168 55 168 75 182.5 c 128,-1,48
 95 197 95 197 116 197 c 128,-1,49
 137 197 137 197 196.5 174.5 c 128,-1,50
 256 152 256 152 301.5 152 c 128,-1,51
 347 152 347 152 391 175 c 0,52,53
 444 201 444 201 444 248 c 128,-1,54
 444 295 444 295 397 323 c 128,-1,55
 350 351 350 351 292 351 c 1,0,-1
EndSplineSet
Validated: 1
EndChar

StartChar: uni0A6A
Encoding: 2666 2666 48
Width: 600
Flags: W
LayerCount: 2
Fore
SplineSet
453 160 m 0,0,1
 453 270 453 270 300 270 c 0,2,3
 237 270 237 270 192.5 242 c 128,-1,4
 148 214 148 214 148 161 c 0,5,6
 148 66 148 66 301 66 c 0,7,8
 361 66 361 66 401 85 c 0,9,10
 453 109 453 109 453 160 c 0,0,1
490 557 m 0,11,12
 532 509 532 509 532 446 c 128,-1,13
 532 383 532 383 493 347 c 0,14,15
 481 335 481 335 432 310 c 1,16,17
 462 292 462 292 494 252 c 128,-1,18
 526 212 526 212 526 161 c 0,19,20
 526 69 526 69 446 27 c 0,21,22
 387 -4 387 -4 294.5 -4 c 128,-1,23
 202 -4 202 -4 141 37 c 0,24,25
 71 83 71 83 71 168 c 0,26,27
 71 268 71 268 174 301 c 1,28,29
 71 347 71 347 71 462 c 0,30,31
 71 515 71 515 113 561 c 0,32,33
 165 618 165 618 251 618 c 1,34,-1
 251 547 l 1,35,36
 146 547 146 547 146 450 c 0,37,38
 146 399 146 399 191 370.5 c 128,-1,39
 236 342 236 342 300 342 c 128,-1,40
 364 342 364 342 415 371 c 128,-1,41
 466 400 466 400 466 448 c 0,42,43
 466 547 466 547 349 547 c 1,44,-1
 349 617 l 1,45,46
 438 617 438 617 490 557 c 0,11,12
EndSplineSet
Validated: 1
EndChar

StartChar: uni0A6B
Encoding: 2667 2667 49
Width: 600
Flags: W
LayerCount: 2
Fore
SplineSet
515 -1 m 1,0,-1
 433 -1 l 1,1,-1
 433 175 l 1,2,3
 372 139 372 139 310 139 c 0,4,5
 197 139 197 139 53 291 c 1,6,7
 103 354 103 354 103 434 c 0,8,9
 103 486 103 486 60 580 c 1,10,-1
 118 625 l 1,11,12
 180 542 180 542 180 434 c 0,13,14
 180 365 180 365 148 297 c 1,15,16
 228 222 228 222 317 222 c 0,17,18
 373 222 373 222 433 259 c 1,19,-1
 433 623 l 1,20,-1
 515 623 l 1,21,-1
 515 -1 l 1,0,-1
EndSplineSet
Validated: 1
EndChar

StartChar: uni0A6C
Encoding: 2668 2668 50
Width: 600
Flags: W
LayerCount: 2
Fore
SplineSet
311 278 m 1,0,-1
 442 288 l 1,1,2
 526 288 526 288 526 245 c 0,3,4
 526 199 526 199 439 199 c 0,5,6
 419 199 419 199 380.5 206 c 128,-1,7
 342 213 342 213 284 213 c 128,-1,8
 226 213 226 213 211 211 c 0,9,10
 154 201 154 201 154 157 c 0,11,12
 154 119 154 119 212 97 c 128,-1,13
 270 75 270 75 316 75 c 128,-1,14
 362 75 362 75 405 82.5 c 128,-1,15
 448 90 448 90 471 90 c 128,-1,16
 494 90 494 90 508.5 78.5 c 128,-1,17
 523 67 523 67 523 47 c 0,18,19
 523 -4 523 -4 332 -4 c 0,20,21
 231 -4 231 -4 150 41.5 c 128,-1,22
 69 87 69 87 69 155.5 c 128,-1,23
 69 224 69 224 148 267 c 1,24,25
 83 326 83 326 83 395 c 0,26,27
 83 445 83 445 139 490 c 0,28,29
 202 539 202 539 288 539 c 1,30,31
 280 571 280 571 280 606.5 c 128,-1,32
 280 642 280 642 306 675 c 128,-1,33
 332 708 332 708 350 718 c 0,34,35
 416 754 416 754 450 754 c 1,36,-1
 501 703 l 1,37,38
 501 695 501 695 458 680 c 128,-1,39
 415 665 415 665 394 652 c 0,40,41
 357 628 357 628 357 593 c 0,42,43
 357 573 357 573 366 563 c 128,-1,44
 375 553 375 553 376 549 c 0,45,46
 447 537 447 537 485 512 c 128,-1,47
 523 487 523 487 523 467 c 0,48,49
 523 426 523 426 475 426 c 0,50,51
 449 426 449 426 399 449.5 c 128,-1,52
 349 473 349 473 303 473 c 128,-1,53
 257 473 257 473 212 449 c 128,-1,54
 167 425 167 425 167 379 c 128,-1,55
 167 333 167 333 210.5 305.5 c 128,-1,56
 254 278 254 278 311 278 c 1,0,-1
EndSplineSet
Validated: 1
EndChar

StartChar: uni0A6D
Encoding: 2669 2669 51
Width: 600
Flags: W
LayerCount: 2
Fore
SplineSet
546 403 m 0,0,1
 546 241 546 241 421 115 c 0,2,3
 310 3 310 3 166 3 c 0,4,5
 118 3 118 3 59 10 c 1,6,-1
 59 89 l 1,7,8
 112 84 112 84 164 84 c 0,9,10
 278 84 278 84 370 184 c 0,11,12
 462 284 462 284 462 390 c 0,13,14
 462 465 462 465 435 497 c 128,-1,15
 408 529 408 529 349 529 c 0,16,17
 290 529 290 529 269 474 c 0,18,19
 257 444 257 444 256 379 c 1,20,-1
 167 379 l 1,21,22
 167 620 167 620 353 620 c 0,23,24
 440 620 440 620 493 557 c 128,-1,25
 546 494 546 494 546 403 c 0,0,1
EndSplineSet
Validated: 1
EndChar

StartChar: uni0A6E
Encoding: 2670 2670 52
Width: 600
Flags: W
LayerCount: 2
Fore
SplineSet
549 431 m 1,0,-1
 241 431 l 1,1,-1
 241 264 l 2,2,3
 241 159 241 159 321 103 c 0,4,5
 377 64 377 64 441 63 c 0,6,7
 505 62 505 62 546 62 c 1,8,-1
 546 -17 l 1,9,-1
 442 -17 l 2,10,11
 334 -17 334 -17 256 41 c 0,12,13
 210 75 210 75 180 128 c 0,14,15
 150 181 150 181 150 239 c 2,16,-1
 150 434 l 1,17,-1
 57 434 l 1,18,-1
 57 486 l 2,19,20
 57 533 57 533 80 575 c 0,21,22
 110 629 110 629 185 629 c 0,23,24
 241 629 241 629 241 601 c 2,25,-1
 241 522 l 1,26,-1
 549 522 l 1,27,-1
 549 431 l 1,0,-1
EndSplineSet
Validated: 1
EndChar

StartChar: uni0A6F
Encoding: 2671 2671 53
Width: 600
Flags: W
LayerCount: 2
Fore
SplineSet
520 403 m 1,0,-1
 233 403 l 1,1,-1
 233 260 l 2,2,3
 233 148 233 148 310 95 c 0,4,5
 362 58 362 58 428 58 c 2,6,-1
 509 58 l 1,7,-1
 509 -21 l 1,8,-1
 434 -21 l 2,9,10
 304 -21 304 -21 222 65 c 0,11,12
 151 140 151 140 151 235 c 2,13,-1
 151 415 l 1,14,-1
 59 415 l 1,15,16
 60 501 60 501 86 535 c 0,17,18
 112 569 112 569 197 569 c 0,19,20
 216 569 216 569 233 567 c 1,21,-1
 233 469 l 1,22,-1
 392 469 l 1,23,24
 367 483 367 483 347.5 524 c 128,-1,25
 328 565 328 565 328 604 c 0,26,27
 328 664 328 664 372 717 c 0,28,29
 416 770 416 770 492 770 c 2,30,-1
 507 770 l 1,31,-1
 507 703 l 1,32,-1
 489 703 l 2,33,34
 450 703 450 703 423 671.5 c 128,-1,35
 396 640 396 640 396 598 c 0,36,37
 396 556 396 556 426 517 c 0,38,39
 456 478 456 478 520 461 c 1,40,-1
 520 403 l 1,0,-1
EndSplineSet
Validated: 1
EndChar

StartChar: uni0A4C
Encoding: 2636 2636 54
Width: 46
Flags: W
LayerCount: 2
Fore
SplineSet
-198 870 m 0,0,1
 -147 870 -147 870 -116.5 833.5 c 128,-1,2
 -86 797 -86 797 -86 760 c 128,-1,3
 -86 723 -86 723 -107.5 695 c 128,-1,4
 -129 667 -129 667 -152 667 c 0,5,6
 -164 667 -164 667 -164 676 c 0,7,8
 -164 680 -164 680 -153 703.5 c 128,-1,9
 -142 727 -142 727 -142 745.5 c 128,-1,10
 -142 764 -142 764 -157.5 781 c 128,-1,11
 -173 798 -173 798 -199 798 c 0,12,13
 -256 798 -256 798 -256 732 c 0,14,15
 -256 721 -256 721 -246 700.5 c 128,-1,16
 -236 680 -236 680 -236 674.5 c 128,-1,17
 -236 669 -236 669 -244 669 c 0,18,19
 -272 669 -272 669 -291.5 696 c 128,-1,20
 -311 723 -311 723 -311 754 c 128,-1,21
 -311 785 -311 785 -305 793 c 1,22,23
 -329 791 -329 791 -348 791 c 0,24,25
 -391 791 -391 791 -440.5 818 c 128,-1,26
 -490 845 -490 845 -490 862 c 0,27,28
 -490 887 -490 887 -466 887 c 0,29,30
 -456 887 -456 887 -421 865 c 128,-1,31
 -386 843 -386 843 -346.5 843 c 128,-1,32
 -307 843 -307 843 -266.5 856.5 c 128,-1,33
 -226 870 -226 870 -198 870 c 0,0,1
62 525 m 1,34,-1
 -17 525 l 1,35,-1
 -17 604 l 1,36,-1
 62 604 l 1,37,-1
 62 525 l 1,34,-1
EndSplineSet
Validated: 1
EndChar

StartChar: uni0A47
Encoding: 2631 2631 55
Width: 46
Flags: W
LayerCount: 2
Fore
SplineSet
-120 657 m 1,0,-1
 -149 657 l 1,1,2
 -176 713 -176 713 -216 743 c 0,3,4
 -274 785 -274 785 -348 785 c 2,5,-1
 -368 785 l 1,6,7
 -379 784 -379 784 -400 784 c 0,8,9
 -466 784 -466 784 -466 819 c 0,10,11
 -466 862 -466 862 -387 862 c 0,12,13
 -347 862 -347 862 -292.5 838 c 128,-1,14
 -238 814 -238 814 -192.5 773 c 128,-1,15
 -147 732 -147 732 -120 657 c 1,0,-1
62 525 m 1,16,-1
 -17 525 l 1,17,-1
 -17 604 l 1,18,-1
 62 604 l 1,19,-1
 62 525 l 1,16,-1
EndSplineSet
Validated: 1
EndChar

StartChar: uni0A71
Encoding: 2673 2673 56
Width: 46
Flags: W
LayerCount: 2
Fore
SplineSet
62 525 m 1,0,-1
 -17 525 l 1,1,-1
 -17 604 l 1,2,-1
 62 604 l 1,3,-1
 62 525 l 1,0,-1
-6 884 m 0,4,5
 15 884 15 884 15 844 c 0,6,7
 15 786 15 786 -11 742 c 0,8,9
 -56 667 -56 667 -153 667 c 0,10,11
 -199 667 -199 667 -239.5 690.5 c 128,-1,12
 -280 714 -280 714 -302 757 c 0,13,14
 -324 800 -324 800 -324 842 c 0,15,16
 -324 884 -324 884 -304 884 c 0,17,18
 -294 884 -294 884 -276 840 c 0,19,20
 -258 796 -258 796 -257 793 c 0,21,22
 -239 762 -239 762 -215 753 c 0,23,24
 -191 744 -191 744 -152 744 c 0,25,26
 -97 744 -97 744 -56 791 c 0,27,28
 -47 800 -47 800 -33 842 c 0,29,30
 -19 884 -19 884 -6 884 c 0,4,5
EndSplineSet
Validated: 1
EndChar

StartChar: uni0A73
Encoding: 2675 2675 57
Width: 700
Flags: W
LayerCount: 2
Fore
SplineSet
460 148 m 0,0,1
 460 197 460 197 429.5 233 c 128,-1,2
 399 269 399 269 351 269 c 2,3,-1
 152 269 l 1,4,5
 178 200 178 200 222 144 c 0,6,7
 286 64 286 64 357 64 c 0,8,9
 397 64 397 64 428.5 91.5 c 128,-1,10
 460 119 460 119 460 148 c 0,0,1
108 525 m 1,11,12
 112 391 112 391 134 342 c 1,13,-1
 401 342 l 2,14,15
 446 342 446 342 490 404 c 0,16,17
 528 458 528 458 529 509 c 0,18,19
 529 517 529 517 528 525 c 1,20,-1
 108 525 l 1,11,12
521 604 m 1,21,22
 518 675 518 675 472 741 c 0,23,24
 415 821 415 821 331 821 c 0,25,26
 221 821 221 821 160 732 c 0,27,28
 118 671 118 671 113 604 c 1,29,-1
 521 604 l 1,21,22
739 525 m 1,30,-1
 616 525 l 1,31,32
 610 420 610 420 553 349 c 0,33,34
 511 297 511 297 479 293 c 1,35,36
 536 243 536 243 536 152 c 0,37,38
 536 92 536 92 485 41 c 128,-1,39
 434 -10 434 -10 359 -10 c 0,40,41
 211 -10 211 -10 113 166 c 0,42,43
 33 307 33 307 25 459 c 0,44,45
 24 482 24 482 22 525 c 1,46,-1
 -40 525 l 1,47,-1
 -40 604 l 1,48,-1
 24 604 l 1,49,50
 42 709 42 709 91 778 c 0,51,52
 175 896 175 896 336 896 c 0,53,54
 451 896 451 896 532 792 c 0,55,56
 603 703 603 703 607 604 c 1,57,-1
 739 604 l 1,58,-1
 739 525 l 1,30,-1
EndSplineSet
Validated: 1
EndChar

StartChar: uni0A72
Encoding: 2674 2674 58
Width: 555
Flags: W
LayerCount: 2
Fore
SplineSet
373 363 m 1,0,-1
 373 525 l 1,1,-1
 105 525 l 1,2,3
 109 474 109 474 140 428 c 0,4,5
 156 404 156 404 190 383.5 c 128,-1,6
 224 363 224 363 258 363 c 2,7,-1
 373 363 l 1,0,-1
594 525 m 1,8,-1
 458 525 l 1,9,-1
 458 278 l 1,10,-1
 248 278 l 2,11,12
 226 278 226 278 182 243.5 c 128,-1,13
 138 209 138 209 138 190 c 0,14,15
 138 160 138 160 192.5 117.5 c 128,-1,16
 247 75 247 75 301 75 c 0,17,18
 361 75 361 75 424 122 c 0,19,20
 446 139 446 139 448 139 c 0,21,22
 474 139 474 139 474 118.5 c 128,-1,23
 474 98 474 98 402.5 50.5 c 128,-1,24
 331 3 331 3 275.5 3 c 128,-1,25
 220 3 220 3 162 41.5 c 128,-1,26
 104 80 104 80 64 127.5 c 128,-1,27
 24 175 24 175 24 193.5 c 128,-1,28
 24 212 24 212 77.5 262 c 128,-1,29
 131 312 131 312 154 321 c 1,30,31
 134 335 134 335 111 354.5 c 128,-1,32
 88 374 88 374 62.5 416 c 128,-1,33
 37 458 37 458 27 525 c 1,34,-1
 -6 525 l 1,35,-1
 -6 604 l 1,36,-1
 594 604 l 1,37,-1
 594 525 l 1,8,-1
EndSplineSet
Validated: 1
EndChar

StartChar: uni0A74
Encoding: 2676 2676 59
Width: 1191
Flags: W
LayerCount: 2
Fore
SplineSet
288 420 m 0,0,1
 331 431 331 431 331 468.5 c 128,-1,2
 331 506 331 506 284 525.5 c 128,-1,3
 237 545 237 545 192 545 c 128,-1,4
 147 545 147 545 114.5 525.5 c 128,-1,5
 82 506 82 506 82 476 c 0,6,7
 82 415 82 415 190 415 c 0,8,9
 265 415 265 415 288 420 c 0,0,1
1003 148 m 0,10,11
 1003 269 1003 269 901 269 c 2,12,-1
 702 269 l 1,13,14
 727 201 727 201 773 144 c 0,15,16
 838 64 838 64 909 64 c 0,17,18
 951 64 951 64 977 92 c 128,-1,19
 1003 120 1003 120 1003 148 c 0,10,11
658 525 m 1,20,21
 662 391 662 391 684 342 c 1,22,-1
 951 342 l 2,23,24
 996 342 996 342 1040 404 c 0,25,26
 1078 458 1078 458 1079 509 c 0,27,28
 1079 517 1079 517 1078 525 c 1,29,-1
 658 525 l 1,20,21
497 0 m 1,30,-1
 438 -2 l 1,31,32
 387 -2 387 -2 357 25 c 0,33,34
 298 80 298 80 298 167 c 128,-1,35
 298 254 298 254 321 369 c 1,36,37
 279 333 279 333 197.5 333 c 128,-1,38
 116 333 116 333 57.5 369 c 128,-1,39
 -1 405 -1 405 -1 473.5 c 128,-1,40
 -1 542 -1 542 55 587.5 c 128,-1,41
 111 633 111 633 192 633 c 128,-1,42
 273 633 273 633 345 582.5 c 128,-1,43
 417 532 417 532 417 453 c 0,44,45
 417 399 417 399 398.5 320 c 128,-1,46
 380 241 380 241 380 161 c 0,47,48
 380 107 380 107 402.5 85.5 c 128,-1,49
 425 64 425 64 450.5 64 c 128,-1,50
 476 64 476 64 497 72 c 1,51,-1
 497 0 l 1,30,-1
2052 925 m 1,52,-1
 1972 925 l 1,53,54
 1955 986 1955 986 1923 1029 c 0,55,56
 1847 1133 1847 1133 1713 1133 c 0,57,58
 1537 1133 1537 1133 1357 956 c 0,59,60
 1224 826 1224 826 1167 698 c 1,61,-1
 1080 698 l 1,62,63
 1050 809 1050 809 881 809 c 0,64,65
 820 809 820 809 760 768 c 0,66,67
 677 711 677 711 665 604 c 1,68,-1
 1248 604 l 1,69,-1
 1248 525 l 1,70,-1
 1156 525 l 1,71,72
 1150 419 1150 419 1096 355 c 0,73,74
 1045 295 1045 295 1015 295 c 0,75,76
 1013 295 1013 295 1011 295 c 1,77,78
 1078 236 1078 236 1078 152 c 0,79,80
 1078 96 1078 96 1029.5 48 c 128,-1,81
 981 0 981 0 911 0 c 0,82,83
 767 0 767 0 669 156 c 0,84,85
 587 285 587 285 579 429 c 0,86,87
 578 467 578 467 576 525 c 1,88,-1
 467 525 l 1,89,-1
 467 604 l 1,90,-1
 584 604 l 1,91,92
 595 701 595 701 660 780 c 0,93,94
 746 884 746 884 886 884 c 0,95,96
 1050 884 1050 884 1114 787 c 1,97,98
 1162 848 1162 848 1210 909 c 0,99,100
 1313 1032 1313 1032 1419 1106 c 0,101,102
 1566 1209 1566 1209 1708 1209 c 0,103,104
 1889 1209 1889 1209 1989 1067 c 0,105,106
 2030 1008 2030 1008 2052 925 c 1,52,-1
EndSplineSet
Validated: 1
EndChar

StartChar: uni0A4D
Encoding: 2637 2637 60
Width: 46
Flags: W
LayerCount: 2
Fore
SplineSet
62 525 m 5,0,-1
 -17 525 l 5,1,-1
 -17 604 l 5,2,-1
 62 604 l 5,3,-1
 62 525 l 5,0,-1
61 -211 m 1,4,-1
 44 -230 l 1,5,6
 35 -221 35 -221 -73 -134 c 0,7,8
 -108 -106 -108 -106 -142 -106 c 128,-1,9
 -176 -106 -176 -106 -193 -110 c 1,10,11
 -207 -93 -207 -93 -220 -64 c 0,12,13
 -233 -36 -233 -36 -233 -28 c 128,-1,14
 -233 -20 -233 -20 -196 -20 c 0,15,16
 -136 -20 -136 -20 -93 -56 c 128,-1,17
 -50 -92 -50 -92 -10 -136 c 128,-1,18
 30 -180 30 -180 61 -211 c 1,4,-1
EndSplineSet
Validated: 1
EndChar

StartChar: uni0A51
Encoding: 2641 2641 61
Width: 46
Flags: W
LayerCount: 2
Fore
SplineSet
62 525 m 5,0,-1
 -17 525 l 5,1,-1
 -17 604 l 5,2,-1
 62 604 l 5,3,-1
 62 525 l 5,0,-1
-340 -39 m 1,4,-1
 -323 -20 l 1,5,6
 -314 -29 -314 -29 -206 -116 c 0,7,8
 -170 -144 -170 -144 -136 -144 c 128,-1,9
 -102 -144 -102 -144 -86 -140 c 1,10,11
 -72 -157 -72 -157 -59 -186 c 0,12,13
 -46 -214 -46 -214 -46 -222 c 128,-1,14
 -46 -230 -46 -230 -83 -230 c 0,15,16
 -143 -230 -143 -230 -186 -194 c 0,17,18
 -230 -158 -230 -158 -270 -114 c 128,-1,19
 -310 -70 -310 -70 -340 -39 c 1,4,-1
EndSplineSet
Validated: 1
EndChar

StartChar: uni0A4B
Encoding: 2635 2635 62
Width: 46
Flags: W
LayerCount: 2
Fore
SplineSet
-226 795 m 0,0,1
 -169 795 -169 795 -143 768.5 c 128,-1,2
 -117 742 -117 742 -117 705.5 c 128,-1,3
 -117 669 -117 669 -136 669 c 0,4,5
 -160 669 -160 669 -160 719 c 0,6,7
 -160 740 -160 740 -208 740 c 0,8,9
 -235 740 -235 740 -310.5 732.5 c 128,-1,10
 -386 725 -386 725 -412 725 c 0,11,12
 -470 725 -470 725 -496 755 c 0,13,14
 -513 776 -513 776 -513 804.5 c 128,-1,15
 -513 833 -513 833 -485 833 c 0,16,17
 -468 833 -468 833 -468 809 c 0,18,19
 -468 782 -468 782 -413 782 c 0,20,21
 -379 782 -379 782 -315 788.5 c 128,-1,22
 -251 795 -251 795 -226 795 c 0,0,1
62 525 m 1,23,-1
 -17 525 l 1,24,-1
 -17 604 l 1,25,-1
 62 604 l 1,26,-1
 62 525 l 1,23,-1
EndSplineSet
Validated: 1
EndChar

StartChar: uni0A59
Encoding: 2649 2649 63
Width: 564
Flags: W
LayerCount: 2
Fore
SplineSet
380 205 m 1,0,-1
 380 356 l 1,1,-1
 177 356 l 1,2,3
 169 304 169 304 138 249 c 1,4,5
 138 227 138 227 186 194.5 c 128,-1,6
 234 162 234 162 269 162 c 128,-1,7
 304 162 304 162 325 171.5 c 128,-1,8
 346 181 346 181 380 205 c 1,0,-1
118 91 m 132,-1,10
 134 75 134 75 134 52.5 c 132,-1,11
 134 30 134 30 118 13.5 c 132,-1,12
 102 -3 102 -3 79.5 -3 c 132,-1,13
 57 -3 57 -3 40.5 13.5 c 132,-1,14
 24 30 24 30 24 52.5 c 132,-1,15
 24 75 24 75 40.5 91 c 132,-1,16
 57 107 57 107 79.5 107 c 132,-1,9
 102 107 102 107 118 91 c 132,-1,10
603 525 m 1,17,-1
 465 525 l 1,18,-1
 465 -1 l 1,19,-1
 380 -1 l 1,20,-1
 380 111 l 1,21,22
 325 80 325 80 265 80 c 128,-1,23
 205 80 205 80 121 147 c 132,-1,24
 37 214 37 214 37 248 c 1,25,26
 95 306 95 306 95 414 c 0,27,28
 95 469 95 469 83 525 c 1,29,-1
 -3 525 l 1,30,-1
 -3 604 l 1,31,-1
 150 604 l 1,32,33
 158 578 158 578 169 514.5 c 128,-1,34
 180 451 180 451 180 429 c 1,35,-1
 380 429 l 1,36,-1
 380 604 l 1,37,-1
 603 604 l 1,38,-1
 603 525 l 1,17,-1
EndSplineSet
Validated: 1
Ligature2: "'nukt' Nukta Forms in Gurmukhi lookup 4 subtable" uni0A16 uni0A3C
EndChar

StartChar: uni0A5A
Encoding: 2650 2650 64
Width: 826
Flags: W
LayerCount: 2
Fore
SplineSet
424 133 m 2,0,-1
 424 310 l 1,1,-1
 250 310 l 2,2,3
 194 310 194 310 194 254 c 0,4,5
 194 177 194 177 247.5 127 c 128,-1,6
 301 77 301 77 355 77 c 0,7,8
 382 77 382 77 403 92.5 c 128,-1,9
 424 108 424 108 424 133 c 2,0,-1
122 121 m 128,-1,11
 138 105 138 105 138 82.5 c 128,-1,12
 138 60 138 60 122 43.5 c 128,-1,13
 106 27 106 27 83.5 27 c 128,-1,14
 61 27 61 27 44.5 43.5 c 128,-1,15
 28 60 28 60 28 82.5 c 128,-1,16
 28 105 28 105 44.5 121 c 128,-1,17
 61 137 61 137 83.5 137 c 128,-1,10
 106 137 106 137 122 121 c 128,-1,11
865 525 m 1,18,-1
 726 525 l 1,19,-1
 726 0 l 1,20,-1
 641 0 l 1,21,-1
 641 525 l 1,22,-1
 509 525 l 1,23,-1
 509 135 l 2,24,25
 509 75 509 75 470 38 c 128,-1,26
 431 1 431 1 360 1 c 0,27,28
 272 1 272 1 196 80.5 c 128,-1,29
 120 160 120 160 120 265 c 0,30,31
 120 387 120 387 259 387 c 2,32,-1
 424 387 l 1,33,-1
 424 525 l 1,34,-1
 -2 525 l 1,35,-1
 -2 604 l 5,36,-1
 865 604 l 1,37,-1
 865 525 l 1,18,-1
EndSplineSet
Validated: 1
Ligature2: "'nukt' Nukta Forms in Gurmukhi lookup 4 subtable" uni0A17 uni0A3C
EndChar

StartChar: uni0A5B
Encoding: 2651 2651 65
Width: 660
Flags: W
LayerCount: 2
Fore
SplineSet
377 88 m 128,-1,1
 393 72 393 72 393 49.5 c 128,-1,2
 393 27 393 27 377 10.5 c 128,-1,3
 361 -6 361 -6 338.5 -6 c 128,-1,4
 316 -6 316 -6 299.5 10.5 c 128,-1,5
 283 27 283 27 283 49.5 c 128,-1,6
 283 72 283 72 299.5 88 c 128,-1,7
 316 104 316 104 338.5 104 c 128,-1,0
 361 104 361 104 377 88 c 128,-1,1
699 525 m 1,8,-1
 558 525 l 1,9,-1
 558 0 l 1,10,-1
 473 0 l 1,11,-1
 473 228 l 1,12,-1
 210 228 l 1,13,-1
 210 -1 l 1,14,-1
 125 -1 l 1,15,-1
 125 228 l 1,16,-1
 32 228 l 1,17,18
 30 242 30 242 30 259 c 0,19,20
 30 311 30 311 50 344 c 0,21,22
 90 410 90 410 190 410 c 0,23,24
 200 410 200 410 210 409 c 1,25,-1
 210 313 l 1,26,-1
 473 313 l 1,27,-1
 473 525 l 1,28,-1
 -5 525 l 1,29,-1
 -5 604 l 1,30,-1
 699 604 l 1,31,-1
 699 525 l 1,8,-1
EndSplineSet
Validated: 1
Ligature2: "'nukt' Nukta Forms in Gurmukhi lookup 4 subtable" uni0A1C uni0A3C
EndChar

StartChar: uni0A5C
Encoding: 2652 2652 66
Width: 654
Flags: W
LayerCount: 2
Fore
SplineSet
693 525 m 1,0,-1
 559 525 l 1,1,2
 563 509 563 509 563 494 c 0,3,4
 563 445 563 445 530 398 c 0,5,6
 509 367 509 367 484 349 c 1,7,8
 511 334 511 334 539 318 c 0,9,10
 578 291 578 291 578 239 c 0,11,12
 578 183 578 183 534 141 c 0,13,14
 490 100 490 100 460 100 c 0,15,16
 457 100 457 100 454 101 c 0,17,18
 453 98 453 98 453 94 c 0,19,20
 454 84 454 84 460 70 c 0,21,22
 470 50 470 50 480.5 40.5 c 128,-1,23
 491 31 491 31 491 13 c 0,24,25
 491 -15 491 -15 468.5 -15 c 128,-1,26
 446 -15 446 -15 416 19 c 1,27,28
 406 39 406 39 373 80 c 1,29,30
 358 77 358 77 334 77 c 0,31,32
 261 77 261 77 125 101 c 1,33,34
 125 87 125 87 153.5 54.5 c 128,-1,35
 182 22 182 22 182 8 c 0,36,37
 182 -11 182 -11 161 -11 c 0,38,39
 123 -11 123 -11 81 42 c 0,40,41
 56 74 56 74 40 112.5 c 128,-1,42
 24 151 24 151 24 163 c 0,43,44
 24 210 24 210 36 210 c 1,45,-1
 124 185 l 2,46,47
 212 160 212 160 301 160 c 0,48,49
 496 160 496 160 496 244 c 0,50,51
 496 318 496 318 371 318 c 0,52,53
 348 318 348 318 293 306.5 c 128,-1,54
 238 295 238 295 214 295 c 0,55,56
 52 295 52 295 52 354 c 0,57,58
 52 417 52 417 209 417 c 0,59,60
 224 417 224 417 286 406 c 0,61,62
 341 396 341 396 371 396 c 0,63,64
 374 396 374 396 378 396 c 0,65,66
 408 398 408 398 443 423 c 128,-1,67
 478 448 478 448 478 470 c 0,68,69
 478 508 478 508 457 525 c 1,70,-1
 -2 525 l 1,71,-1
 -2 604 l 1,72,-1
 693 604 l 1,73,-1
 693 525 l 1,0,-1
EndSplineSet
Validated: 1
EndChar

StartChar: uni0A5E
Encoding: 2654 2654 67
Width: 604
Flags: W
LayerCount: 2
Fore
SplineSet
440 135 m 0,0,1
 440 197 440 197 368 197 c 0,2,3
 320 197 320 197 255 141 c 1,4,5
 310 79 310 79 362 79 c 0,6,7
 390 79 390 79 415 93.5 c 128,-1,8
 440 108 440 108 440 135 c 0,0,1
106 96 m 128,-1,10
 122 80 122 80 122 57.5 c 128,-1,11
 122 35 122 35 106 18.5 c 128,-1,12
 90 2 90 2 67.5 2 c 128,-1,13
 45 2 45 2 28.5 18.5 c 128,-1,14
 12 35 12 35 12 57.5 c 128,-1,15
 12 80 12 80 28.5 96 c 128,-1,16
 45 112 45 112 67.5 112 c 128,-1,9
 90 112 90 112 106 96 c 128,-1,10
643 525 m 1,17,-1
 511 525 l 1,18,-1
 511 353 l 1,19,-1
 230 353 l 2,20,21
 176 353 176 353 176 292 c 0,22,23
 176 273 176 273 190.5 242 c 128,-1,24
 205 211 205 211 212 205 c 1,25,26
 222 219 222 219 272.5 249 c 128,-1,27
 323 279 323 279 361 279 c 0,28,29
 428 279 428 279 475 237 c 128,-1,30
 522 195 522 195 522 138.5 c 128,-1,31
 522 82 522 82 475 40.5 c 128,-1,32
 428 -1 428 -1 363 -1 c 0,33,34
 266 -1 266 -1 178 102 c 128,-1,35
 90 205 90 205 90 316 c 0,36,37
 90 363 90 363 118 395 c 0,38,39
 155 438 155 438 238 438 c 2,40,-1
 426 438 l 1,41,-1
 426 525 l 1,42,-1
 -3 525 l 1,43,-1
 -3 604 l 1,44,-1
 643 604 l 1,45,-1
 643 525 l 1,17,-1
EndSplineSet
Validated: 1
Ligature2: "'nukt' Nukta Forms in Gurmukhi lookup 4 subtable" uni0A2B uni0A3C
EndChar

StartChar: uni0A70
Encoding: 2672 2672 68
Width: 46
Flags: W
AnchorPoint: "alt_blwm_position" -242 -48 basechar 0
LayerCount: 2
Fore
SplineSet
62 525 m 1,0,-1
 -17 525 l 1,1,-1
 -17 604 l 1,2,-1
 62 604 l 1,3,-1
 62 525 l 1,0,-1
-115 680 m 1,4,-1
 -105 742 l 1,5,6
 -105 782 -105 782 -159 782 c 128,-1,7
 -213 782 -213 782 -213 730 c 0,8,9
 -213 719 -213 719 -204.5 697.5 c 128,-1,10
 -196 676 -196 676 -196 671.5 c 128,-1,11
 -196 667 -196 667 -200 667 c 0,12,13
 -226 667 -226 667 -246.5 694.5 c 128,-1,14
 -267 722 -267 722 -267 759.5 c 128,-1,15
 -267 797 -267 797 -230.5 825 c 128,-1,16
 -194 853 -194 853 -149 853 c 128,-1,17
 -104 853 -104 853 -71.5 825.5 c 128,-1,18
 -39 798 -39 798 -39 757 c 0,19,20
 -39 668 -39 668 -105 668 c 0,21,22
 -115 668 -115 668 -115 680 c 1,4,-1
EndSplineSet
Validated: 1
EndChar

StartChar: uni0A76
Encoding: 2678 2678 78
Width: 236
Flags: W
LayerCount: 2
Fore
SplineSet
177 307 m 1,0,-1
 115 245 l 1,1,-1
 51 308 l 1,2,-1
 114 371 l 1,3,-1
 177 307 l 1,0,-1
EndSplineSet
Validated: 1
EndChar

StartChar: .notdef
Encoding: 65536 -1 79
Width: 500
Flags: W
LayerCount: 2
Fore
SplineSet
125 63 m 1,0,-1
 375 63 l 1,1,-1
 375 639 l 1,2,-1
 125 639 l 1,3,-1
 125 63 l 1,0,-1
63 0 m 1,4,-1
 63 701 l 1,5,-1
 438 701 l 1,6,-1
 438 0 l 1,7,-1
 63 0 l 1,4,-1
EndSplineSet
Validated: 1
EndChar

StartChar: uni0A4D_uni0A30
Encoding: 65537 -1 80
Width: 46
Flags: W
AnchorPoint: "alt_blwm_position" -177 -48 mark 0
LayerCount: 2
Fore
SplineSet
43 -266 m 0,0,1
 19 -266 19 -266 -7.5 -225 c 128,-1,2
 -34 -184 -34 -184 -52 -172.5 c 128,-1,3
 -70 -161 -70 -161 -108 -159 c 1,4,5
 -125 -201 -125 -201 -166 -201 c 0,6,7
 -190 -201 -190 -201 -208.5 -183.5 c 128,-1,8
 -227 -166 -227 -166 -227 -141 c 0,9,10
 -227 -96 -227 -96 -177 -87 c 1,11,-1
 -177 -48 l 1,12,-1
 -113 -48 l 1,13,-1
 -113 -96 l 1,14,15
 -19 -125 -19 -125 27 -207 c 0,16,17
 46 -241 46 -241 46 -253.5 c 128,-1,18
 46 -266 46 -266 43 -266 c 0,0,1
62 525 m 1,19,-1
 -17 525 l 1,20,-1
 -17 604 l 1,21,-1
 62 604 l 1,22,-1
 62 525 l 1,19,-1
EndSplineSet
Validated: 1
LCarets2: 1 0
Ligature2: "'blwf' Below Base Forms in Gurmukhi lookup 0 subtable" uni0A4D uni0A30
Ligature2: "'blwf' Below Base Forms in Gurmukhi lookup 0 subtable" uni0A30 uni0A4D
EndChar

StartChar: uni0A4D_uni0A35
Encoding: 65538 -1 81
Width: 46
Flags: W
LayerCount: 2
Fore
SplineSet
-103 -59 m 0,0,1
 -103 -92 -103 -92 -146 -92 c 2,2,-1
 -329 -92 l 2,3,4
 -344 -92 -344 -92 -344 -110 c 128,-1,5
 -344 -128 -344 -128 -329 -128 c 2,6,-1
 -105 -128 l 1,7,-1
 -105 -153 l 2,8,9
 -105 -171 -105 -171 -132 -175 c 1,10,-1
 -259 -175 l 1,11,-1
 -259 -191 l 2,12,13
 -259 -211 -259 -211 -233 -211 c 2,14,-1
 -105 -211 l 1,15,-1
 -105 -258 l 1,16,-1
 -211 -258 l 2,17,18
 -263 -258 -263 -258 -290 -228 c 0,19,20
 -311 -204 -311 -204 -311 -188 c 0,21,22
 -311 -184 -311 -184 -310 -180 c 1,23,24
 -353 -179 -353 -179 -374 -156 c 0,25,26
 -390 -140 -390 -140 -390 -121 c 2,27,-1
 -390 -93 l 2,28,29
 -390 -75 -390 -75 -372.5 -60 c 128,-1,30
 -355 -45 -355 -45 -330 -45 c 2,31,-1
 -149 -45 l 2,32,33
 -130 -45 -130 -45 -136 -25 c 1,34,35
 -103 -33 -103 -33 -103 -59 c 0,0,1
62 525 m 1,36,-1
 -17 525 l 1,37,-1
 -17 604 l 1,38,-1
 62 604 l 1,39,-1
 62 525 l 1,36,-1
EndSplineSet
Validated: 1
LCarets2: 1 0
Ligature2: "'blwf' Below Base Forms in Gurmukhi lookup 0 subtable" uni0A35 uni0A4D
Ligature2: "'blwf' Below Base Forms in Gurmukhi lookup 0 subtable" uni0A4D uni0A35
EndChar

StartChar: uni0A4D_uni0A39
Encoding: 65539 -1 82
Width: 46
Flags: W
LayerCount: 2
Fore
SplineSet
-110 -144 m 2,0,1
 -110 -246 -110 -246 -196 -246 c 0,2,3
 -249 -246 -249 -246 -294 -211 c 0,4,5
 -339 -176 -339 -176 -339 -119 c 0,6,7
 -339 -41 -339 -41 -249 -41 c 1,8,-1
 -249 -100 l 1,9,10
 -266 -100 -266 -100 -272 -116 c 0,11,12
 -274 -121 -274 -121 -274 -143 c 0,13,14
 -274 -153 -274 -153 -255 -167 c 128,-1,15
 -236 -181 -236 -181 -214 -181 c 0,16,17
 -192 -182 -192 -182 -185 -174 c 0,18,19
 -177 -166 -177 -166 -177 -127 c 2,20,-1
 -177 12 l 1,21,-1
 -110 12 l 1,22,-1
 -110 -144 l 2,0,1
62 525 m 1,23,-1
 -17 525 l 1,24,-1
 -17 604 l 1,25,-1
 62 604 l 1,26,-1
 62 525 l 1,23,-1
EndSplineSet
Validated: 1
LCarets2: 1 0
Ligature2: "'blwf' Below Base Forms in Gurmukhi lookup 0 subtable" uni0A39 uni0A4D
Ligature2: "'blwf' Below Base Forms in Gurmukhi lookup 0 subtable" uni0A4D uni0A39
EndChar

StartChar: uni0A75
Encoding: 2677 2677 83
Width: 46
Flags: W
AnchorPoint: "alt_blwm_position" -179 -48 mark 0
LayerCount: 2
Fore
SplineSet
62 525 m 5,0,-1
 -17 525 l 5,1,-1
 -17 604 l 5,2,-1
 62 604 l 5,3,-1
 62 525 l 5,0,-1
100 -151 m 1,4,-1
 100 -201 l 1,5,-1
 50 -201 l 1,6,-1
 50 -284 l 1,7,8
 12 -316 12 -316 -33 -316 c 0,9,10
 -75 -316 -75 -316 -124 -289 c 0,11,12
 -162 -267 -162 -267 -194 -233 c 0,13,14
 -220 -204 -220 -204 -221 -196 c 0,15,16
 -221 -194 -221 -194 -220 -194 c 1,17,-1
 -206 -186 l 1,18,19
 -169 -168 -169 -168 -169 -121 c 128,-1,20
 -169 -74 -169 -74 -179 -48 c 1,21,-1
 -115 -48 l 1,22,23
 -106 -79 -106 -79 -106 -113 c 0,24,25
 -106 -167 -106 -167 -139 -204 c 1,26,27
 -136 -219 -136 -219 -103 -239.5 c 128,-1,28
 -70 -260 -70 -260 -49 -260 c 0,29,30
 -47 -260 -47 -260 -45 -261 c 0,31,32
 -26 -261 -26 -261 -13 -256 c 1,33,-1
 -13 -151 l 1,34,-1
 100 -151 l 1,4,-1
EndSplineSet
Validated: 1
Substitution2: "'hist' Historical Forms in Gurmukhi lookup 7-1" _uni0A75
EndChar

StartChar: uni0A4D_uni0A1A
Encoding: 65540 -1 84
Width: 46
Flags: W
LayerCount: 2
Fore
SplineSet
-167 -215 m 2,0,-1
 -167 -159 l 1,1,-1
 -326 -159 l 1,2,3
 -302 -266 -302 -266 -220 -266 c 0,4,5
 -167 -266 -167 -266 -167 -215 c 2,0,-1
-108 -224 m 2,6,7
 -108 -266 -108 -266 -141.5 -290.5 c 128,-1,8
 -175 -315 -175 -315 -225 -315 c 0,9,10
 -289 -315 -289 -315 -337.5 -255.5 c 128,-1,11
 -386 -196 -386 -196 -386 -161 c 1,12,-1
 -448 -161 l 1,13,14
 -444 -115 -444 -115 -423 -92 c 0,15,16
 -400 -67 -400 -67 -350 -67 c 0,17,18
 -339 -67 -339 -67 -326 -68 c 1,19,-1
 -326 -118 l 1,20,-1
 -167 -118 l 1,21,-1
 -167 -48 l 1,22,-1
 -108 -48 l 1,23,-1
 -108 -224 l 2,6,7
62 525 m 1,24,-1
 -17 525 l 1,25,-1
 -17 604 l 1,26,-1
 62 604 l 1,27,-1
 62 525 l 1,24,-1
EndSplineSet
Validated: 1
LCarets2: 1 0
Ligature2: "'blwf' Below Base Forms in Gurmukhi lookup 0 subtable" uni0A1A uni0A4D
Ligature2: "'blwf' Below Base Forms in Gurmukhi lookup 0 subtable" uni0A4D uni0A1A
EndChar

StartChar: uni0A4D_uni0A24
Encoding: 65541 -1 85
Width: 46
Flags: W
LayerCount: 2
Fore
SplineSet
-101 -244 m 0,0,1
 -101 -324 -101 -324 -229 -324 c 0,2,3
 -284 -324 -284 -324 -330 -288 c 0,4,5
 -375 -253 -375 -253 -375 -241 c 0,6,7
 -375 -241 -375 -241 -375 -240 c 0,8,9
 -375 -226 -375 -226 -355 -226 c 0,10,11
 -350 -226 -350 -226 -335 -240 c 0,12,13
 -318 -258 -318 -258 -297 -270 c 0,14,15
 -278 -281 -278 -281 -246 -281 c 0,16,17
 -243 -281 -243 -281 -241 -281 c 0,18,19
 -161 -281 -161 -281 -161 -236 c 0,20,21
 -161 -218 -161 -218 -177.5 -203 c 128,-1,22
 -194 -188 -194 -188 -210 -188 c 128,-1,23
 -226 -188 -226 -188 -245.5 -196.5 c 128,-1,24
 -265 -205 -265 -205 -283 -205 c 128,-1,25
 -301 -205 -301 -205 -321.5 -192.5 c 128,-1,26
 -342 -180 -342 -180 -342 -166 c 128,-1,27
 -342 -152 -342 -152 -323 -140.5 c 128,-1,28
 -304 -129 -304 -129 -284 -129 c 128,-1,29
 -264 -129 -264 -129 -243 -140.5 c 128,-1,30
 -222 -152 -222 -152 -210 -152 c 128,-1,31
 -198 -152 -198 -152 -180 -140 c 128,-1,32
 -162 -128 -162 -128 -162 -111 c 0,33,34
 -162 -76 -162 -76 -181 -48 c 1,35,-1
 -118 -48 l 1,36,37
 -102 -70 -102 -70 -102 -101 c 0,38,39
 -102 -149 -102 -149 -149 -170 c 1,40,41
 -101 -202 -101 -202 -101 -244 c 0,0,1
62 525 m 1,42,-1
 -17 525 l 1,43,-1
 -17 604 l 1,44,-1
 62 604 l 1,45,-1
 62 525 l 1,42,-1
EndSplineSet
Validated: 1
LCarets2: 1 0
Ligature2: "'blwf' Below Base Forms in Gurmukhi lookup 0 subtable" uni0A24 uni0A4D
Ligature2: "'blwf' Below Base Forms in Gurmukhi lookup 0 subtable" uni0A4D uni0A24
EndChar

StartChar: uni0A4D_uni0A28
Encoding: 65542 -1 86
Width: 46
Flags: W
LayerCount: 2
Fore
SplineSet
-22.5 -288 m 128,-1,1
 -49 -316 -49 -316 -98 -320 c 1,2,-1
 -98 -271 l 1,3,4
 -55 -262 -55 -262 -55 -217.5 c 128,-1,5
 -55 -173 -55 -173 -100 -151 c 0,6,7
 -126 -138 -126 -138 -149 -138 c 128,-1,8
 -172 -138 -172 -138 -198 -151 c 0,9,10
 -241 -174 -241 -174 -241 -219.5 c 128,-1,11
 -241 -265 -241 -265 -199 -271 c 1,12,-1
 -199 -320 l 1,13,14
 -236 -319 -236 -319 -269 -293 c 128,-1,15
 -302 -267 -302 -267 -302 -216.5 c 128,-1,16
 -302 -166 -302 -166 -260 -128.5 c 128,-1,17
 -218 -91 -218 -91 -179 -88 c 1,18,-1
 -179 -48 l 1,19,-1
 -119 -48 l 1,20,-1
 -119 -88 l 1,21,22
 -78 -91 -78 -91 -37 -129 c 128,-1,23
 4 -167 4 -167 4 -213.5 c 128,-1,0
 4 -260 4 -260 -22.5 -288 c 128,-1,1
62 525 m 1,24,-1
 -17 525 l 1,25,-1
 -17 604 l 1,26,-1
 62 604 l 1,27,-1
 62 525 l 1,24,-1
EndSplineSet
Validated: 1
LCarets2: 1 0
Ligature2: "'blwf' Below Base Forms in Gurmukhi lookup 0 subtable" uni0A28 uni0A4D
Ligature2: "'blwf' Below Base Forms in Gurmukhi lookup 0 subtable" uni0A4D uni0A28
EndChar

StartChar: uni0A4D_uni0A1F
Encoding: 65543 -1 87
Width: 46
Flags: W
LayerCount: 2
Fore
SplineSet
-83 -240 m 1,0,1
 -70 -240 -70 -240 -70 -256.5 c 128,-1,2
 -70 -273 -70 -273 -111 -308 c 0,3,4
 -157 -345 -157 -345 -196 -345 c 0,5,6
 -255 -345 -255 -345 -313.5 -286 c 128,-1,7
 -372 -227 -372 -227 -372 -207 c 0,8,9
 -372 -174 -372 -174 -292 -129 c 128,-1,10
 -212 -84 -212 -84 -179 -84 c 1,11,-1
 -179 -48 l 1,12,-1
 -119 -48 l 1,13,-1
 -119 -135 l 1,14,15
 -158 -135 -158 -135 -230.5 -169 c 128,-1,16
 -303 -203 -303 -203 -303 -212 c 0,17,18
 -303 -228 -303 -228 -260 -261 c 128,-1,19
 -217 -294 -217 -294 -186.5 -294 c 128,-1,20
 -156 -294 -156 -294 -118 -267 c 0,21,22
 -83 -242 -83 -242 -83 -240 c 0,23,24
 -83 -240 -83 -240 -83 -240 c 0,25,-1
 -83 -240 l 1,0,1
62 525 m 1,26,-1
 -17 525 l 1,27,-1
 -17 604 l 1,28,-1
 62 604 l 1,29,-1
 62 525 l 1,26,-1
EndSplineSet
Validated: 5
LCarets2: 1 0
Ligature2: "'blwf' Below Base Forms in Gurmukhi lookup 0 subtable" uni0A1F uni0A4D
Ligature2: "'blwf' Below Base Forms in Gurmukhi lookup 0 subtable" uni0A4D uni0A1F
EndChar

StartChar: uni0A4D_uni0A2F
Encoding: 65544 -1 88
Width: 615
Flags: W
LayerCount: 2
Fore
SplineSet
654 525 m 1,0,-1
 516 525 l 1,1,-1
 516 0 l 1,2,-1
 431 0 l 1,3,-1
 431 309 l 1,4,-1
 332 319 l 1,5,-1
 266 56 l 1,6,-1
 26 168 l 1,7,-1
 55 238 l 1,8,-1
 210 163 l 1,9,-1
 271 408 l 1,10,-1
 431 390 l 1,11,-1
 431 525 l 1,12,-1
 -2 525 l 1,13,-1
 -2 604 l 5,14,-1
 654 604 l 1,15,-1
 654 525 l 1,0,-1
EndSplineSet
Validated: 1
LCarets2: 1 0
Ligature2: "'pstf' Post Base Forms in Gurmukhi lookup 1 subtable" uni0A2F uni0A4D
Ligature2: "'pstf' Post Base Forms in Gurmukhi lookup 1 subtable" uni0A4D uni0A2F
EndChar

StartChar: uni0A15_uni0A4D_uni0A30
Encoding: 65545 -1 89
Width: 708
Flags: W
LayerCount: 2
Fore
SplineSet
127 167.5 m 128,-1,1
 164 137 164 137 212 137 c 128,-1,2
 260 137 260 137 302.5 183 c 128,-1,3
 345 229 345 229 345 245.5 c 128,-1,4
 345 262 345 262 301 309.5 c 128,-1,5
 257 357 257 357 204 357 c 128,-1,6
 151 357 151 357 120.5 325.5 c 128,-1,7
 90 294 90 294 90 237 c 0,8,0
 90 198 90 198 127 167.5 c 128,-1,1
745 525 m 1,9,-1
 520 525 l 1,10,11
 521 519 521 519 521 512 c 0,12,13
 521 478 521 478 506 403 c 0,14,15
 488 312 488 312 446 236 c 1,16,17
 475 188 475 188 490 114 c 128,-1,18
 505 40 505 40 505 -1 c 1,19,-1
 421 0 l 1,20,21
 421 60 421 60 387 159 c 1,22,23
 370 135 370 135 349 117 c 0,24,25
 297 72 297 72 231 61 c 1,26,-1
 231 -45 l 1,27,28
 303 -66 303 -66 375 -148 c 0,29,30
 411 -189 411 -189 411 -193.5 c 128,-1,31
 411 -198 411 -198 402 -208.5 c 128,-1,32
 393 -219 393 -219 390.5 -219 c 128,-1,33
 388 -219 388 -219 351.5 -179.5 c 128,-1,34
 315 -140 315 -140 290 -124 c 0,35,36
 270 -111 270 -111 245 -110 c 0,37,38
 239 -110 239 -110 233 -111 c 1,39,40
 203 -152 203 -152 174 -152 c 128,-1,41
 145 -152 145 -152 126.5 -134.5 c 128,-1,42
 108 -117 108 -117 108 -92 c 0,43,44
 108 -44 108 -44 167 -36 c 1,45,-1
 167 63 l 1,46,47
 130 65 130 65 79 102 c 0,48,49
 7 154 7 154 7 236 c 0,50,51
 7 332 7 332 61.5 384.5 c 128,-1,52
 116 437 116 437 192.5 437 c 128,-1,53
 269 437 269 437 334 386 c 0,54,55
 378 351 378 351 393 321 c 1,56,57
 412 370 412 370 426 438 c 0,58,59
 438 494 438 494 438 517 c 0,60,61
 438 522 438 522 437 525 c 1,62,-1
 -1 525 l 1,63,-1
 -1 604 l 1,64,-1
 745 604 l 1,65,-1
 745 525 l 1,9,-1
EndSplineSet
Validated: 1
Ligature2: "'blws' Below Base Substitutions in Gurmukhi lookup 2 subtable" uni0A15 uni0A4D uni0A30
Ligature2: "'blws' Below Base Substitutions in Gurmukhi lookup 2 subtable" uni0A15 uni0A4D_uni0A30
EndChar

StartChar: uni0A28_uni0A42uni0A70
Encoding: 65546 -1 90
Width: 648
Flags: W
LayerCount: 2
Fore
SplineSet
466 -248 m 1,0,1
 405 -264 405 -264 278 -264 c 128,-1,2
 151 -264 151 -264 98 -247 c 1,3,-1
 98 -174 l 1,4,5
 122 -184 122 -184 193 -191 c 128,-1,6
 264 -198 264 -198 289 -198 c 128,-1,7
 314 -198 314 -198 378 -191 c 128,-1,8
 442 -184 442 -184 466 -174 c 1,9,-1
 466 -248 l 1,0,1
464 -117 m 1,10,11
 403 -133 403 -133 276 -133 c 128,-1,12
 149 -133 149 -133 96 -116 c 1,13,-1
 96 -43 l 1,14,15
 120 -53 120 -53 191 -60 c 128,-1,16
 262 -67 262 -67 287 -67 c 128,-1,17
 312 -67 312 -67 376 -60 c 128,-1,18
 440 -53 440 -53 464 -43 c 1,19,-1
 464 -117 l 1,10,11
687 525 m 1,20,-1
 335 525 l 1,21,-1
 335 388 l 1,22,23
 404 385 404 385 476.5 320.5 c 128,-1,24
 549 256 549 256 549 166 c 0,25,26
 549 100 549 100 504 52.5 c 128,-1,27
 459 5 459 5 377 -2 c 1,28,-1
 377 74 l 1,29,30
 379 74 379 74 380 74 c 0,31,32
 405 74 405 74 429 89 c 0,33,34
 467 113 467 113 467 169 c 0,35,36
 467 255 467 255 384 296 c 0,37,38
 334 321 334 321 290.5 321 c 128,-1,39
 247 321 247 321 198 295 c 0,40,41
 117 253 117 253 117 166 c 0,42,43
 117 109 117 109 157 87 c 0,44,45
 179 74 179 74 207 74 c 1,46,-1
 207 -1 l 1,47,48
 146 0 146 0 96 39 c 0,49,50
 35 87 35 87 35 172 c 128,-1,51
 35 257 35 257 115 325 c 0,52,53
 183 383 183 383 249 388 c 1,54,-1
 249 525 l 1,55,-1
 -3 525 l 1,56,-1
 -3 604 l 1,57,-1
 687 604 l 1,58,-1
 687 525 l 1,20,-1
339 704 m 1,59,-1
 349 766 l 1,60,61
 349 806 349 806 295 806 c 128,-1,62
 241 806 241 806 241 754 c 0,63,64
 241 743 241 743 249.5 721.5 c 128,-1,65
 258 700 258 700 258 695.5 c 128,-1,66
 258 691 258 691 254 691 c 0,67,68
 228 691 228 691 207.5 718.5 c 128,-1,69
 187 746 187 746 187 783.5 c 128,-1,70
 187 821 187 821 223.5 849 c 128,-1,71
 260 877 260 877 305 877 c 128,-1,72
 350 877 350 877 382.5 849.5 c 128,-1,73
 415 822 415 822 415 781 c 0,74,75
 415 692 415 692 349 692 c 0,76,77
 339 692 339 692 339 704 c 1,59,-1
EndSplineSet
Validated: 1
Ligature2: "'abvs' Above Base Substitutions in Gurmukhi lookup 3 subtable" uni0A28 uni0A70 uni0A42
Ligature2: "'abvs' Above Base Substitutions in Gurmukhi lookup 3 subtable" uni0A28 uni0A42 uni0A70
EndChar

StartChar: uni0A09_uni0A02
Encoding: 65548 -1 91
Width: 800
Flags: W
LayerCount: 2
Fore
SplineSet
460 148 m 0,0,1
 460 197 460 197 429.5 233 c 128,-1,2
 399 269 399 269 351 269 c 2,3,-1
 152 269 l 1,4,5
 178 200 178 200 222 144 c 0,6,7
 286 64 286 64 357 64 c 0,8,9
 397 64 397 64 428.5 91.5 c 128,-1,10
 460 119 460 119 460 148 c 0,0,1
108 525 m 1,11,12
 112 391 112 391 134 342 c 1,13,-1
 401 342 l 2,14,15
 446 342 446 342 490 404 c 0,16,17
 528 458 528 458 529 509 c 0,18,19
 529 517 529 517 528 525 c 1,20,-1
 108 525 l 1,11,12
521 604 m 1,21,22
 518 675 518 675 472 741 c 0,23,24
 415 821 415 821 331 821 c 0,25,26
 221 821 221 821 160 732 c 0,27,28
 118 671 118 671 113 604 c 1,29,-1
 521 604 l 1,21,22
508 -117 m 1,30,31
 447 -133 447 -133 320 -133 c 128,-1,32
 193 -133 193 -133 140 -116 c 1,33,-1
 140 -43 l 1,34,35
 164 -53 164 -53 235 -60 c 128,-1,36
 306 -67 306 -67 331 -67 c 128,-1,37
 356 -67 356 -67 420 -60 c 128,-1,38
 484 -53 484 -53 508 -43 c 1,39,-1
 508 -117 l 1,30,31
829 525 m 1,40,-1
 616 525 l 1,41,42
 610 420 610 420 553 349 c 0,43,44
 511 297 511 297 479 293 c 1,45,46
 536 243 536 243 536 152 c 0,47,48
 536 92 536 92 485 41 c 128,-1,49
 434 -10 434 -10 359 -10 c 0,50,51
 211 -10 211 -10 113 166 c 0,52,53
 33 307 33 307 25 459 c 0,54,55
 24 482 24 482 22 525 c 1,56,-1
 -40 525 l 1,57,-1
 -40 604 l 1,58,-1
 24 604 l 1,59,60
 42 709 42 709 91 778 c 0,61,62
 175 896 175 896 336 896 c 0,63,64
 451 896 451 896 532 792 c 0,65,66
 603 703 603 703 607 604 c 1,67,-1
 829 604 l 1,68,-1
 829 525 l 1,40,-1
746 761 m 128,-1,70
 762 745 762 745 762 722.5 c 128,-1,71
 762 700 762 700 746 683.5 c 128,-1,72
 730 667 730 667 707.5 667 c 128,-1,73
 685 667 685 667 668.5 683.5 c 128,-1,74
 652 700 652 700 652 722.5 c 128,-1,75
 652 745 652 745 668.5 761 c 128,-1,76
 685 777 685 777 707.5 777 c 128,-1,69
 730 777 730 777 746 761 c 128,-1,70
EndSplineSet
Validated: 1
Ligature2: "'abvs' Above Base Substitutions in Gurmukhi lookup 3 subtable" uni0A09 uni0A02
Ligature2: "'abvs' Above Base Substitutions in Gurmukhi lookup 3 subtable" uni0A73 uni0A41 uni0A02
EndChar

StartChar: exclam
Encoding: 33 33 92
Width: 350
Flags: W
LayerCount: 2
Fore
SplineSet
369 52 m 1,0,-1
 313 -4 l 1,1,-1
 255 53 l 1,2,-1
 312 110 l 1,3,-1
 369 52 l 1,0,-1
341 669 m 1,4,5
 340 480 340 480 336 174 c 1,6,-1
 291 174 l 1,7,8
 288 321 288 321 271 669 c 1,9,-1
 341 669 l 1,4,5
EndSplineSet
Validated: 1
EndChar

StartChar: numbersign
Encoding: 35 35 93
Width: 647
Flags: W
LayerCount: 2
Fore
SplineSet
408 414 m 1,0,-1
 279 414 l 1,1,-1
 249 234 l 1,2,-1
 378 234 l 1,3,-1
 408 414 l 1,0,-1
601 414 m 1,4,-1
 490 414 l 1,5,-1
 460 234 l 1,6,-1
 566 234 l 1,7,-1
 566 152 l 1,8,-1
 445 152 l 1,9,-1
 425 42 l 1,10,-1
 345 42 l 1,11,-1
 364 152 l 1,12,-1
 235 152 l 1,13,-1
 213 42 l 1,14,-1
 134 42 l 1,15,-1
 153 152 l 1,16,-1
 46 152 l 1,17,-1
 46 234 l 1,18,-1
 167 234 l 1,19,-1
 197 414 l 1,20,-1
 85 414 l 1,21,-1
 85 496 l 1,22,-1
 210 496 l 1,23,-1
 228 586 l 1,24,-1
 309 586 l 1,25,-1
 291 496 l 1,26,-1
 421 496 l 1,27,-1
 438 586 l 1,28,-1
 521 586 l 1,29,-1
 504 496 l 1,30,-1
 601 496 l 1,31,-1
 601 414 l 1,4,-1
EndSplineSet
Validated: 1
EndChar

StartChar: dollar
Encoding: 36 36 94
Width: 543
Flags: W
LayerCount: 2
Fore
SplineSet
296 43 m 1,0,-1
 296 261 l 1,1,-1
 238 289 l 1,2,-1
 238 43 l 1,3,4
 254 41 254 41 268.5 41 c 128,-1,5
 283 41 283 41 296 43 c 1,0,-1
348 65 m 1,6,7
 402 94 402 94 402 146 c 128,-1,8
 402 198 402 198 348 230 c 1,9,-1
 348 65 l 1,6,7
186 439 m 1,10,-1
 186 566 l 1,11,12
 144 543 144 543 144 507 c 128,-1,13
 144 471 144 471 186 439 c 1,10,-1
296 377 m 1,14,-1
 296 585 l 1,15,16
 281 588 281 588 267 588 c 0,17,18
 251 588 251 588 238 584 c 1,19,-1
 238 406 l 1,20,-1
 296 377 l 1,14,-1
348 350 m 1,21,22
 496 281 496 281 496 168.5 c 128,-1,23
 496 56 496 56 348 -7 c 1,24,-1
 348 -69 l 1,25,-1
 296 -69 l 1,26,-1
 296 -21 l 1,27,28
 276 -24 276 -24 257 -24 c 0,29,30
 247 -24 247 -24 238 -23 c 1,31,-1
 238 -69 l 1,32,-1
 186 -69 l 1,33,-1
 186 -15 l 1,34,35
 144 -7 144 -7 101 12 c 128,-1,36
 58 31 58 31 52 39 c 1,37,-1
 52 135 l 1,38,-1
 89 135 l 1,39,40
 89 124 89 124 99 112 c 0,41,42
 122 84 122 84 186 57 c 1,43,-1
 186 316 l 1,44,45
 66 378 66 378 66 479.5 c 128,-1,46
 66 581 66 581 186 625 c 1,47,-1
 186 687 l 1,48,-1
 238 687 l 1,49,-1
 238 638 l 1,50,51
 250 640 250 640 264 640 c 128,-1,52
 278 640 278 640 296 638 c 1,53,-1
 296 687 l 1,54,-1
 348 687 l 1,55,-1
 348 629 l 1,56,57
 428 610 428 610 458 562 c 1,58,-1
 458 483 l 1,59,-1
 415 483 l 1,60,61
 388 550 388 550 348 568 c 1,62,-1
 348 350 l 1,21,22
EndSplineSet
Validated: 1
EndChar

StartChar: percent
Encoding: 37 37 95
Width: 552
Flags: W
LayerCount: 2
Fore
SplineSet
212 351 m 0,0,1
 212 477 212 477 138 477 c 0,2,3
 104 477 104 477 104 419 c 0,4,5
 104 298 104 298 176 298 c 0,6,7
 212 298 212 298 212 351 c 0,0,1
509 118 m 0,8,9
 509 244 509 244 435 244 c 0,10,11
 401 244 401 244 401 186 c 0,12,13
 401 65 401 65 474 65 c 0,14,15
 509 65 509 65 509 118 c 0,8,9
254 401 m 0,16,17
 254 320 254 320 215 277 c 0,18,19
 186 246 186 246 152 246 c 0,20,21
 118 246 118 246 94 271 c 0,22,23
 62 304 62 304 62 380 c 0,24,25
 62 456 62 456 94 492 c 0,26,27
 126 528 126 528 168 529 c 0,28,29
 254 529 254 529 254 401 c 0,16,17
479 529 m 1,30,-1
 176 13 l 1,31,-1
 133 13 l 1,32,-1
 436 529 l 1,33,-1
 479 529 l 1,30,-1
551 168 m 0,34,35
 551 87 551 87 512 44 c 0,36,37
 482 13 482 13 448 13 c 0,38,39
 414 13 414 13 391 38 c 0,40,41
 359 72 359 72 359 148 c 0,42,43
 360 224 360 224 392 260 c 0,44,45
 424 296 424 296 465 296 c 0,46,47
 551 296 551 296 551 168 c 0,34,35
EndSplineSet
Validated: 1
EndChar

StartChar: at
Encoding: 64 64 96
Width: 747
Flags: W
LayerCount: 2
Fore
SplineSet
283 222.5 m 128,-1,1
 307 194 307 194 355.5 194 c 128,-1,2
 404 194 404 194 433.5 237 c 128,-1,3
 463 280 463 280 463 329.5 c 128,-1,4
 463 379 463 379 439.5 404.5 c 128,-1,5
 416 430 416 430 371.5 430 c 128,-1,6
 327 430 327 430 293 388 c 128,-1,7
 259 346 259 346 259 298.5 c 128,-1,0
 259 251 259 251 283 222.5 c 128,-1,1
588 577 m 0,8,9
 682 495 682 495 682 386 c 128,-1,10
 682 277 682 277 628 205 c 0,11,12
 576 136 576 136 506 136 c 0,13,14
 503 136 503 136 500 136 c 0,15,16
 463 138 463 138 455 187 c 1,17,18
 406 136 406 136 345.5 136 c 128,-1,19
 285 136 285 136 242.5 181 c 128,-1,20
 200 226 200 226 200 297.5 c 128,-1,21
 200 369 200 369 248 428.5 c 128,-1,22
 296 488 296 488 366.5 488 c 128,-1,23
 437 488 437 488 483 429 c 1,24,-1
 495 480 l 1,25,-1
 555 480 l 1,26,-1
 512 266 l 2,27,28
 505 231 505 231 505 220 c 0,29,30
 505 194 505 194 524 194 c 0,31,32
 554 194 554 194 586.5 245 c 128,-1,33
 619 296 619 296 622 355 c 0,34,35
 622 364 622 364 622 372 c 0,36,37
 622 468 622 468 561 526 c 0,38,39
 494 589 494 589 385.5 589 c 128,-1,40
 277 589 277 589 203.5 512.5 c 128,-1,41
 130 436 130 436 130 319.5 c 128,-1,42
 130 203 130 203 208.5 128.5 c 128,-1,43
 287 54 287 54 397 54 c 128,-1,44
 507 54 507 54 563 93 c 1,45,-1
 622 50 l 1,46,47
 512 -6 512 -6 395 -6 c 0,48,49
 259 -6 259 -6 164.5 88 c 128,-1,50
 70 182 70 182 70 321.5 c 128,-1,51
 70 461 70 461 163 555 c 128,-1,52
 256 649 256 649 391 649 c 0,53,54
 506 649 506 649 588 577 c 0,8,9
EndSplineSet
Validated: 1
EndChar

StartChar: parenleft
Encoding: 40 40 97
Width: 300
Flags: W
LayerCount: 2
Fore
SplineSet
224 -92 m 1,0,-1
 196 -92 l 2,1,2
 178 -92 178 -92 135 -30 c 0,3,4
 92 32 92 32 58 121 c 0,5,6
 24 211 24 211 24 297 c 0,7,8
 24 383 24 383 58 472 c 0,9,10
 92 561 92 561 135 623 c 0,11,12
 178 685 178 685 196 685 c 2,13,-1
 224 685 l 1,14,15
 85 512 85 512 85 294 c 0,16,17
 85 76 85 76 224 -92 c 1,0,-1
EndSplineSet
Validated: 1
EndChar

StartChar: parenright
Encoding: 41 41 98
Width: 300
Flags: W
LayerCount: 2
Fore
SplineSet
120 686 m 2,0,1
 138 686 138 686 181 624.5 c 128,-1,2
 224 563 224 563 258 473 c 128,-1,3
 292 383 292 383 292 297 c 128,-1,4
 292 211 292 211 258 122 c 128,-1,5
 224 33 224 33 181 -29 c 128,-1,6
 138 -91 138 -91 120 -91 c 2,7,-1
 92 -91 l 1,8,9
 231 82 231 82 231 299.5 c 128,-1,10
 231 517 231 517 92 686 c 1,11,-1
 120 686 l 2,0,1
EndSplineSet
Validated: 1
EndChar

StartChar: asterisk
Encoding: 42 42 99
Width: 466
Flags: W
LayerCount: 2
Fore
SplineSet
466 511 m 1,0,-1
 419 472 l 1,1,-1
 319 541 l 1,2,-1
 334 395 l 1,3,-1
 272 414 l 1,4,-1
 288 540 l 1,5,-1
 169 454 l 1,6,-1
 156 515 l 1,7,-1
 271 565 l 1,8,-1
 129 618 l 1,9,-1
 182 663 l 1,10,-1
 284 588 l 1,11,-1
 265 737 l 1,12,-1
 329 710 l 1,13,-1
 315 590 l 1,14,-1
 433 682 l 1,15,-1
 442 618 l 1,16,-1
 329 568 l 1,17,-1
 466 511 l 1,0,-1
EndSplineSet
Validated: 1
EndChar

StartChar: plus
Encoding: 43 43 100
Width: 466
Flags: W
LayerCount: 2
Fore
SplineSet
404 252 m 1,0,-1
 252 252 l 1,1,-1
 252 97 l 1,2,-1
 214 97 l 1,3,-1
 214 252 l 1,4,-1
 62 252 l 1,5,-1
 62 290 l 1,6,-1
 214 290 l 1,7,-1
 214 445 l 1,8,-1
 252 445 l 1,9,-1
 252 290 l 1,10,-1
 404 290 l 1,11,-1
 404 252 l 1,0,-1
EndSplineSet
Validated: 1
EndChar

StartChar: comma
Encoding: 44 44 101
Width: 290
Flags: W
LayerCount: 2
Fore
SplineSet
268 75 m 1,0,1
 268 61 268 61 254.5 43 c 128,-1,2
 241 25 241 25 241 19 c 0,3,4
 241 17 241 17 241 16 c 0,5,6
 241 -59 241 -59 198 -112 c 0,7,8
 176 -140 176 -140 163 -140 c 0,9,10
 153 -140 153 -140 153 -123 c 0,11,12
 153 -122 153 -122 171.5 -89 c 128,-1,13
 190 -56 190 -56 190 -30 c 128,-1,14
 190 -4 190 -4 185 12.5 c 128,-1,15
 180 29 180 29 141 64 c 1,16,-1
 210 133 l 1,17,-1
 268 75 l 1,0,1
EndSplineSet
Validated: 1
EndChar

StartChar: hyphen
Encoding: 45 45 102
Width: 538
Flags: W
LayerCount: 2
Fore
SplineSet
463 320 m 1,0,-1
 51 320 l 1,1,-1
 51 377 l 1,2,-1
 463 377 l 1,3,-1
 463 320 l 1,0,-1
EndSplineSet
Validated: 1
EndChar

StartChar: period
Encoding: 46 46 103
Width: 290
Flags: W
LayerCount: 2
Fore
SplineSet
284 57 m 1,0,-1
 222 -5 l 1,1,-1
 158 58 l 1,2,-1
 221 121 l 1,3,-1
 284 57 l 1,0,-1
EndSplineSet
Validated: 1
EndChar

StartChar: slash
Encoding: 47 47 104
Width: 470
Flags: W
LayerCount: 2
Fore
SplineSet
457 681 m 1,0,-1
 90 -35 l 1,1,-1
 35 -35 l 1,2,-1
 398 682 l 1,3,-1
 457 681 l 1,0,-1
EndSplineSet
Validated: 1
EndChar

StartChar: zero
Encoding: 48 48 105
Width: 550
Flags: W
LayerCount: 2
Fore
SplineSet
415 314 m 0,0,1
 415 418 415 418 376 495 c 128,-1,2
 337 572 337 572 271.5 572 c 128,-1,3
 206 572 206 572 170.5 504 c 128,-1,4
 135 436 135 436 135 320 c 128,-1,5
 135 204 135 204 180 128.5 c 128,-1,6
 225 53 225 53 283 53 c 0,7,8
 415 53 415 53 415 314 c 0,0,1
437 530 m 128,-1,10
 505 437 505 437 505 304.5 c 128,-1,11
 505 172 505 172 435 85 c 128,-1,12
 365 -2 365 -2 285.5 -2 c 128,-1,13
 206 -2 206 -2 127 87 c 0,14,15
 40 187 40 187 40 320 c 128,-1,16
 40 453 40 453 110 538 c 128,-1,17
 180 623 180 623 274.5 623 c 128,-1,9
 369 623 369 623 437 530 c 128,-1,10
EndSplineSet
Validated: 1
EndChar

StartChar: one
Encoding: 49 49 106
Width: 550
Flags: W
LayerCount: 2
Fore
SplineSet
462 0 m 1,0,-1
 130 -1 l 1,1,-1
 130 54 l 1,2,3
 244 54 244 54 244 100 c 2,4,-1
 244 549 l 1,5,-1
 132 509 l 1,6,-1
 113 554 l 1,7,-1
 285 622 l 1,8,-1
 332 586 l 1,9,-1
 332 104 l 2,10,11
 332 58 332 58 462 58 c 1,12,-1
 462 0 l 1,0,-1
EndSplineSet
Validated: 1
EndChar

StartChar: two
Encoding: 50 50 107
Width: 550
Flags: W
LayerCount: 2
Fore
SplineSet
519 127 m 1,0,-1
 453 -1 l 1,1,-1
 34 0 l 1,2,-1
 42 47 l 1,3,4
 371 291 371 291 371 433 c 0,5,6
 371 489 371 489 328 530 c 0,7,8
 288 566 288 566 237 566 c 0,9,10
 186 566 186 566 151 528 c 0,11,12
 123 492 123 492 94 456 c 1,13,-1
 48 457 l 1,14,-1
 71 532 l 2,15,16
 77 550 77 550 143 586 c 0,17,18
 209 622 209 622 278 623 c 0,19,20
 348 623 348 623 400 576 c 0,21,22
 452 529 452 529 452 458 c 0,23,24
 452 356 452 356 301 205 c 0,25,26
 237 142 237 142 149 74 c 1,27,-1
 430 73 l 1,28,-1
 464 128 l 1,29,-1
 519 127 l 1,0,-1
EndSplineSet
Validated: 1
EndChar

StartChar: three
Encoding: 51 51 108
Width: 550
Flags: W
LayerCount: 2
Fore
SplineSet
481 205 m 0,0,1
 481 136 481 136 399 64 c 128,-1,2
 317 -8 317 -8 250 -8 c 0,3,4
 207 -8 207 -8 157 14 c 128,-1,5
 107 36 107 36 81 58 c 1,6,-1
 140 118 l 1,7,8
 211 55 211 55 265 55 c 0,9,10
 319 56 319 56 363 86 c 128,-1,11
 407 116 407 116 407 157 c 0,12,13
 407 229 407 229 383 258 c 0,14,15
 346 301 346 301 232 301 c 0,16,17
 191 301 191 301 191 314 c 0,18,19
 190 324 190 324 194 329 c 128,-1,20
 198 334 198 334 220.5 341.5 c 128,-1,21
 243 349 243 349 289 368 c 1,22,23
 368 410 368 410 368 466 c 0,24,25
 368 555 368 555 277 555 c 0,26,27
 239 555 239 555 210 533 c 0,28,29
 192 519 192 519 176 494 c 128,-1,30
 160 469 160 469 155 469 c 0,31,32
 137 469 137 469 130.5 473.5 c 128,-1,33
 124 478 124 478 124 494 c 0,34,35
 124 528 124 528 176 576 c 0,36,37
 227 623 227 623 294 623 c 0,38,39
 295 623 295 623 297 623 c 0,40,41
 365 622 365 622 410 582 c 128,-1,42
 455 542 455 542 455 499 c 128,-1,43
 455 456 455 456 425 416 c 128,-1,44
 395 376 395 376 370 363 c 1,45,46
 431 346 431 346 460 292 c 0,47,48
 481 252 481 252 481 205 c 0,0,1
EndSplineSet
Validated: 1
EndChar

StartChar: four
Encoding: 52 52 109
Width: 550
Flags: W
LayerCount: 2
Fore
SplineSet
341 560 m 1,0,-1
 111 245 l 1,1,-1
 340 245 l 1,2,-1
 341 560 l 1,0,-1
499 245 m 1,3,-1
 482 178 l 1,4,-1
 413 178 l 1,5,-1
 414 23 l 1,6,-1
 343 -2 l 1,7,-1
 342 178 l 1,8,-1
 59 176 l 1,9,-1
 76 274 l 1,10,-1
 328 617 l 1,11,-1
 417 648 l 1,12,-1
 413 245 l 1,13,-1
 499 245 l 1,3,-1
EndSplineSet
Validated: 1
EndChar

StartChar: five
Encoding: 53 53 110
Width: 550
Flags: W
LayerCount: 2
Fore
SplineSet
479 624 m 1,0,-1
 459 552 l 1,1,-1
 221 552 l 1,2,-1
 181 480 l 1,3,4
 336 459 336 459 411 385 c 0,5,6
 472 324 472 324 472 237 c 0,7,8
 472 150 472 150 385 78 c 0,9,10
 298 6 298 6 209 5 c 0,11,12
 136 5 136 5 52 77 c 1,13,-1
 116 125 l 1,14,15
 151 104 151 104 186 83.5 c 128,-1,16
 221 63 221 63 249 63 c 0,17,18
 317 64 317 64 363 112 c 0,19,20
 409 160 409 160 409 204 c 0,21,22
 409 298 409 298 330 341 c 0,23,24
 269 375 269 375 167 375 c 0,25,26
 147 375 147 375 126 374 c 1,27,-1
 102 409 l 1,28,-1
 212 624 l 1,29,-1
 479 624 l 1,0,-1
EndSplineSet
Validated: 1
EndChar

StartChar: six
Encoding: 54 54 111
Width: 550
Flags: W
LayerCount: 2
Fore
SplineSet
205 112 m 128,-1,1
 249 60 249 60 304 58 c 0,2,3
 306 58 306 58 308 58 c 0,4,5
 360 58 360 58 388 96 c 0,6,7
 418 134 418 134 418 192 c 128,-1,8
 418 250 418 250 381.5 303 c 128,-1,9
 345 356 345 356 288 356 c 0,10,11
 247 356 247 356 212 335 c 0,12,13
 162 304 162 304 154 241 c 1,14,0
 161 164 161 164 205 112 c 128,-1,1
503 215 m 0,15,16
 503 124 503 124 450 67 c 0,17,18
 387 0 387 0 267 0 c 0,19,20
 193 0 193 0 126.5 78 c 128,-1,21
 60 156 60 156 60 253 c 0,22,23
 60 393 60 393 164 504 c 0,24,25
 280 628 280 628 460 628 c 1,26,-1
 460 592 l 1,27,28
 320 567 320 567 229 462 c 0,29,30
 191 418 191 418 166 361 c 1,31,32
 232 395 232 395 311.5 395 c 128,-1,33
 391 395 391 395 447 342 c 128,-1,34
 503 289 503 289 503 215 c 0,15,16
EndSplineSet
Validated: 1
EndChar

StartChar: seven
Encoding: 55 55 112
Width: 550
Flags: W
LayerCount: 2
Fore
SplineSet
491 624 m 1,0,-1
 480 586 l 1,1,-1
 285 -2 l 1,2,-1
 179 0 l 1,3,-1
 427 552 l 1,4,-1
 201 552 l 2,5,6
 117 552 117 552 106 459 c 1,7,-1
 57 459 l 1,8,9
 88 624 88 624 172 624 c 2,10,-1
 491 624 l 1,0,-1
EndSplineSet
Validated: 1
EndChar

StartChar: eight
Encoding: 56 56 113
Width: 550
Flags: W
LayerCount: 2
Fore
SplineSet
392 148 m 0,0,1
 392 225 392 225 250 297 c 1,2,3
 158 255 158 255 158 168 c 0,4,5
 158 124 158 124 203 86 c 128,-1,6
 248 48 248 48 292 48 c 0,7,8
 392 48 392 48 392 148 c 0,0,1
399 485 m 0,9,10
 398 530 398 530 368 554 c 0,11,12
 339 577 339 577 297 577 c 0,13,14
 296 577 296 577 294 577 c 0,15,16
 225 577 225 577 198 559.5 c 128,-1,17
 171 542 171 542 171 497 c 0,18,19
 171 442 171 442 296 375 c 1,20,21
 399 419 399 419 399 484 c 0,22,23
 399 484 399 484 399 485 c 0,9,10
478 170 m 0,24,25
 478 104 478 104 420 50 c 0,26,27
 363 -3 363 -3 281 -3 c 0,28,29
 280 -3 280 -3 278 -3 c 0,30,31
 194 -3 194 -3 137.5 42.5 c 128,-1,32
 81 88 81 88 81 161 c 0,33,34
 81 277 81 277 190 331 c 1,35,36
 136 364 136 364 110 397 c 128,-1,37
 84 430 84 430 84 476 c 0,38,39
 84 540 84 540 129 583 c 128,-1,40
 174 626 174 626 266 626 c 128,-1,41
 358 626 358 626 412 595 c 0,42,43
 464 564 464 564 464 497 c 128,-1,44
 464 430 464 430 416 386 c 0,45,46
 398 369 398 369 350 344 c 1,47,48
 478 277 478 277 478 170 c 0,24,25
EndSplineSet
Validated: 1
EndChar

StartChar: nine
Encoding: 57 57 114
Width: 550
Flags: W
LayerCount: 2
Fore
SplineSet
419 373 m 0,0,1
 419 377 419 377 419 381 c 0,2,3
 419 465 419 465 377 520 c 0,4,5
 333 578 333 578 263 578 c 0,6,7
 211 578 211 578 184 538 c 128,-1,8
 157 498 157 498 157 440.5 c 128,-1,9
 157 383 157 383 197.5 337 c 128,-1,10
 238 291 238 291 297 291 c 0,11,12
 332 291 332 291 375 314.5 c 128,-1,13
 418 338 418 338 419 373 c 0,0,1
505 394 m 0,14,15
 505 167 505 167 304 61 c 0,16,17
 220 17 220 17 102 1 c 1,18,-1
 103 36 l 1,19,20
 264 75 264 75 350 180 c 0,21,22
 386 224 386 224 404 278 c 1,23,24
 330 232 330 232 254 232 c 128,-1,25
 178 232 178 232 122 284 c 128,-1,26
 66 336 66 336 66 418.5 c 128,-1,27
 66 501 66 501 129.5 562 c 128,-1,28
 193 623 193 623 290 623 c 0,29,30
 367 623 367 623 436 556 c 128,-1,31
 505 489 505 489 505 394 c 0,14,15
EndSplineSet
Validated: 1
EndChar

StartChar: colon
Encoding: 58 58 115
Width: 236
Flags: W
LayerCount: 2
Fore
SplineSet
177 107 m 1,0,-1
 115 45 l 1,1,-1
 51 108 l 1,2,-1
 114 171 l 1,3,-1
 177 107 l 1,0,-1
177 432 m 1,4,-1
 115 370 l 1,5,-1
 51 433 l 1,6,-1
 114 496 l 1,7,-1
 177 432 l 1,4,-1
EndSplineSet
Validated: 1
EndChar

StartChar: semicolon
Encoding: 59 59 116
Width: 290
Flags: W
LayerCount: 2
Fore
SplineSet
268 75 m 1,0,1
 268 61 268 61 254.5 43 c 128,-1,2
 241 25 241 25 241 19 c 0,3,4
 241 17 241 17 241 16 c 0,5,6
 241 -59 241 -59 198 -112 c 0,7,8
 176 -140 176 -140 163 -140 c 0,9,10
 153 -140 153 -140 153 -123 c 0,11,12
 153 -122 153 -122 171.5 -89 c 128,-1,13
 190 -56 190 -56 190 -30 c 128,-1,14
 190 -4 190 -4 185 12.5 c 128,-1,15
 180 29 180 29 141 64 c 1,16,-1
 210 133 l 1,17,-1
 268 75 l 1,0,1
269 402 m 1,18,-1
 207 340 l 1,19,-1
 143 403 l 1,20,-1
 206 466 l 1,21,-1
 269 402 l 1,18,-1
EndSplineSet
Validated: 1
EndChar

StartChar: less
Encoding: 60 60 117
Width: 330
Flags: W
LayerCount: 2
Fore
SplineSet
259 13 m 1,0,-1
 -1 211 l 1,1,-1
 -1 293 l 1,2,-1
 255 486 l 1,3,-1
 255 404 l 1,4,-1
 57 249 l 1,5,-1
 259 90 l 1,6,-1
 259 13 l 1,0,-1
EndSplineSet
Validated: 1
EndChar

StartChar: equal
Encoding: 61 61 118
Width: 466
Flags: W
LayerCount: 2
Fore
SplineSet
407 195 m 1,0,-1
 65 195 l 1,1,-1
 65 233 l 1,2,-1
 407 233 l 1,3,-1
 407 195 l 1,0,-1
407 309 m 1,4,-1
 65 309 l 1,5,-1
 65 347 l 1,6,-1
 407 347 l 1,7,-1
 407 309 l 1,4,-1
EndSplineSet
Validated: 1
EndChar

StartChar: greater
Encoding: 62 62 119
Width: 330
Flags: W
LayerCount: 2
Fore
SplineSet
330 198 m 1,0,-1
 69 0 l 1,1,-1
 69 78 l 1,2,-1
 272 236 l 1,3,-1
 69 392 l 1,4,-1
 69 474 l 1,5,-1
 330 280 l 1,6,-1
 330 198 l 1,0,-1
EndSplineSet
Validated: 1
EndChar

StartChar: question
Encoding: 63 63 120
Width: 576
Flags: W
LayerCount: 2
Fore
SplineSet
462 52 m 1,0,-1
 406 -4 l 1,1,-1
 348 53 l 1,2,-1
 405 110 l 1,3,-1
 462 52 l 1,0,-1
577 541 m 0,4,5
 577 488 577 488 539 444 c 0,6,7
 518 419 518 419 474 388 c 0,8,9
 430 357 430 357 430 346 c 2,10,-1
 430 166 l 1,11,-1
 373 166 l 1,12,-1
 373 368 l 2,13,14
 373 398 373 398 411 429 c 0,15,16
 446 455 446 455 482 482 c 0,17,18
 520 516 520 516 520 556 c 0,19,20
 520 596 520 596 496 621.5 c 128,-1,21
 472 647 472 647 428 647 c 0,22,23
 384 647 384 647 349 606 c 1,24,-1
 299 636 l 1,25,26
 345 707 345 707 420 707 c 0,27,28
 495 707 495 707 536 663 c 128,-1,29
 577 619 577 619 577 541 c 0,4,5
EndSplineSet
Validated: 1
EndChar

StartChar: copyright
Encoding: 169 169 121
Width: 726
Flags: W
LayerCount: 2
Fore
SplineSet
524 258 m 1,0,1
 517 203 517 203 475.5 170.5 c 128,-1,2
 434 138 434 138 378 138 c 0,3,4
 300 138 300 138 252 189.5 c 128,-1,5
 204 241 204 241 204 318.5 c 128,-1,6
 204 396 204 396 251 446.5 c 128,-1,7
 298 497 298 497 377 497 c 0,8,9
 433 497 433 497 473.5 465 c 128,-1,10
 514 433 514 433 524 378 c 1,11,-1
 476 378 l 1,12,13
 460 449 460 449 376 449 c 0,14,15
 316 449 316 449 284 410 c 128,-1,16
 252 371 252 371 252 316 c 128,-1,17
 252 261 252 261 286 223.5 c 128,-1,18
 320 186 320 186 378 186 c 0,19,20
 457 186 457 186 476 258 c 1,21,-1
 524 258 l 1,0,1
552 127.5 m 128,-1,23
 631 205 631 205 631 314.5 c 128,-1,24
 631 424 631 424 552 501 c 128,-1,25
 473 578 473 578 365 578 c 128,-1,26
 257 578 257 578 178.5 501 c 128,-1,27
 100 424 100 424 100 314.5 c 128,-1,28
 100 205 100 205 178.5 127.5 c 128,-1,29
 257 50 257 50 365 50 c 128,-1,22
 473 50 473 50 552 127.5 c 128,-1,23
679 314 m 128,-1,31
 679 184 679 184 587.5 93 c 128,-1,32
 496 2 496 2 365 2 c 128,-1,33
 234 2 234 2 143 93 c 128,-1,34
 52 184 52 184 52 314.5 c 128,-1,35
 52 445 52 445 143 535.5 c 128,-1,36
 234 626 234 626 365 626 c 128,-1,37
 496 626 496 626 587.5 535 c 128,-1,30
 679 444 679 444 679 314 c 128,-1,31
EndSplineSet
Validated: 1
EndChar

StartChar: registered
Encoding: 174 174 122
Width: 726
Flags: W
LayerCount: 2
Fore
SplineSet
470 395 m 0,0,1
 470 437 470 437 387 437 c 2,2,-1
 296 437 l 1,3,-1
 296 349 l 1,4,-1
 353 349 l 2,5,6
 414 349 414 349 428 352 c 0,7,8
 470 360 470 360 470 395 c 0,0,1
518 395 m 128,-1,10
 518 305 518 305 410 301 c 1,11,-1
 513 143 l 1,12,-1
 456 143 l 1,13,-1
 353 301 l 1,14,-1
 296 301 l 1,15,-1
 296 143 l 1,16,-1
 248 143 l 1,17,-1
 248 485 l 1,18,-1
 397 485 l 2,19,9
 518 485 518 485 518 395 c 128,-1,10
630 312 m 128,-1,21
 630 421 630 421 551.5 498.5 c 128,-1,22
 473 576 473 576 364.5 576 c 128,-1,23
 256 576 256 576 177.5 499 c 128,-1,24
 99 422 99 422 99 312 c 128,-1,25
 99 202 99 202 177.5 125 c 128,-1,26
 256 48 256 48 364.5 48 c 128,-1,27
 473 48 473 48 551.5 125.5 c 128,-1,20
 630 203 630 203 630 312 c 128,-1,21
587 533.5 m 128,-1,29
 678 443 678 443 678 312.5 c 128,-1,30
 678 182 678 182 587 91 c 128,-1,31
 496 0 496 0 364.5 0 c 128,-1,32
 233 0 233 0 142 91 c 128,-1,33
 51 182 51 182 51 312.5 c 128,-1,34
 51 443 51 443 142 533.5 c 128,-1,35
 233 624 233 624 364.5 624 c 128,-1,28
 496 624 496 624 587 533.5 c 128,-1,29
EndSplineSet
Validated: 1
EndChar

StartChar: bracketleft
Encoding: 91 91 123
Width: 596
Flags: W
LayerCount: 2
Fore
SplineSet
532 604 m 2,0,-1
 400 604 l 2,1,2
 369 604 369 604 356 593 c 128,-1,3
 343 582 343 582 332 549 c 2,4,-1
 140 -5 l 2,5,6
 134 -23 134 -23 134 -33 c 0,7,8
 134 -54 134 -54 173 -54 c 2,9,-1
 286 -54 l 2,10,11
 313 -54 313 -54 313 -81 c 128,-1,12
 313 -108 313 -108 286 -108 c 2,13,-1
 179 -108 l 2,14,15
 78 -108 78 -108 78 -34 c 0,16,17
 78 -15 78 -15 86 7 c 2,18,-1
 280 568 l 2,19,20
 299 624 299 624 330 641 c 0,21,22
 361 658 361 658 424 658 c 2,23,-1
 532 658 l 2,24,25
 559 658 559 658 559 631 c 128,-1,26
 559 604 559 604 532 604 c 2,0,-1
EndSplineSet
Validated: 1
EndChar

StartChar: backslash
Encoding: 92 92 124
Width: 480
Flags: W
LayerCount: 2
Fore
SplineSet
392 -30 m 2,0,1
 395 -44 395 -44 386 -53 c 128,-1,2
 377 -62 377 -62 364 -62 c 0,3,4
 342 -62 342 -62 338 -40 c 2,5,-1
 199 675 l 2,6,7
 196 689 196 689 205 698 c 128,-1,8
 214 707 214 707 227 707 c 0,9,10
 249 707 249 707 253 685 c 2,11,-1
 392 -30 l 2,0,1
EndSplineSet
Validated: 1
EndChar

StartChar: bracketright
Encoding: 93 93 125
Width: 548
Flags: W
LayerCount: 2
Fore
SplineSet
532 547 m 2,0,-1
 338 -14 l 2,1,2
 318 -70 318 -70 288 -87 c 0,3,4
 258 -104 258 -104 198 -104 c 2,5,-1
 86 -104 l 2,6,7
 59 -104 59 -104 59 -77 c 128,-1,8
 59 -50 59 -50 86 -50 c 2,9,-1
 218 -50 l 2,10,11
 249 -50 249 -50 262 -39 c 128,-1,12
 275 -28 275 -28 286 5 c 2,13,-1
 478 559 l 2,14,15
 484 577 484 577 484 587 c 0,16,17
 484 608 484 608 445 608 c 2,18,-1
 332 608 l 2,19,20
 305 608 305 608 305 635 c 128,-1,21
 305 662 305 662 332 662 c 2,22,-1
 439 662 l 2,23,24
 540 662 540 662 540 588 c 0,25,26
 540 569 540 569 532 547 c 2,0,-1
EndSplineSet
Validated: 1
EndChar

StartChar: sterling
Encoding: 163 163 126
Width: 558
Flags: W
LayerCount: 2
Fore
SplineSet
185 87 m 1,0,1
 169 103 169 103 149 103 c 128,-1,2
 129 103 129 103 115.5 93.5 c 128,-1,3
 102 84 102 84 102 69 c 0,4,5
 102 36 102 36 131 36 c 0,6,7
 152 36 152 36 167 53.5 c 128,-1,8
 182 71 182 71 185 87 c 1,0,1
522 123 m 1,9,10
 516 67 516 67 472.5 26.5 c 128,-1,11
 429 -14 429 -14 384 -14 c 128,-1,12
 339 -14 339 -14 301.5 8.5 c 128,-1,13
 264 31 264 31 243 57 c 1,14,15
 187 -18 187 -18 132 -18 c 0,16,17
 97 -18 97 -18 72.5 10 c 128,-1,18
 48 38 48 38 48 74 c 128,-1,19
 48 110 48 110 77 133 c 128,-1,20
 106 156 106 156 142.5 156 c 128,-1,21
 179 156 179 156 217 132 c 1,22,23
 217 141 217 141 217 149 c 0,24,25
 217 230 217 230 191 279 c 1,26,-1
 84 279 l 1,27,-1
 84 336 l 1,28,-1
 176 336 l 1,29,30
 159 389 159 389 159 461 c 128,-1,31
 159 533 159 533 208.5 586 c 128,-1,32
 258 639 258 639 324.5 639 c 128,-1,33
 391 639 391 639 438.5 588 c 128,-1,34
 486 537 486 537 486 486 c 1,35,-1
 405 465 l 1,36,37
 405 470 405 470 405 475 c 0,38,39
 405 525 405 525 387 556 c 0,40,41
 366 594 366 594 325 594 c 128,-1,42
 284 594 284 594 262 556.5 c 128,-1,43
 240 519 240 519 240 477 c 128,-1,44
 240 435 240 435 251.5 393 c 128,-1,45
 263 351 263 351 272 336 c 1,46,-1
 399 336 l 1,47,-1
 399 276 l 1,48,-1
 280 276 l 1,49,50
 282 257 282 257 282 236 c 0,51,52
 282 180 282 180 268 116 c 1,53,54
 313 67 313 67 378 67 c 128,-1,55
 443 67 443 67 477 131 c 1,56,-1
 522 123 l 1,9,10
EndSplineSet
Validated: 1
EndChar

StartChar: divide
Encoding: 247 247 127
Width: 647
Flags: W
LayerCount: 2
Fore
SplineSet
383 70 m 128,-1,1
 383 45 383 45 365.5 28 c 128,-1,2
 348 11 348 11 324 11 c 128,-1,3
 300 11 300 11 282 28 c 128,-1,4
 264 45 264 45 264 70 c 0,5,6
 264 94 264 94 282 112 c 128,-1,7
 300 130 300 130 324 130 c 128,-1,8
 348 130 348 130 365.5 112.5 c 128,-1,0
 383 95 383 95 383 70 c 128,-1,1
578 228 m 1,9,-1
 69 228 l 1,10,-1
 69 310 l 1,11,-1
 578 310 l 1,12,-1
 578 228 l 1,9,-1
383 467 m 128,-1,14
 383 442 383 442 365.5 424.5 c 128,-1,15
 348 407 348 407 324 407 c 128,-1,16
 300 407 300 407 282 424.5 c 128,-1,17
 264 442 264 442 264 467 c 128,-1,18
 264 492 264 492 282 510 c 0,19,20
 300 528 300 528 323 528 c 0,21,22
 323 528 323 528 324 528 c 0,23,24
 348 528 348 528 365.5 510 c 128,-1,13
 383 492 383 492 383 467 c 128,-1,14
EndSplineSet
Validated: 1
EndChar

StartChar: uni0A03
Encoding: 2563 2563 129
Width: 350
VWidth: 1169
Flags: W
LayerCount: 2
Fore
SplineSet
158.5 493 m 128,-1,1
 196 493 196 493 223 465 c 128,-1,2
 250 437 250 437 250 400 c 128,-1,3
 250 363 250 363 222.5 336 c 128,-1,4
 195 309 195 309 158 309 c 2,5,-1
 157 309 l 2,6,7
 120 309 120 309 93 336 c 128,-1,8
 66 363 66 363 66 401 c 128,-1,9
 66 439 66 439 93.5 466 c 128,-1,0
 121 493 121 493 158.5 493 c 128,-1,1
157 352 m 1,10,11
 177 353 177 353 192 367.5 c 128,-1,12
 207 382 207 382 207 401.5 c 128,-1,13
 207 421 207 421 192.5 435.5 c 128,-1,14
 178 450 178 450 158 450 c 2,15,-1
 157 450 l 2,16,17
 137 450 137 450 123 435 c 128,-1,18
 109 420 109 420 109 400.5 c 128,-1,19
 109 381 109 381 123 367 c 128,-1,20
 137 353 137 353 156 352 c 1,21,-1
 157 352 l 1,10,11
160.5 241 m 128,-1,23
 198 241 198 241 225 213 c 128,-1,24
 252 185 252 185 252 148 c 128,-1,25
 252 111 252 111 225 84 c 128,-1,26
 198 57 198 57 160 57 c 2,27,-1
 159 57 l 2,28,29
 122 57 122 57 95 84 c 128,-1,30
 68 111 68 111 68 149 c 128,-1,31
 68 187 68 187 95.5 214 c 128,-1,22
 123 241 123 241 160.5 241 c 128,-1,23
160 100 m 0,32,33
 180 101 180 101 194.5 115.5 c 128,-1,34
 209 130 209 130 209 149.5 c 128,-1,35
 209 169 209 169 194.5 183.5 c 128,-1,36
 180 198 180 198 160 198 c 2,37,-1
 159 198 l 2,38,39
 139 198 139 198 125 183 c 128,-1,40
 111 168 111 168 111 148.5 c 128,-1,41
 111 129 111 129 125.5 115 c 128,-1,42
 140 101 140 101 158 100 c 0,43,44
 159 100 159 100 160 100 c 0,32,33
EndSplineSet
Validated: 1
EndChar

StartChar: uni0A3C
Encoding: 2620 2620 130
Width: 702
Flags: W
LayerCount: 2
Fore
SplineSet
-284 -69.5 m 128,-1,1
 -268 -86 -268 -86 -268 -108.5 c 128,-1,2
 -268 -131 -268 -131 -284 -147 c 128,-1,3
 -300 -163 -300 -163 -322.5 -163 c 128,-1,4
 -345 -163 -345 -163 -361.5 -147 c 128,-1,5
 -378 -131 -378 -131 -378 -108.5 c 128,-1,6
 -378 -86 -378 -86 -361.5 -69.5 c 128,-1,7
 -345 -53 -345 -53 -322.5 -53 c 128,-1,0
 -300 -53 -300 -53 -284 -69.5 c 128,-1,1
EndSplineSet
Validated: 1
EndChar

StartChar: uni25CC
Encoding: 9676 9676 131
Width: 391
VWidth: 559
Flags: W
LayerCount: 2
Fore
SplineSet
79 270 m 1,0,1
 82 250 82 250 86 241 c 1,2,-1
 59 226 l 1,3,4
 50 247 50 247 47 270 c 1,5,-1
 79 270 l 1,0,1
306 242 m 1,6,7
 311 255 311 255 314 270 c 1,8,-1
 345 270 l 1,9,10
 342 249 342 249 333 227 c 1,11,-1
 306 242 l 1,6,7
269 193 m 1,12,13
 283 203 283 203 290 213 c 1,14,-1
 317 198 l 1,15,16
 305 182 305 182 284 166 c 1,17,-1
 269 193 l 1,12,13
102 213 m 1,18,19
 112 200 112 200 123 192 c 1,20,-1
 108 165 l 1,21,22
 89 179 89 179 75 198 c 1,23,-1
 102 213 l 1,18,19
124 380 m 1,24,25
 110 370 110 370 102 359 c 1,26,-1
 76 374 l 1,27,28
 91 395 91 395 108 407 c 1,29,-1
 124 380 l 1,24,25
48 303 m 1,30,31
 51 328 51 328 59 346 c 1,32,-1
 86 331 l 1,33,34
 83 322 83 322 79 303 c 1,35,-1
 48 303 l 1,30,31
180 403 m 1,36,37
 161 400 161 400 152 397 c 1,38,-1
 136 423 l 1,39,40
 160 432 160 432 180 435 c 1,41,-1
 180 403 l 1,36,37
213 169 m 1,42,43
 228 172 228 172 241 176 c 1,44,-1
 256 149 l 1,45,46
 242 143 242 143 213 138 c 1,47,-1
 213 169 l 1,42,43
151 176 m 1,48,49
 166 169 166 169 180 168 c 1,50,-1
 180 138 l 1,51,52
 154 141 154 141 136 149 c 1,53,-1
 151 176 l 1,48,49
314 303 m 1,54,55
 310 317 310 317 306 330 c 1,56,-1
 333 346 l 1,57,58
 342 326 342 326 345 303 c 1,59,-1
 314 303 l 1,54,55
290 359 m 1,60,61
 277 373 277 373 269 380 c 1,62,-1
 284 406 l 1,63,64
 303 391 303 391 316 374 c 1,65,-1
 290 359 l 1,60,61
241 396 m 1,66,67
 227 401 227 401 213 403 c 1,68,-1
 213 434 l 1,69,70
 234 431 234 431 256 422 c 1,71,-1
 241 396 l 1,66,67
EndSplineSet
Validated: 1
EndChar

StartChar: _uni0A02
Encoding: 65547 -1 132
Width: 92
Flags: W
LayerCount: 2
Fore
SplineSet
61 761 m 128,-1,1
 77 745 77 745 77 722.5 c 128,-1,2
 77 700 77 700 61 683.5 c 128,-1,3
 45 667 45 667 22 667 c 128,-1,4
 -1 667 -1 667 -17 683.5 c 128,-1,5
 -33 700 -33 700 -33 722.5 c 128,-1,6
 -33 745 -33 745 -17 761 c 128,-1,7
 -1 777 -1 777 22 777 c 128,-1,0
 45 777 45 777 61 761 c 128,-1,1
EndSplineSet
Validated: 1
EndChar

StartChar: _uni0A71
Encoding: 65579 -1 153
Width: 150
Flags: W
LayerCount: 2
Fore
SplineSet
189 525 m 1,0,-1
 -27 525 l 1,1,-1
 -27 604 l 1,2,-1
 189 604 l 1,3,-1
 189 525 l 1,0,-1
145 841 m 0,4,5
 145 841 145 841 146 841 c 0,6,7
 162 841 162 841 162 802 c 0,8,9
 162 762 162 762 141 727 c 0,10,11
 105 667 105 667 25 667 c 128,-1,12
 -55 667 -55 667 -91 737 c 0,13,14
 -109 773 -109 773 -109 807 c 128,-1,15
 -109 841 -109 841 -93 841 c 0,16,17
 -93 841 -93 841 -93 841 c 0,18,19
 -86 841 -86 841 -72 806 c 0,20,21
 -58 770 -58 770 -56 768 c 0,22,23
 -34 729 -34 729 28 729 c 0,24,25
 73 729 73 729 105 766 c 0,26,27
 112 774 112 774 124 808 c 0,28,29
 136 841 136 841 144 841 c 0,30,-1
 145 841 l 0,4,5
EndSplineSet
Validated: 5
EndChar

StartChar: uni0A32_uni0A42
Encoding: 65582 -1 154
Width: 702
Flags: W
LayerCount: 2
Fore
SplineSet
414 525 m 1,0,-1
 224 525 l 1,1,2
 228 479 228 479 252 411 c 128,-1,3
 276 343 276 343 307 343 c 0,4,5
 343 343 343 343 379 408 c 0,6,7
 414 471 414 471 414 522 c 0,8,9
 414 524 414 524 414 525 c 1,0,-1
501 -248 m 1,10,11
 440 -264 440 -264 313 -264 c 128,-1,12
 186 -264 186 -264 133 -247 c 1,13,-1
 133 -174 l 1,14,15
 157 -184 157 -184 228 -191 c 128,-1,16
 299 -198 299 -198 324 -198 c 128,-1,17
 349 -198 349 -198 413 -191 c 128,-1,18
 477 -184 477 -184 501 -174 c 1,19,-1
 501 -248 l 1,10,11
499 -117 m 1,20,21
 438 -133 438 -133 311 -133 c 128,-1,22
 184 -133 184 -133 131 -116 c 1,23,-1
 131 -43 l 1,24,25
 155 -53 155 -53 226 -60 c 128,-1,26
 297 -67 297 -67 322 -67 c 128,-1,27
 347 -67 347 -67 411 -60 c 128,-1,28
 475 -53 475 -53 499 -43 c 1,29,-1
 499 -117 l 1,20,21
730 525 m 1,30,-1
 504 525 l 1,31,32
 480 411 480 411 457 373 c 1,33,34
 605 322 605 322 605 199 c 0,35,36
 605 107 605 107 530 48 c 0,37,38
 468 -1 468 -1 404 -1 c 2,39,-1
 396 -1 l 1,40,-1
 396 78 l 1,41,-1
 403 78 l 2,42,43
 436 78 436 78 466 94 c 0,44,45
 523 123 523 123 523 194 c 0,46,47
 523 236 523 236 492 268.5 c 128,-1,48
 461 301 461 301 419 301 c 0,49,50
 399 301 399 301 359 249 c 128,-1,51
 319 197 319 197 307 197 c 128,-1,52
 295 197 295 197 280 228 c 128,-1,53
 265 259 265 259 257 270 c 0,54,55
 236 295 236 295 202 295 c 128,-1,56
 168 295 168 295 141.5 259.5 c 128,-1,57
 115 224 115 224 115 185 c 0,58,59
 115 124 115 124 175 96 c 0,60,61
 209 79 209 79 237 79 c 2,62,-1
 244 79 l 1,63,-1
 244 0 l 1,64,-1
 238 0 l 2,65,66
 186 0 186 0 120 43 c 0,67,68
 33 100 33 100 33 191 c 0,69,70
 33 324 33 324 180 373 c 1,71,72
 166 393 166 393 150 445 c 128,-1,73
 134 497 134 497 132 525 c 1,74,-1
 1 525 l 1,75,-1
 1 604 l 1,76,-1
 730 604 l 1,77,-1
 730 525 l 1,30,-1
EndSplineSet
Validated: 1
LCarets2: 1 0
Ligature2: "'blws' Below Base Substitutions in Gurmukhi lookup 2 subtable" uni0A32 uni0A42
EndChar

StartChar: uni0A32_uni0A70
Encoding: 65583 -1 155
Width: 702
Flags: W
LayerCount: 2
Fore
SplineSet
414 525 m 1,0,-1
 224 525 l 1,1,2
 228 479 228 479 252 411 c 128,-1,3
 276 343 276 343 307 343 c 0,4,5
 343 343 343 343 379 408 c 0,6,7
 414 471 414 471 414 522 c 0,8,9
 414 524 414 524 414 525 c 1,0,-1
730 525 m 1,10,-1
 504 525 l 1,11,12
 480 411 480 411 457 373 c 1,13,14
 605 322 605 322 605 199 c 0,15,16
 605 107 605 107 530 48 c 0,17,18
 468 -1 468 -1 404 -1 c 2,19,-1
 396 -1 l 1,20,-1
 396 78 l 1,21,-1
 403 78 l 2,22,23
 436 78 436 78 466 94 c 0,24,25
 523 123 523 123 523 194 c 0,26,27
 523 236 523 236 492 268.5 c 128,-1,28
 461 301 461 301 419 301 c 0,29,30
 399 301 399 301 359 249 c 128,-1,31
 319 197 319 197 307 197 c 128,-1,32
 295 197 295 197 280 228 c 128,-1,33
 265 259 265 259 257 270 c 0,34,35
 236 295 236 295 202 295 c 128,-1,36
 168 295 168 295 141.5 259.5 c 128,-1,37
 115 224 115 224 115 185 c 0,38,39
 115 124 115 124 175 96 c 0,40,41
 209 79 209 79 237 79 c 2,42,-1
 244 79 l 1,43,-1
 244 0 l 1,44,-1
 238 0 l 2,45,46
 186 0 186 0 120 43 c 0,47,48
 33 100 33 100 33 191 c 0,49,50
 33 324 33 324 180 373 c 1,51,52
 166 393 166 393 150 445 c 128,-1,53
 134 497 134 497 132 525 c 1,54,-1
 1 525 l 1,55,-1
 1 604 l 1,56,-1
 730 604 l 1,57,-1
 730 525 l 1,10,-1
412 751 m 0,58,59
 412 666 412 666 349 666 c 0,60,61
 339 666 339 666 339 678 c 0,62,63
 339 684 339 684 344 705 c 128,-1,64
 349 726 349 726 349 737 c 0,65,66
 349 737 349 737 349 738 c 0,67,68
 349 775 349 775 298 775 c 0,69,70
 246 775 246 775 246 725 c 0,71,72
 246 714 246 714 254.5 693.5 c 128,-1,73
 263 673 263 673 263 669 c 128,-1,74
 263 665 263 665 259 665 c 0,75,76
 234 665 234 665 214.5 691 c 128,-1,77
 195 717 195 717 195 753 c 0,78,79
 196 790 196 790 230 816 c 128,-1,80
 264 842 264 842 308 842 c 128,-1,81
 352 842 352 842 382 816 c 128,-1,82
 412 790 412 790 412 751 c 0,58,59
EndSplineSet
Validated: 1
LCarets2: 1 0
Ligature2: "'abvs' Above Base Substitutions in Gurmukhi lookup 3 subtable" uni0A32 uni0A70
EndChar

StartChar: uni0A32_uni0A41
Encoding: 65584 -1 156
Width: 702
Flags: W
LayerCount: 2
Fore
SplineSet
414 525 m 1,0,-1
 224 525 l 1,1,2
 228 479 228 479 252 411 c 128,-1,3
 276 343 276 343 307 343 c 0,4,5
 343 343 343 343 379 408 c 0,6,7
 414 471 414 471 414 522 c 0,8,9
 414 524 414 524 414 525 c 1,0,-1
499 -137 m 1,10,11
 438 -153 438 -153 311 -153 c 128,-1,12
 184 -153 184 -153 131 -136 c 1,13,-1
 131 -63 l 1,14,15
 155 -73 155 -73 226 -80 c 128,-1,16
 297 -87 297 -87 322 -87 c 128,-1,17
 347 -87 347 -87 411 -80 c 128,-1,18
 475 -73 475 -73 499 -63 c 1,19,-1
 499 -137 l 1,10,11
730 525 m 1,20,-1
 504 525 l 1,21,22
 480 411 480 411 457 373 c 1,23,24
 605 322 605 322 605 199 c 0,25,26
 605 107 605 107 530 48 c 0,27,28
 468 -1 468 -1 404 -1 c 2,29,-1
 396 -1 l 1,30,-1
 396 78 l 1,31,-1
 403 78 l 2,32,33
 436 78 436 78 466 94 c 0,34,35
 523 123 523 123 523 194 c 0,36,37
 523 236 523 236 492 268.5 c 128,-1,38
 461 301 461 301 419 301 c 0,39,40
 399 301 399 301 359 249 c 128,-1,41
 319 197 319 197 307 197 c 128,-1,42
 295 197 295 197 280 228 c 128,-1,43
 265 259 265 259 257 270 c 0,44,45
 236 295 236 295 202 295 c 128,-1,46
 168 295 168 295 141.5 259.5 c 128,-1,47
 115 224 115 224 115 185 c 0,48,49
 115 124 115 124 175 96 c 0,50,51
 209 79 209 79 237 79 c 2,52,-1
 244 79 l 1,53,-1
 244 0 l 1,54,-1
 238 0 l 2,55,56
 186 0 186 0 120 43 c 0,57,58
 33 100 33 100 33 191 c 0,59,60
 33 324 33 324 180 373 c 1,61,62
 166 393 166 393 150 445 c 128,-1,63
 134 497 134 497 132 525 c 1,64,-1
 1 525 l 1,65,-1
 1 604 l 1,66,-1
 730 604 l 1,67,-1
 730 525 l 1,20,-1
EndSplineSet
Validated: 1
LCarets2: 1 0
Ligature2: "'blws' Below Base Substitutions in Gurmukhi lookup 2 subtable" uni0A32 uni0A41
EndChar

StartChar: uni0A1A_uni0A41
Encoding: 65585 -1 157
Width: 642
Flags: W
LayerCount: 2
Fore
SplineSet
466 137 m 2,0,-1
 466 262 l 1,1,-1
 202 262 l 1,2,3
 203 244 203 244 209 221 c 0,4,5
 218 184 218 184 260 142 c 0,6,7
 318 83 318 83 393 83 c 0,8,9
 394 83 394 83 395 83 c 0,10,11
 415 83 415 83 440 98 c 0,12,13
 466 114 466 114 466 137 c 2,0,-1
555 -122 m 1,14,15
 494 -138 494 -138 367 -138 c 128,-1,16
 240 -138 240 -138 187 -121 c 1,17,-1
 187 -48 l 1,18,19
 211 -58 211 -58 282 -65 c 128,-1,20
 353 -72 353 -72 378 -72 c 128,-1,21
 403 -72 403 -72 467 -65 c 128,-1,22
 531 -58 531 -58 555 -48 c 1,23,-1
 555 -122 l 1,14,15
681 525 m 1,24,-1
 551 525 l 1,25,-1
 551 135 l 2,26,27
 551 74 551 74 507 36.5 c 128,-1,28
 463 -1 463 -1 385 -1 c 128,-1,29
 307 -1 307 -1 230.5 58 c 128,-1,30
 154 117 154 117 122 212 c 0,31,32
 112 240 112 240 110 262 c 1,33,-1
 30 262 l 1,34,35
 30 287 30 287 34 308 c 0,36,37
 42 359 42 359 63 382 c 0,38,39
 97 419 97 419 173 419 c 0,40,41
 189 419 189 419 202 417 c 1,42,-1
 202 340 l 1,43,-1
 466 340 l 1,44,-1
 466 525 l 1,45,-1
 1 525 l 1,46,-1
 1 604 l 1,47,-1
 681 604 l 1,48,-1
 681 525 l 1,24,-1
EndSplineSet
Validated: 1
LCarets2: 1 0
Ligature2: "'blws' Below Base Substitutions in Gurmukhi lookup 2 subtable" uni0A1A uni0A41
EndChar

StartChar: uni0A3E_uni0A02
Encoding: 65592 -1 160
Width: 310
Flags: W
LayerCount: 2
Fore
SplineSet
349 525 m 1,0,-1
 171 525 l 1,1,-1
 171 241 l 1,2,-1
 86 241 l 1,3,-1
 86 525 l 1,4,-1
 -40 525 l 1,5,-1
 -40 604 l 1,6,-1
 349 604 l 1,7,-1
 349 525 l 1,0,-1
172 761 m 128,-1,9
 188 745 188 745 188 722.5 c 128,-1,10
 188 700 188 700 172 683.5 c 128,-1,11
 156 667 156 667 133.5 667 c 128,-1,12
 111 667 111 667 94.5 683.5 c 128,-1,13
 78 700 78 700 78 722.5 c 128,-1,14
 78 745 78 745 94.5 761 c 128,-1,15
 111 777 111 777 133.5 777 c 128,-1,8
 156 777 156 777 172 761 c 128,-1,9
EndSplineSet
Validated: 1
LCarets2: 1 0
Ligature2: "'abvs' Above Base Substitutions in Gurmukhi lookup 3 subtable" uni0A3E uni0A02
EndChar

StartChar: _uni0A70
Encoding: 65586 -1 163
Width: 46
Flags: W
LayerCount: 2
Fore
SplineSet
-329 679 m 1,0,-1
 -319 741 l 1,1,2
 -319 781 -319 781 -373 781 c 128,-1,3
 -427 781 -427 781 -427 729 c 0,4,5
 -427 718 -427 718 -418.5 696.5 c 128,-1,6
 -410 675 -410 675 -410 670.5 c 128,-1,7
 -410 666 -410 666 -414 666 c 0,8,9
 -440 666 -440 666 -460.5 693.5 c 128,-1,10
 -481 721 -481 721 -481 758.5 c 128,-1,11
 -481 796 -481 796 -444.5 824 c 128,-1,12
 -408 852 -408 852 -363 852 c 128,-1,13
 -318 852 -318 852 -285.5 824.5 c 128,-1,14
 -253 797 -253 797 -253 756 c 0,15,16
 -253 667 -253 667 -319 667 c 0,17,18
 -329 667 -329 667 -329 679 c 1,0,-1
EndSplineSet
Validated: 1
EndChar

StartChar: uni200C
Encoding: 8204 8204 171
Width: 0
VWidth: 1104
Flags: W
LayerCount: 2
Fore
SplineSet
-12 599 m 1,0,-1
 11 599 l 1,1,-1
 11 2 l 1,2,-1
 -12 2 l 1,3,-1
 -12 599 l 1,0,-1
EndSplineSet
Validated: 1
EndChar

StartChar: uni200D
Encoding: 8205 8205 172
Width: 0
VWidth: 1168
Flags: W
LayerCount: 2
Fore
SplineSet
11 562 m 1,0,-1
 11 6 l 1,1,-1
 -12 6 l 1,2,-1
 -12 562 l 1,3,-1
 -55 518 l 1,4,-1
 -70 534 l 1,5,-1
 -15 588 l 1,6,-1
 -70 642 l 1,7,-1
 -55 658 l 1,8,-1
 0 603 l 1,9,-1
 55 658 l 1,10,-1
 70 642 l 1,11,-1
 15 588 l 1,12,-1
 70 534 l 1,13,-1
 55 518 l 1,14,-1
 11 562 l 1,0,-1
EndSplineSet
Validated: 1
EndChar

StartChar: quotedblleft
Encoding: 8220 8220 173
Width: 578
Flags: W
LayerCount: 2
Fore
SplineSet
196 722 m 0,0,1
 246 768 246 768 282 783 c 0,2,3
 304 792 304 792 315 792 c 0,4,5
 323 792 323 792 326 788 c 0,6,7
 334 778 334 778 334 766 c 128,-1,8
 334 754 334 754 316.5 743.5 c 128,-1,9
 299 733 299 733 245 694 c 0,10,11
 207 664 207 664 198 624 c 1,12,13
 237 606 237 606 237 576.5 c 128,-1,14
 237 547 237 547 218 531.5 c 128,-1,15
 199 516 199 516 173 516 c 0,16,17
 119 516 119 516 119 576 c 0,18,19
 119 589 119 589 123 602 c 0,20,21
 146 676 146 676 196 722 c 0,0,1
366 722 m 0,22,23
 416 768 416 768 452 783 c 0,24,25
 474 792 474 792 485 792 c 0,26,27
 493 792 493 792 496 788 c 0,28,29
 504 778 504 778 504 766 c 128,-1,30
 504 754 504 754 486.5 743.5 c 128,-1,31
 469 733 469 733 415 694 c 0,32,33
 377 664 377 664 368 624 c 1,34,35
 407 606 407 606 407 576.5 c 128,-1,36
 407 547 407 547 388 531.5 c 128,-1,37
 369 516 369 516 343 516 c 0,38,39
 289 516 289 516 289 576 c 0,40,41
 289 589 289 589 293 602 c 0,42,43
 316 676 316 676 366 722 c 0,22,23
EndSplineSet
Validated: 1
EndChar

StartChar: quotedblright
Encoding: 8221 8221 174
Width: 578
Flags: W
LayerCount: 2
Fore
SplineSet
439 704 m 0,0,1
 416 630 416 630 366 584 c 0,2,3
 316 538 316 538 280 523 c 0,4,5
 258 514 258 514 247 514 c 0,6,7
 239 514 239 514 236 518 c 0,8,9
 228 528 228 528 228 540 c 128,-1,10
 228 552 228 552 246 564 c 0,11,12
 263 573 263 573 317 612 c 0,13,14
 355 642 355 642 364 682 c 1,15,16
 325 700 325 700 325 729.5 c 128,-1,17
 325 759 325 759 344 774.5 c 128,-1,18
 363 790 363 790 389 790 c 0,19,20
 443 790 443 790 443 730 c 0,21,22
 443 717 443 717 439 704 c 0,0,1
609 704 m 0,23,24
 586 630 586 630 536 584 c 0,25,26
 486 538 486 538 450 523 c 0,27,28
 428 514 428 514 417 514 c 0,29,30
 409 514 409 514 406 518 c 0,31,32
 398 528 398 528 398 540 c 128,-1,33
 398 552 398 552 416 564 c 0,34,35
 433 573 433 573 487 612 c 0,36,37
 525 642 525 642 534 682 c 1,38,39
 495 700 495 700 495 729.5 c 128,-1,40
 495 759 495 759 514 774.5 c 128,-1,41
 533 790 533 790 559 790 c 0,42,43
 613 790 613 790 613 730 c 0,44,45
 613 717 613 717 609 704 c 0,23,24
EndSplineSet
Validated: 1
EndChar

StartChar: uni2010
Encoding: 8208 8208 175
Width: 538
Flags: W
LayerCount: 2
Fore
SplineSet
463 320 m 1,0,-1
 51 320 l 1,1,-1
 51 377 l 1,2,-1
 463 377 l 1,3,-1
 463 320 l 1,0,-1
EndSplineSet
Validated: 1
EndChar

StartChar: endash
Encoding: 8211 8211 176
Width: 392
Flags: W
LayerCount: 2
Fore
SplineSet
355 320 m 1,0,-1
 51 320 l 1,1,-1
 51 377 l 1,2,-1
 355 377 l 1,3,-1
 355 320 l 1,0,-1
EndSplineSet
Validated: 1
EndChar

StartChar: emdash
Encoding: 8212 8212 177
Width: 827
Flags: W
LayerCount: 2
Fore
SplineSet
775 320 m 1,0,-1
 51 320 l 1,1,-1
 51 377 l 1,2,-1
 775 377 l 1,3,-1
 775 320 l 1,0,-1
EndSplineSet
Validated: 1
EndChar

StartChar: quoteleft
Encoding: 8216 8216 178
Width: 250
Flags: W
LayerCount: 2
Fore
SplineSet
181 779 m 1,0,1
 156 760 156 760 92 700 c 0,2,3
 59 666 59 666 57 624 c 1,4,5
 149 620 149 620 149 562 c 0,6,7
 149 535 149 535 130.5 512.5 c 128,-1,8
 112 490 112 490 86 490 c 0,9,10
 1 490 1 490 1 588 c 0,11,12
 1 652 1 652 61 728 c 0,13,14
 80 752 80 752 118 780 c 0,15,16
 156 808 156 808 163 808 c 0,17,18
 170 808 170 808 181 779 c 1,0,1
EndSplineSet
Validated: 1
EndChar

StartChar: quoteright
Encoding: 8217 8217 179
Width: 250
Flags: W
LayerCount: 2
Fore
SplineSet
254 700 m 0,0,1
 254 636 254 636 194 560 c 0,2,3
 174 535 174 535 136.5 507.5 c 128,-1,4
 99 480 99 480 92 480 c 0,5,6
 85 480 85 480 74 509 c 1,7,8
 99 528 99 528 163 588 c 0,9,10
 196 622 196 622 198 664 c 1,11,12
 106 668 106 668 106 726 c 0,13,14
 106 753 106 753 124.5 775.5 c 128,-1,15
 143 798 143 798 169 798 c 0,16,17
 254 798 254 798 254 700 c 0,0,1
EndSplineSet
Validated: 1
EndChar

StartChar: trademark
Encoding: 8482 8482 180
Width: 842
Flags: W
LayerCount: 2
Fore
SplineSet
340 749 m 1,0,-1
 220 749 l 1,1,-1
 220 442 l 1,2,-1
 170 442 l 1,3,-1
 170 749 l 1,4,-1
 49 749 l 1,5,-1
 49 800 l 1,6,-1
 340 800 l 1,7,-1
 340 749 l 1,0,-1
788 442 m 1,8,-1
 737 442 l 1,9,-1
 737 749 l 1,10,-1
 736 749 l 1,11,-1
 614 442 l 1,12,-1
 580 442 l 1,13,-1
 462 749 l 1,14,-1
 460 749 l 1,15,-1
 460 442 l 1,16,-1
 409 442 l 1,17,-1
 409 800 l 1,18,-1
 494 800 l 1,19,-1
 597 543 l 1,20,-1
 704 800 l 1,21,-1
 788 800 l 1,22,-1
 788 442 l 1,8,-1
EndSplineSet
Validated: 1
EndChar

StartChar: uni2605
Encoding: 9733 9733 181
Width: 680
Flags: W
LayerCount: 2
Fore
SplineSet
630 155 m 1,0,-1
 411 213 l 1,1,-1
 338 -1 l 1,2,-1
 311 91 l 1,3,-1
 307 82 l 1,4,-1
 270 212 l 1,5,-1
 49 156 l 1,6,-1
 84 202 l 1,7,-1
 74 199 l 1,8,-1
 197 351 l 1,9,-1
 99 454 l 1,10,-1
 100 455 l 1,11,-1
 48 508 l 1,12,-1
 275 458 l 1,13,-1
 303 572 l 1,14,-1
 311 572 l 1,15,-1
 340 673 l 1,16,-1
 404 454 l 1,17,-1
 510 492 l 1,18,-1
 511 490 l 1,19,-1
 616 526 l 1,20,-1
 480 352 l 1,21,-1
 630 155 l 1,0,-1
EndSplineSet
Validated: 1
EndChar

StartChar: uni2606
Encoding: 9734 9734 182
Width: 678
Flags: W
LayerCount: 2
Fore
SplineSet
596 177 m 1,0,-1
 460 346 l 1,1,-1
 566 478 l 1,2,-1
 555 492 l 1,3,-1
 394 428 l 1,4,-1
 347 602 l 1,5,-1
 331 602 l 1,6,-1
 286 431 l 1,7,-1
 103 481 l 1,8,-1
 221 346 l 1,9,-1
 89 182 l 1,10,-1
 281 233 l 1,11,-1
 337 36 l 1,12,-1
 407 230 l 1,13,-1
 596 177 l 1,0,-1
628 153 m 1,14,-1
 412 214 l 1,15,-1
 338 -3 l 1,16,-1
 274 211 l 1,17,-1
 51 154 l 1,18,-1
 201 349 l 1,19,-1
 55 506 l 1,20,-1
 278 455 l 1,21,-1
 339 671 l 1,22,-1
 404 452 l 1,23,-1
 614 524 l 1,24,-1
 479 350 l 1,25,-1
 628 153 l 1,14,-1
EndSplineSet
Validated: 1
EndChar

StartChar: uni262C
Encoding: 9772 9772 183
Width: 812
VWidth: 941
Flags: W
LayerCount: 2
Fore
SplineSet
341 653 m 1,0,1
 283 638 283 638 243 590.5 c 128,-1,2
 203 543 203 543 203 478 c 128,-1,3
 203 413 203 413 244 365 c 128,-1,4
 285 317 285 317 345 301 c 1,5,6
 377 390 377 390 377 461 c 2,7,-1
 377 467 l 1,8,9
 376 535 376 535 341 653 c 1,0,1
596 609 m 128,-1,11
 643 554 643 554 643 479 c 0,12,13
 642 404 642 404 594 348 c 128,-1,14
 546 292 546 292 478 273 c 1,15,16
 484 257 484 257 495 232 c 1,17,18
 465 219 465 219 455.5 212.5 c 128,-1,19
 446 206 446 206 424 184 c 1,20,-1
 424 113 l 1,21,22
 652 237 652 237 692 354 c 0,23,24
 717 427 717 427 717 468 c 128,-1,25
 717 509 717 509 700 543 c 0,26,27
 682 575 682 575 640 629 c 1,28,29
 697 607 697 607 730 554 c 128,-1,30
 763 501 763 501 763 427 c 0,31,32
 763 319 763 319 705 234 c 0,33,34
 663 176 663 176 629 132 c 128,-1,35
 595 88 595 88 591 49 c 1,36,-1
 509 125 l 1,37,38
 468 111 468 111 435 87 c 1,39,40
 466 75 466 75 504.5 51 c 128,-1,41
 543 27 543 27 543 -2 c 0,42,43
 543 -11 543 -11 535 -19 c 128,-1,44
 527 -27 527 -27 517 -27 c 0,45,46
 495 -27 495 -27 494 -5 c 0,47,48
 494 6 494 6 503 18 c 1,49,50
 488 31 488 31 485 33 c 0,51,52
 471 47 471 47 422 63 c 1,53,-1
 422 -20 l 1,54,55
 442 -37 442 -37 442 -52 c 128,-1,56
 442 -67 442 -67 430.5 -77.5 c 128,-1,57
 419 -88 419 -88 404.5 -88 c 128,-1,58
 390 -88 390 -88 380 -77.5 c 128,-1,59
 370 -67 370 -67 370 -52 c 128,-1,60
 370 -37 370 -37 390 -20 c 1,61,-1
 390 63 l 1,62,63
 374 58 374 58 343 44 c 1,64,-1
 309 18 l 1,65,66
 318 6 318 6 318 -5 c 0,67,68
 318 -27 318 -27 297 -27 c 2,69,-1
 295 -27 l 2,70,71
 285 -27 285 -27 277 -19.5 c 128,-1,72
 269 -12 269 -12 269 -2 c 0,73,74
 269 27 269 27 306 50.5 c 128,-1,75
 343 74 343 74 377 87 c 1,76,77
 344 114 344 114 303 125 c 1,78,-1
 221 49 l 1,79,80
 217 85 217 85 187 127 c 0,81,82
 155 167 155 167 107 234 c 0,83,84
 49 320 49 320 49 427 c 0,85,86
 49 502 49 502 82 554.5 c 128,-1,87
 115 607 115 607 172 629 c 1,88,89
 130 575 130 575 112 543 c 0,90,91
 95 509 95 509 95 468 c 128,-1,92
 95 427 95 427 120 354 c 0,93,94
 161 235 161 235 388 113 c 1,95,-1
 388 184 l 1,96,97
 374 198 374 198 348 218 c 0,98,99
 340 223 340 223 317 232 c 1,100,101
 324 249 324 249 333 273 c 1,102,103
 261 294 261 294 218 350 c 0,104,105
 172 407 172 407 172 479.5 c 128,-1,106
 172 552 172 552 218.5 608.5 c 128,-1,107
 265 665 265 665 330 684 c 1,108,109
 325 700 325 700 320 711 c 1,110,111
 378 752 378 752 394 782 c 1,112,-1
 408 804 l 1,113,114
 414 789 414 789 437 757 c 1,115,116
 469 728 469 728 492 711 c 1,117,118
 487 700 487 700 482 684 c 1,119,10
 549 664 549 664 596 609 c 128,-1,11
467 301 m 1,120,121
 527 316 527 316 569 364.5 c 128,-1,122
 611 413 611 413 611 478 c 128,-1,123
 611 543 611 543 570.5 589.5 c 128,-1,124
 530 636 530 636 471 653 c 1,125,126
 436 535 436 535 435 466 c 1,127,-1
 435 460 l 2,128,129
 435 389 435 389 467 301 c 1,120,121
EndSplineSet
Validated: 1
EndChar

StartChar: heart
Encoding: 9829 9829 184
Width: 621
Flags: W
LayerCount: 2
Fore
SplineSet
577 462 m 0,0,1
 577 378 577 378 459 219 c 0,2,3
 391 128 391 128 310 43 c 1,4,5
 232 123 232 123 166 215 c 0,6,7
 51 374 51 374 51 472 c 0,8,9
 51 535 51 535 86 571 c 0,10,11
 121 607 121 607 166 607 c 0,12,13
 261 607 261 607 319 451 c 1,14,15
 371 607 371 607 456 607 c 0,16,17
 501 607 501 607 539 564 c 128,-1,18
 577 521 577 521 577 462 c 0,0,1
EndSplineSet
Validated: 1
EndChar

StartChar: club
Encoding: 9827 9827 185
Width: 618
Flags: W
LayerCount: 2
Fore
SplineSet
478 390 m 0,0,1
 519 390 519 390 542.5 356 c 128,-1,2
 566 322 566 322 566 274.5 c 128,-1,3
 566 227 566 227 535 197 c 128,-1,4
 504 167 504 167 465 167 c 0,5,6
 401 167 401 167 318 234 c 1,7,8
 302 188 302 188 302 133.5 c 128,-1,9
 302 79 302 79 373 41 c 0,10,11
 421 15 421 15 474 7 c 1,12,-1
 474 1 l 1,13,-1
 131 1 l 1,14,-1
 131 10 l 1,15,16
 184 16 184 16 231 42 c 0,17,18
 300 79 300 79 300 133 c 128,-1,19
 300 187 300 187 284 239 c 1,20,21
 269 216 269 216 250 199 c 0,22,23
 206 158 206 158 150 158 c 0,24,25
 112 158 112 158 81 194 c 128,-1,26
 50 230 50 230 50 276.5 c 128,-1,27
 50 323 50 323 77 351.5 c 128,-1,28
 104 380 104 380 145.5 380 c 128,-1,29
 187 380 187 380 256 323 c 1,30,-1
 266 336 l 1,31,32
 191 388 191 388 191 460 c 0,33,34
 191 503 191 503 222 535 c 128,-1,35
 253 567 253 567 304 567 c 128,-1,36
 355 567 355 567 385.5 534 c 128,-1,37
 416 501 416 501 416 460 c 0,38,39
 416 401 416 401 342 337 c 1,40,-1
 354 326 l 1,41,42
 408 390 408 390 478 390 c 0,0,1
EndSplineSet
Validated: 1
EndChar

StartChar: diamond
Encoding: 9830 9830 186
Width: 474
Flags: W
LayerCount: 2
Fore
SplineSet
428 311 m 1,0,1
 343 214 343 214 240 1 c 1,2,3
 165 178 165 178 52 311 c 1,4,5
 104 369 104 369 138 422 c 0,6,7
 172 475 172 475 240 593 c 1,8,9
 290 495 290 495 428 311 c 1,0,1
EndSplineSet
Validated: 1
EndChar

StartChar: spade
Encoding: 9824 9824 187
Width: 519
Flags: W
LayerCount: 2
Fore
SplineSet
259 597 m 1,0,1
 468 295 468 295 468 234.5 c 128,-1,2
 468 174 468 174 433 151 c 0,3,4
 408 134 408 134 356 134 c 0,5,6
 336 134 336 134 294 177 c 1,7,8
 280 138 280 138 280 109 c 128,-1,9
 280 80 280 80 308.5 49 c 128,-1,10
 337 18 337 18 381 12 c 1,11,-1
 381 4 l 1,12,-1
 139 4 l 1,13,-1
 139 12 l 1,14,15
 176 13 176 13 208 46 c 128,-1,16
 240 79 240 79 240 106.5 c 128,-1,17
 240 134 240 134 224 179 c 1,18,19
 185 134 185 134 157 134 c 0,20,21
 52 134 52 134 52 234 c 0,22,23
 52 289 52 289 259 597 c 1,0,1
EndSplineSet
Validated: 1
EndChar

StartChar: uni26AB
Encoding: 9899 9899 188
Width: 458
Flags: W
LayerCount: 2
Fore
SplineSet
405 252 m 128,-1,1
 405 178 405 178 352.5 126 c 128,-1,2
 300 74 300 74 227 74 c 128,-1,3
 154 74 154 74 101.5 126 c 128,-1,4
 49 178 49 178 49 252 c 128,-1,5
 49 326 49 326 101 378 c 128,-1,6
 153 430 153 430 227 430 c 128,-1,7
 301 430 301 430 353 378 c 128,-1,0
 405 326 405 326 405 252 c 128,-1,1
EndSplineSet
Validated: 1
EndChar

StartChar: uni2713
Encoding: 10003 10003 189
Width: 754
Flags: W
LayerCount: 2
Fore
SplineSet
703 594 m 1,0,-1
 279 2 l 1,1,-1
 203 2 l 1,2,3
 173 8 173 8 115 74 c 0,4,5
 52 148 52 148 51 200 c 1,6,7
 59 218 59 218 67 223.5 c 128,-1,8
 75 229 75 229 95 231 c 1,9,10
 126 189 126 189 170 133 c 0,11,12
 214 77 214 77 256 55 c 1,13,14
 315 115 315 115 450 326 c 0,15,16
 524 445 524 445 599 564 c 0,17,18
 621 596 621 596 675 596 c 0,19,20
 689 596 689 596 703 594 c 1,0,-1
EndSplineSet
Validated: 1
EndChar

StartChar: uni2721
Encoding: 10017 10017 190
Width: 630
Flags: W
LayerCount: 2
Fore
SplineSet
218 174 m 1,0,-1
 150 306 l 1,1,-1
 74 174 l 1,2,-1
 218 174 l 1,0,-1
386 157 m 1,3,-1
 242 157 l 1,4,-1
 314 26 l 1,5,-1
 386 157 l 1,3,-1
222 472 m 1,6,-1
 75 472 l 1,7,-1
 151 337 l 1,8,-1
 222 472 l 1,6,-1
481 325 m 1,9,-1
 402 472 l 1,10,-1
 238 472 l 1,11,-1
 156 322 l 1,12,-1
 233 174 l 1,13,-1
 397 174 l 1,14,-1
 481 325 l 1,9,-1
560 174 m 1,15,-1
 487 310 l 1,16,-1
 412 174 l 1,17,-1
 560 174 l 1,15,-1
393 489 m 1,18,-1
 323 621 l 1,19,-1
 248 489 l 1,20,-1
 393 489 l 1,18,-1
560 472 m 1,21,-1
 417 472 l 1,22,-1
 487 340 l 1,23,-1
 560 472 l 1,21,-1
583 157 m 1,24,-1
 402 157 l 1,25,-1
 314 -3 l 1,26,-1
 228 157 l 1,27,-1
 53 157 l 1,28,-1
 143 320 l 1,29,-1
 53 488 l 1,30,-1
 233 489 l 1,31,-1
 322 649 l 1,32,-1
 407 489 l 1,33,-1
 582 488 l 1,34,-1
 494 327 l 1,35,-1
 583 157 l 1,24,-1
EndSplineSet
Validated: 1
EndChar

StartChar: uni272A
Encoding: 10026 10026 191
Width: 780
Flags: W
LayerCount: 2
Fore
SplineSet
651 177 m 1,0,-1
 566 340 l 1,1,-1
 651 497 l 1,2,-1
 479 497 l 1,3,-1
 395 660 l 1,4,-1
 300 497 l 1,5,-1
 128 497 l 1,6,-1
 216 336 l 1,7,-1
 127 177 l 1,8,-1
 303 176 l 1,9,-1
 387 16 l 1,10,-1
 474 176 l 1,11,-1
 651 177 l 1,0,-1
731 339 m 128,-1,13
 731 198 731 198 632 99.5 c 128,-1,14
 533 1 533 1 391 1 c 128,-1,15
 249 1 249 1 151 99.5 c 128,-1,16
 53 198 53 198 53 339 c 128,-1,17
 53 480 53 480 151 577 c 0,18,19
 250 674 250 674 392 674 c 128,-1,20
 534 674 534 674 632.5 577 c 128,-1,12
 731 480 731 480 731 339 c 128,-1,13
EndSplineSet
Validated: 1
EndChar

StartChar: uni27A2
Encoding: 10146 10146 192
Width: 801
Flags: W
LayerCount: 2
Fore
SplineSet
754 304 m 1,0,-1
 71 522 l 1,1,-1
 259 304 l 1,2,-1
 754 304 l 1,0,-1
773 304 m 1,3,-1
 51 78 l 1,4,-1
 250 304 l 1,5,-1
 52 537 l 1,6,-1
 773 304 l 1,3,-1
EndSplineSet
Validated: 1
EndChar

StartChar: uni2B8F
Encoding: 11151 11151 193
Width: 933
Flags: W
LayerCount: 2
Fore
SplineSet
866 -3 m 1,0,-1
 663 -3 l 1,1,-1
 663 483 l 2,2,3
 663 579 663 579 538 585 c 0,4,5
 534 585 534 585 531 585 c 0,6,7
 486 585 486 585 452 550 c 0,8,9
 415 512 415 512 415 482 c 2,10,-1
 415 190 l 1,11,-1
 604 190 l 1,12,-1
 322 -133 l 1,13,-1
 51 189 l 1,14,-1
 235 190 l 1,15,-1
 236 545 l 2,16,17
 236 608 236 608 308 677 c 0,18,19
 401 767 401 767 555.5 767 c 128,-1,20
 710 767 710 767 799 681 c 0,21,22
 866 616 866 616 866 544 c 2,23,-1
 866 -3 l 1,0,-1
EndSplineSet
Validated: 1
EndChar

StartChar: uni2BAA
Encoding: 11178 11178 194
Width: 954
Flags: W
LayerCount: 2
Fore
SplineSet
907 0 m 1,0,-1
 715 0 l 1,1,-1
 715 228 l 2,2,3
 715 259 715 259 716 259 c 0,4,5
 716 259 716 259 716 258 c 1,6,7
 714 273 714 273 700.5 288 c 128,-1,8
 687 303 687 303 680.5 305 c 128,-1,9
 674 307 674 307 644 307 c 2,10,-1
 372 307 l 1,11,-1
 372 116 l 1,12,-1
 49 399 l 1,13,-1
 372 674 l 1,14,-1
 372 488 l 1,15,-1
 735 487 l 2,16,17
 838 487 838 487 865 449 c 0,18,19
 907 390 907 390 907 324 c 2,20,-1
 907 0 l 1,0,-1
EndSplineSet
Validated: 5
EndChar

StartChar: _uni0A75
Encoding: 65573 -1 197
Width: 46
Flags: W
AnchorPoint: "alt_blwm_position" -179 -48 mark 0
LayerCount: 2
Fore
SplineSet
62 525 m 1,0,-1
 -17 525 l 1,1,-1
 -17 604 l 1,2,-1
 62 604 l 1,3,-1
 62 525 l 1,0,-1
-137 -48 m 1,4,5
 -139 -69 -139 -69 -139 -88 c 0,6,7
 -139 -122 -139 -122 -134 -148 c 0,8,9
 -127 -190 -127 -190 -78 -220 c 0,10,11
 -67 -227 -67 -227 -50 -227 c 0,12,13
 -18 -227 -18 -227 -5 -211 c 0,14,15
 4 -200 4 -200 17 -179 c 1,16,17
 30.6 -145.97 30.6 -145.97 37.59 -145.97 c 0,18,19
 37.8 -145.97 37.8 -145.97 38 -146 c 0,20,21
 46.47 -147.41 46.47 -147.41 46.47 -164.27 c 0,22,23
 46.47 -171.29 46.47 -171.29 45 -181 c 0,24,25
 40 -219 40 -219 22 -247 c 0,26,27
 0 -280 0 -280 -44 -280 c 0,28,29
 -92 -280 -92 -280 -128 -244 c 0,30,31
 -161 -210 -161 -210 -170 -161 c 0,32,33
 -174.48 -136.15 -174.48 -136.15 -174.48 -112.79 c 0,34,35
 -174.48 -78.81 -174.48 -78.81 -165 -48 c 1,36,-1
 -137 -48 l 1,4,5
EndSplineSet
Validated: 524289
LCarets2: 1 0
Ligature2: "Ligatures in Gurmukhi lookup 5 subtable" uni0A75 uni200D
EndChar

StartChar: _uni0A41
Encoding: 65598 -1 206
Width: 46
Flags: W
LayerCount: 2
Fore
SplineSet
-139 -137 m 1,0,1
 -200 -153 -200 -153 -327 -153 c 128,-1,2
 -454 -153 -454 -153 -507 -136 c 1,3,-1
 -507 -63 l 1,4,5
 -483 -73 -483 -73 -412 -80 c 128,-1,6
 -341 -87 -341 -87 -316 -87 c 128,-1,7
 -291 -87 -291 -87 -227 -80 c 128,-1,8
 -163 -73 -163 -73 -139 -63 c 1,9,-1
 -139 -137 l 1,0,1
EndSplineSet
Validated: 1
EndChar

StartChar: _uni0A42
Encoding: 65599 -1 207
Width: 46
Flags: W
LayerCount: 2
Fore
SplineSet
-139 -268 m 1,0,1
 -200 -284 -200 -284 -327 -284 c 128,-1,2
 -454 -284 -454 -284 -507 -267 c 1,3,-1
 -507 -194 l 1,4,5
 -483 -204 -483 -204 -412 -211 c 128,-1,6
 -341 -218 -341 -218 -316 -218 c 128,-1,7
 -291 -218 -291 -218 -227 -211 c 128,-1,8
 -163 -204 -163 -204 -139 -194 c 1,9,-1
 -139 -268 l 1,0,1
-141 -137 m 1,10,11
 -202 -153 -202 -153 -329 -153 c 128,-1,12
 -456 -153 -456 -153 -509 -136 c 1,13,-1
 -509 -63 l 1,14,15
 -485 -73 -485 -73 -414 -80 c 128,-1,16
 -343 -87 -343 -87 -318 -87 c 128,-1,17
 -293 -87 -293 -87 -229 -80 c 128,-1,18
 -165 -73 -165 -73 -141 -63 c 1,19,-1
 -141 -137 l 1,10,11
EndSplineSet
Validated: 1
EndChar

StartChar: uni2081
Encoding: 8321 8321 214
Width: 46
Flags: W
LayerCount: 2
Fore
SplineSet
62 525 m 1
 -17 525 l 1
 -17 604 l 1
 62 604 l 1
 62 525 l 1
EndSplineSet
Refer: 45 2663 N 0.45 0 0 0.45 -752 -354 2
Validated: 1
EndChar

StartChar: uni2082
Encoding: 8322 8322 215
Width: 46
Flags: W
LayerCount: 2
Fore
SplineSet
62 525 m 1
 -17 525 l 1
 -17 604 l 1
 62 604 l 1
 62 525 l 1
EndSplineSet
Refer: 46 2664 N 0.45 0 0 0.45 -752 -348 2
Validated: 1
EndChar

StartChar: uni2083
Encoding: 8323 8323 216
Width: 46
Flags: W
LayerCount: 2
Fore
SplineSet
62 525 m 1
 -17 525 l 1
 -17 604 l 1
 62 604 l 1
 62 525 l 1
EndSplineSet
Refer: 47 2665 N 0.45 0 0 0.45 -749 -348 2
Validated: 1
EndChar

StartChar: uni2084
Encoding: 8324 8324 217
Width: 46
Flags: W
LayerCount: 2
Fore
SplineSet
62 525 m 1
 -17 525 l 1
 -17 604 l 1
 62 604 l 1
 62 525 l 1
EndSplineSet
Refer: 48 2666 N 0.45 0 0 0.45 -748 -341 2
Validated: 1
EndChar

StartChar: uni2085
Encoding: 8325 8325 218
Width: 46
Flags: W
LayerCount: 2
Fore
SplineSet
62 525 m 1
 -17 525 l 1
 -17 604 l 1
 62 604 l 1
 62 525 l 1
EndSplineSet
Refer: 49 2667 N 0.45 0 0 0.45 -533 -344 2
Validated: 1
EndChar

StartChar: uni2086
Encoding: 8326 8326 219
Width: 46
Flags: W
LayerCount: 2
Fore
SplineSet
62 525 m 1
 -17 525 l 1
 -17 604 l 1
 62 604 l 1
 62 525 l 1
EndSplineSet
Refer: 50 2668 N 0.45 0 0 0.45 -745 -402 2
Validated: 1
EndChar

StartChar: uni2087
Encoding: 8327 8327 220
Width: 46
Flags: W
LayerCount: 2
Fore
SplineSet
62 525 m 1
 -17 525 l 1
 -17 604 l 1
 62 604 l 1
 62 525 l 1
EndSplineSet
Refer: 51 2669 N 0.45 0 0 0.45 -754 -342 2
Validated: 1
EndChar

StartChar: uni2088
Encoding: 8328 8328 221
Width: 46
Flags: W
LayerCount: 2
Fore
SplineSet
62 525 m 1
 -17 525 l 1
 -17 604 l 1
 62 604 l 1
 62 525 l 1
EndSplineSet
Refer: 52 2670 N 0.45 0 0 0.45 -756 -346 2
Validated: 1
EndChar
